<svg version="1.0" xmlns="http://www.w3.org/2000/svg" width="1130.67" height="1130.67" viewBox="0 0 848 848"><path d="M404.6 49.2c.2 5.1.7 11.2.9 13.5.2 2.4.1 4.1-.3 3.9-.4-.2-4.5-5.8-9.2-12.4-4.7-6.7-9.2-12.2-10-12.5-.8-.2-2.6-.1-4 .3-2.3.5-2.5 1-2.4 6 .1 3 .5 9.8.9 15 .4 5.2.8 11.9.9 14.7l.1 5.3h3.8c4 0 4 0 3.7-7.7-.2-5-.8-14.7-1.1-15.9-.7-3.9 1.3-1.8 11.5 12.7l6.8 9.5 4.1-.6c2.3-.3 4.1-1 4-1.5-.1-.6-.4-6.2-.8-12.5-.3-6.3-.8-13.3-1.2-15.5-.3-2.2-.6-5.6-.7-7.5-.1-3.3-.3-3.5-3.8-3.8l-3.7-.3.5 9.3zM457.7 41.8c-.3.4-.8 3.4-1.1 6.7-.8 7.3-1.6 14.2-2.2 17.5-.2 1.4-.7 5.5-1 9.2-.6 6.6-.5 6.8 1.8 6.9 1.2 0 3.2.2 4.3.4 1.1.2 4.3.6 7 .9 2.8.3 7.8.8 11.3 1.2l6.2.6v-3c0-1.7-.3-3.3-.8-3.6-.4-.2-3.6-.7-7.2-1.1-3.6-.4-7.4-.9-8.5-1-1.1-.2-2.8-.4-3.9-.4-1.6-.1-1.8-.7-1.2-5.4.3-2.8.6-5.4.6-5.6 0-.2 2.6 0 5.8.3 3.1.4 7.9.9 10.6 1.2 3.8.5 4.7.3 4.4-.8-.3-.7-.1-2.3.3-3.6.8-2 .6-2.3-1.3-2.2-1.3.1-2.5.1-2.8 0-.8-.3-4.3-.8-10.3-1.5-5.6-.6-5.7-.7-5.3-3.3.2-1.5.5-3.5.5-4.5.1-1.6.8-1.7 5.9-1.2 3.1.4 6.8.8 8.2.9 1.4.1 3 .5 3.5.8 2 1.1 4.8-.9 5.1-3.5.1-1.5 0-2.7-.4-2.8-.4 0-1.6-.2-2.7-.5-2.7-.6-6.9-1.2-13.5-1.8-3-.4-7.2-.8-9.2-1.1-2-.3-3.9-.1-4.1.3zM541.5 48c.8 1.6 1.5 3.5 1.5 4.3 0 .8 1.1 1.8 2.4 2.1 1.3.3 3 .8 3.8 1.1.8.3 3.1-1 5.2-2.9l3.9-3.4-3.3-.7c-2.3-.5-3.7-.3-4.8.9-1.4 1.4-1.7 1.3-3.2-1.2-1.1-1.7-2.7-2.8-4.4-3-2.6-.2-2.6-.2-1.1 2.8zM317.4 54.1c-.3.5-1.4.9-2.5.9-1.5 0-1.9.7-2 3.2 0 1.8-.2 4.6-.4 6.3-.4 3.8-1.5 13-2 17-.2 1.6-.7 6.3-1.1 10.4-.6 7-.5 7.4 1.2 6.6 1.1-.4 2.9-1 4.2-1.2 1.2-.3 2.2-1.3 2.3-2.2.1-2.1.8-6.3 1.3-7.7.3-.7 3.9-2 8.1-3 6.9-1.6 7.8-1.7 8.6-.3 2.8 5.2 4.4 6.2 8.7 5.4 2.3-.4 4.2-1 4.2-1.4 0-.7-1.2-2.3-5-6.8-.6-.7-2-2.7-3.3-4.5-3.4-5-14-19-16-21.3-1.9-2.1-5.4-2.8-6.3-1.4zm7.5 16c2.3 3.4 4 6.4 3.7 6.6-.3.3-1.6.7-2.8.9-1.3.2-3.4.6-4.7 1l-2.3.7.5-7.4c.3-4.1.6-7.5.6-7.7.2-.8 1.3.5 5 5.9zM534.5 57.9c-4.3 2-8.5 6.2-8.5 8.6 0 .8-.4 1.5-.9 1.5-1.2 0-2.9 9.1-2.5 13.8.7 9.1 8.7 16.3 18.4 16.4 4.2 0 6.1-.6 9.4-2.9 5.1-3.6 5.7-6.2 1.7-8.6-2.9-1.7-3-1.7-5.9 1.3-3.9 3.8-7.9 3.9-12.1.4-2.7-2.2-3.1-3.3-3.1-7.2 0-9.3 4.8-17.5 10.4-18 4-.3 8.4 2.4 10 6.2 1.2 2.8 1.8 3.3 5 3.3s3.6-.3 3.6-2.7c0-3.6-3.7-8.9-7.8-11.2-5-2.7-12.9-3.2-17.7-.9zM264.1 72.1c-2.8 1.1-5.9 2.5-16.4 7.3-4.4 2-8.3 3.6-8.8 3.6s-.9.5-.9 1.1c0 .9 1.7 4.7 2.5 5.7.2.2 2.2-.6 4.6-1.7 2.3-1.2 4.9-2.1 5.6-2.1 1.2 0 2.9 2.4 3.3 4.5.1.5 1.6 4.1 3.4 8 1.8 3.8 4.1 9.1 5.2 11.7 2.2 5.6 3.3 6.2 7.3 4.2l3-1.5-2.5-5.7c-1.5-3.1-3.3-7.3-4.1-9.2-2.4-5.6-5.5-12.3-6.5-14.3-.8-1.5-.1-2.1 4.6-4.2 3.1-1.4 5.6-2.7 5.6-2.9 0-1.1-2.4-5.6-2.9-5.5-.3 0-1.7.5-3 1zM603.1 82.7c-.6 1.6-3.4 7.1-6.1 12.3-2.7 5.2-5 10.1-5 10.7 0 .7-.4 1.3-.8 1.3-1 0-4.2 6.5-4.2 8.6 0 1.2 3.7 3.4 5.8 3.4.4 0 3.2-5 6.1-11 3-6 5.7-10.7 5.9-10.5.2.2.6 1.9.8 3.7.5 5.2 1.6 21.1 1.7 23.6.1 1.7 1.2 2.9 3.9 4.3l3.8 1.9 2.2-4.2c1.2-2.4 4.4-8.4 7-13.3 2.6-5 5-9.7 5.4-10.5.3-.8 1.4-3.1 2.5-5.1l1.8-3.6-3.4-1.6-3.4-1.6-1.8 3.2c-1 1.8-3.4 6.3-5.3 10.2-1.9 3.8-3.8 7.2-4.3 7.3-.4.2-.5.8-.1 1.3.3.5 0 .9-.5.9-.6 0-1.1-1.7-1.2-3.8 0-2-.2-5.1-.4-6.7-.3-1.7-.6-6-.7-9.7-.2-3.8-.6-6.8-1-6.8-.3 0-.4-.9-.1-1.9.4-1.6-.3-2.3-3.2-3.5-4.6-2-4.1-2.1-5.4 1.1zM418.6 111.7c-.1.1-4.9.5-10.6.8-12.3.6-18.2 1.1-22.9 2-1.9.3-5.3.7-7.7.9-2.3.2-4.6.6-5 .8-.5.3-3.1.9-5.9 1.3-7.7 1.2-7.7 1.2-13 2.4-6.3 1.3-7.8 1.7-14.3 3.5-2.9.8-5.5 1.5-5.7 1.5-.8.2-2.5.8-12 3.7-4.9 1.5-14.4 5-21 7.7s-13 5.1-14.2 5.4c-1.3.3-2.3.9-2.3 1.4 0 .5-.6.9-1.2.9-1.6 0-22.2 10.2-22.6 11.2-.2.5-.8.8-1.3.8s-3.8 1.8-7.4 4c-3.6 2.2-6.9 4-7.4 4-.4 0-1.6.9-2.6 2s-2.2 2-2.6 2c-.5 0-2.8 1.4-5.1 3-2.4 1.7-5.4 3.8-6.8 4.7-4.3 2.9-22.3 16.8-27 20.9-6.9 6-32 31.2-37.2 37.4-2.6 3-6.9 8.4-9.7 12-2.8 3.6-5.5 7-6 7.7-5.9 7-27.1 41.5-27.1 43.9 0 .7-.4 1.4-.9 1.6-1.5.5-20.7 43.3-20 44.6 0 .2-.4 1.5-.9 3-3.4 8.9-10.3 34.5-12.7 46.9-.9 4.7-2.6 15.6-3.1 19.3-.2 1.9-.6 5.1-.9 7-1.8 13.3-2.5 52.9-1.1 68.5.7 8.9 1.6 16.6 2.1 18.5.2.8.6 3.5.9 6 .3 2.5.8 5.5 1 6.6.2 1.2.7 3.9 1 6 .4 2.2 1.1 5.7 1.7 7.9.6 2.2 1.3 4.9 1.5 6 1.3 7 4.9 19.3 8.8 30.5 2 5.8 3.8 11.3 4.1 12.4.2 1 1.3 3.7 2.3 6 1.1 2.2 3.2 7 4.7 10.6 5.1 12 15.4 31.9 20.2 39 1.2 1.9 2.3 4 2.3 4.7 0 .7.4 1.3.8 1.3.5 0 1.5 1.2 2.3 2.7.8 1.6 2.2 3.7 3.2 4.7.9 1.1 1.7 2.5 1.7 3.2 0 .7.4 1.4.8 1.6.5.2 2.3 2.5 4.1 5.1 3.4 5.1 17 22.3 21.8 27.7 4.2 4.7 26.4 27.1 30.4 30.5 5.8 5.1 13.7 11.5 14 11.5.2 0 .4-3.3.5-7.3.1-14.9 2.2-28.2 7-43.5 1.5-4.8 2.8-8.9 2.9-9.2.2-.5 1-2.6 3.7-9 8.9-21.1 21-39.4 40.1-60.7 5.3-6 6.2-5.4 1.8 1.1-4.1 5.9-13.2 24.2-17.4 35.1-3.2 8.1-7.3 21-6.8 21 .1 0-.3 1.3-.9 2.9-.6 1.6-1.3 4.5-1.6 6.5-.3 2-.8 4.5-1.1 5.6-.3 1.1-.7 3.1-.8 4.5-.2 1.4-.6 5.2-1.1 8.5-1 7-1 30.5-.1 38.5.8 7.2 2.3 15 4.3 22.8 1.6 5.8 2.1 6.4 6.8 9.4 11.9 7.5 45.6 24.4 50.6 25.4.3 0 1.6.5 3 1.1 4.9 2 19.6 7.1 26.5 9.2 3.9 1.2 8.5 2.6 10.3 3.2 1.9.6 4.4 1.3 5.5 1.5 1.2.2 4 .7 6.2 1.2 16 3.7 29.5 5.9 48.5 7.9 8.3.9 50 .9 60.5.1 14.8-1.3 30.2-3.5 43.5-6.4 1.4-.3 3.6-.7 5-1 4.3-.9 14.4-3.5 16-4.1.8-.3 2.4-.8 3.5-1 2.4-.4 11.2-3.1 14-4.3 1.1-.4 5.6-2 10-3.6 4.4-1.5 10.8-4 14.3-5.6 3.4-1.5 6.5-2.8 6.8-2.8 1.1 0 32.3-15.9 33.4-17 .3-.3 2.1-1.4 4-2.4 9.8-5.4 37.7-25.2 47-33.4l3.5-3.1-5.5-5.6c-11.6-11.7-25.2-26-31.9-33.4-3.8-4.2-8-8.7-9.2-10.1-1.3-1.5-4.9-5.5-7.9-9s-6.6-7.6-8-9.1c-1.4-1.5-4.7-5.6-7.5-9.1-2.7-3.5-5.8-7.2-6.8-8.3-1.1-1.1-7.6-9.7-14.6-19-18.7-24.9-34.9-49.5-46-70-1.8-3.3-3.8-6.6-4.3-7.3-.6-.6-.8-1.2-.5-1.2.3 0-1.5-3.7-3.9-8.2-2.4-4.5-4.4-8.4-4.4-8.8 0-.3-1.2-3.1-2.6-6-2.5-5.2-4-8.7-4.3-10.2-.1-.4-1.2-3.1-2.5-6-4.9-11.2-12.9-37.2-15-48.8-.3-1.9-.8-4.6-1.1-6-.3-1.4-.8-4.5-1.1-7-.3-2.5-.7-5.2-.9-6-1.1-3.9-2.4-35-1.5-35 .3 0 .5-2.1.6-4.8.1-8.2 1.9-22 3.5-28.5.6-2.1 1.2-5.3 1.4-7.1 1.1-8.4 9.4-29.7 13.1-33.3.7-.8 1.7-2.1 2.2-2.9.8-1.4 3-2.1 13.2-4 1.4-.3 7.7-1.6 14-3s12.6-2.8 14-3.1c2-.3 10.1-2.1 26.2-5.7 1.6-.4 1.6-.2 0 2.3-.9 1.4-1.9 2.8-2.2 3.1-3.2 2.8-17.3 32.6-18.6 39.3-.2 1.1-.8 3.4-1.3 5.1-.6 1.7-1.3 4.4-1.6 6.1-.2 1.6-.9 5.5-1.5 8.6-.6 3.1-1.2 7.8-1.5 10.5-.6 7-.6 28.4 0 31.4.3 1.4.8 5 1 8 .3 3 .7 6.6 1 8 .6 2.4 1.2 5.3 2 9.5 4.1 21.6 16.7 53.9 32.3 83 14.2 26.5 37.9 62.4 56.9 86.5 6.5 8.2 11.2 14.2 13.3 17 1.4 1.8 3 3.8 3.5 4.4.6.6 3 3.6 5.5 6.6 2.5 3 4.7 5.7 5 6 .5.4 7.1 8.4 11 13.3.8 1.1 2.6 3.1 4 4.7 1.4 1.5 4.8 5.3 7.5 8.5 9.1 10.7 12.8 14.5 13.9 14.4.6 0 4.3-4.3 8.1-9.6 3.9-5.2 7.5-10 8-10.7.6-.6 2.9-4 5.2-7.6 2.4-3.6 4.6-7 5.1-7.5 5-6.3 27.3-49 28.7-55 .2-1 .7-2.3 3.2-8.5.8-1.9 2.1-5.5 2.9-8 .8-2.5 1.8-5.2 2.1-6 .4-.8.7-1.8.8-2.3.2-.4.3-.8.5-1 .1-.1.3-.9.5-1.7.2-.8 1.3-4.9 2.5-9s2.4-8.4 2.6-9.5c.2-1.1 1.5-7 2.8-13 1.4-6.1 2.8-12.8 3.1-15 .3-2.2.8-5.8 1.2-8 1-6 1-6.4 1.8-15 .4-4.4.9-9.6 1.1-11.5.5-5.2.4-39.4-.1-47.5-.8-11.9-1.9-20.8-4-33-.3-1.7-.8-4.8-1.1-7-.3-2.2-.8-4.7-1.1-5.5-.8-2-.8-1.8-1.8-7.5-1.1-6.6-.9-5.9-3.5-14.5-1.2-4.1-2.3-8-2.5-8.5-.1-.6-.4-1.7-.7-2.5-.3-.8-2-5.8-3.7-11-1.8-5.2-3.6-10.5-4.1-11.8-1.4-3.1-2.6-5.9-5.4-12.5-1.4-3.1-2.5-6-2.6-6.2-.3-2.8-22.2-41.9-25.5-45.5-.8-.9-1.5-2-1.5-2.4 0-.5-2.7-4.4-6-8.8-3.3-4.3-6-8.3-6-8.8 0-.4-.4-1-.8-1.2-.5-.2-2.6-2.6-4.8-5.3-14.1-17.9-34.5-38.6-51.4-52.2-1.9-1.5-3.7-3-4-3.3-.3-.3-3.2-2.5-6.5-5s-6.2-4.7-6.5-5c-.3-.3-1.2-1-2.1-1.5-1.8-1.1-16.5-10.9-19.1-12.7-8.2-5.7-49.2-26.2-51.8-26-.3 0-1.4-.5-2.4-1-5.2-2.8-36.1-12.9-43.6-14.3-.8-.1-2.3-.6-3.3-1-2.8-1.2-2.9-.2-.4 4.6 2.3 4.3 3.6 8.2 4.2 12.4.2 1.1.6 3.3 1 5 .6 3 .6 13.5 0 19-.9 8.4-1.5 11.3-2.4 13.8-.6 1.5-.9 2.7-.7 2.7.2 0-1.1 3.9-3 8.7-7.1 18.1-19 32.9-30.6 38.1-9.7 4.4-18.8 3.4-25.6-2.8-3.6-3.3-10.7-16.4-9.7-18 .3-.5.3-1-.2-1-1.7 0-2.3-21-.9-31 1.7-12 8.6-29.3 15.6-39.6 3.9-5.6 11.2-13.2 15.3-15.9 1.5-1 2.6-2 2.3-2.2-.7-.7-8.4-1.6-26.1-2.9-7.8-.6-32.5-1.1-32.9-.7zm-152.5 75.8c13.2 6.6 24.9 19.5 33.7 37 5.5 11.1 7.4 18.1 7.7 29.5.3 9.2 0 11.1-2 15.6-3.3 7.5-7.9 10.6-15.8 10.8-16.4.3-37.2-18-48.8-42.8-1.7-3.5-3.2-7.7-3.5-9.2-.3-1.5-.7-3.1-1-3.6-1.2-1.9-1.8-6.8-1.8-15.3-.1-13.3 2.8-19.7 10.8-23.9 4.5-2.3 14-1.4 20.7 1.9zm359.7 34.7c-.7 1.3-1.3 2.5-1.3 2.8-.2 1.3-4.9 9.7-6.3 11.2-.8 1-1.1 1.8-.6 1.8.5 0 .4.4-.2.8-.6.4-2.5 2.9-4.4 5.7-8.5 12.6-25.9 27-42 34.8-7.5 3.6-25.9 10.1-31.5 11-1.6.3-6.4 1.2-10.5 2.1-16.6 3.3-38.4 5.4-71.5 7.1-12.9.7-24.9 1.5-30.5 2-3 .3-8.4.8-12 1.1-11.9 1-13.5 1.2-18.5 2-2.7.4-5.9.8-7 1-1.1.1-2 .3-2 .4 0 .1-1.6.3-3.5.5-1.9.3-4.2.6-5 .8-1.6.4-7.5 1.6-10 2.1-5.7 1-27.3 7.7-28.7 8.9-.9.6-1.3.6-1.3-.2 0-.6 3.5-4.6 7.8-8.9 12.4-12.3 28.4-22.8 44.5-29.1 4-1.6 8.1-3.2 9.2-3.6 1.1-.4 2.5-.9 3-1 .6-.2 5.1-1.4 10-2.8 8.5-2.4 11-3 18-4.2 1.7-.3 5.3-1 8-1.5 2.8-.6 6.4-1.2 8-1.4 1.7-.2 4.8-.7 7-1 2.2-.3 6.3-.8 9-1.1 2.8-.3 6.4-.7 8-.9 1.7-.2 5.7-.7 9-1 3.3-.4 8-.9 10.5-1.2 2.5-.3 6.1-.7 8-.9 1.9-.2 6-.6 9-1 3-.3 7.1-.8 9-1 1.9-.2 4.9-.6 6.5-.8 1.7-.3 5.2-.8 7.8-1.2 2.7-.4 5.9-.8 7-1.1 1.2-.2 3.6-.6 5.2-.9 1.7-.3 7.2-1.5 12.3-2.6 5.2-1.2 9.9-2.2 10.5-2.3.7-.2 1.9-.5 2.7-.8.8-.4 6-2 11.5-3.8 11.8-3.8 28.7-12 38.8-18.9 3.9-2.8 7.3-5 7.5-5 .1-.1-.3.9-1 2.1zm-392.3 77.3c4.3.4 23.2 5.9 28.5 8.2 16.7 7.4 36 18.4 41.8 23.8 1.5 1.4 3 2.5 3.3 2.5.3 0 1.5.8 2.6 1.7 1.1 1 4.7 4 7.9 6.8 26.5 22.8 50.2 54.3 69.4 92 7 13.8 7 13.9 3.1 9.5-2.2-2.5-4.1-4.8-4.1-5.1 0-.3-1-1.7-2.2-3.1-1.3-1.4-5-5.6-8.3-9.4-6.3-7.3-32.1-33.4-39.2-39.7-2.3-2-4.7-3.7-5.3-3.7-.5 0-1-.4-1-.8 0-1.5-15.8-12.7-28-19.8-7.6-4.5-25.3-13.4-26.6-13.4-1.9 0-27.5-12.6-30.9-15.2-5.3-4.1-11.5-11.2-14.6-16.6-2.9-5-7.9-16.7-7.9-18.4 0-.5 2.1-.6 4.8-.2 2.6.4 5.6.8 6.7.9zM427 319.6c6.3 1 16.3 5.6 20.1 9.1 3.7 3.5 6.6 9.1 7.7 14.8 1 5.7.4 17.6-1.2 26.5-.5 2.6-1.6 9.1-2.1 12.5-.2 1.1-.6 3.3-.9 5-1.4 6.9-1.6 8.8-2 14.1-.3 3.1-.7 5.8-1 6.1-.2.3-.1 1.6.4 2.9.6 1.4.6 2.6-.1 2.9-.5.4-.7 1-.5 1.4.3.4.8 3 1.1 5.7.3 2.7 1.1 7.4 1.6 10.4.6 3 1.2 6.6 1.4 8 .4 3.1 1.3 7.6 2.2 11 .3 1.4.7 3 .9 3.7.8 3.9 3.7 15 4.5 17 .5 1.3 1.1 3.4 1.3 4.6.7 3.3 6.7 19.7 11.5 31.7 4.9 11.9 14.1 31.1 20 41.5 2.2 3.8 4.5 8 5 9.3.6 1.2 1.9 3.5 3 5 1 1.5 6.1 9.2 11.3 17.2 5.2 8 10.1 15.2 10.9 16 .8.8 2.5 3.1 3.9 5.1 4.8 6.9 21.9 27.9 26.2 32.1 1.5 1.6 2.5 2.8 2.2 2.8-1 0 40.7 41.2 46 45.5 2.7 2.2 5.9 4.9 7 6 1.2 1.2 4.7 4 7.8 6.3 6.8 5 8.7 7.5 3.2 4.2-4.2-2.6-21.3-14-27.9-18.7-5.2-3.6-31.2-24.2-34.7-27.4-1.5-1.3-5.5-4.9-8.9-7.9-8.3-7.2-39.2-38.1-44.9-44.9-2.5-2.9-5.8-6.8-7.5-8.7-3.8-4.2-3.8-4.3-11-13.4-3.2-4.1-6.2-7.7-6.5-8-2.2-1.7-25.3-36.2-31.2-46.5-4.4-7.7-13.2-25.3-16.3-32.5-1.5-3.6-3.4-8-4.2-9.8-1.8-4.2-7.3-20.9-7.9-24.2-.3-1.4-.7-3.2-1-4-2.4-6.7-4.5-23.7-4.6-36.5-.1-16 1.3-26.1 8-58 1.3-6.2.7-16.9-1.1-20.6-1.9-3.9-7.6-10.2-12.1-13.4-8.2-5.8-8.3-5.7 4.9-5.1 6.6.3 13.6.8 15.5 1.2zm-54.6 139.6c.3 1.3 1 4.6 1.6 7.4.6 2.8 1.2 6.4 1.4 8 .1 1.6.5 3.4.8 3.9.8 1.3.2 36.1-.8 49-1.5 18.1-1 40.4 1.1 54 1.7 11 6.8 27.4 12.6 41 4.5 10.6 15.7 31.8 17.1 32.3.4.2.8.8.8 1.2 0 1.4 12.3 20 13.2 20 .4 0 .8.9.8 2 0 1.5-.7 2-2.7 2.1-3 .1-4.2.2-14.8 1.4-3.8.4-8.4.9-10.2 1-1.7.2-6 .9-9.5 1.5-3.4.7-7.3 1.3-8.6 1.4-1.2.2-2.5.6-2.9.9-.3.4-1.4.7-2.4.7-1.5 0-16.2 4-20 5.5-1.3.5-2-.4-3.2-3.7-.8-2.4-2.9-8.1-4.5-12.8-2.8-7.8-6.1-19.7-6.8-24.5-.1-1.1-.8-4.5-1.3-7.5-3.1-15.4-2.9-38.5.4-57 1.5-8.8 1.8-10.2 3.4-16 3.2-11.9 4.2-15.4 5.5-18.5.8-1.9 1.2-3.5.9-3.5-.3 0-.1-.6.4-1.3.6-.6 1.6-3 2.2-5.2.7-2.2 1.6-4.9 2.1-6 .4-1.1 1.5-4 2.4-6.5.8-2.5 2.1-5.9 2.7-7.5.7-1.7 1.3-3.5 1.4-4 .2-.6 1.7-5.1 3.4-10 3.3-9.1 6-18.4 6.6-22 .2-1.1.4-2 .5-2 .5 0 3.8-18.7 4.2-24.3.3-3.7 1.5-4.3 2.2-1zm-42.8 75c-5.4 10.7-11.9 26.1-13.1 30.8-.2.8-1.3 4.4-2.4 8-2.4 7.7-5.7 21.8-6.6 27.7-.3 2.3-.8 5.7-1.1 7.5-1 6.9-1.7 17.7-1.8 28.3 0 15.2.9 25 3.9 41 .8 4.4 5.5 21.6 6.6 24.4 1.1 2.6.1 4.3-2.6 4.7-5.3.8-22.1 8.6-34 15.8-3.3 2-6.3 3.6-6.6 3.6-.7 0-1.4-2.9-3-12-3.2-18.7-3.7-24.1-3.7-40.5.1-21.6 3.3-41.3 9.3-58.7 1.4-4 2.7-7.8 2.9-8.3 2.4-7.7 17.2-36.3 21.8-42 .5-.6 3.6-4.7 6.9-9.3 3.4-4.6 8-10.4 10.3-12.9 4.9-5.6 18.8-20.3 19.1-20.3.1 0-2.6 5.5-5.9 12.2zM674.6 113.2c-3.8 1.9-3.9 2.1-2 3.5 1.8 1.3 5.4 1.2 10.7-.3 2-.6 2.3-2.4.3-2.4-.7 0-1.9-.7-2.6-1.5-1.6-1.9-1.6-1.9-6.4.7zM181.4 116.7c-1 1-5.7 4.7-10.4 8.2-4.7 3.5-8.9 6.7-9.3 7.1-.5.4.2 2 1.5 3.4l2.3 2.8 7-5.6c3.8-3 7.1-5.3 7.3-5.1.3.2.3 4.4.2 9.2-.6 19.6-.3 24 1.6 26.7 2.3 3.1 3.3 3.2 6.4.3 1.4-1.2 4.7-3.8 7.3-5.7 2.7-1.9 5.9-4.5 7.2-5.8 1.3-1.2 2.7-2.2 3-2.2.7 0 4.5-3.9 4.5-4.7 0-.3-.7-1.5-1.6-2.4-1.3-1.5-2.1-1.6-3.8-.7-1.1.6-2.3 1.4-2.6 1.7-.3.4-2 1.7-3.8 3-1.9 1.3-4.5 3.4-5.9 4.7-2.5 2.4-6 3.4-4.8 1.4.3-.5.7-8.4.8-17.4.2-14.2 0-16.7-1.4-18.5-2.1-2.6-3-2.6-5.5-.4zM662 129.2c-4.1 6.1-8 11.5-8.5 12.2-.6.6-2.3 3.1-3.8 5.5-2.8 4.2-2.8 4.4-1 6 3.4 3.2 4.8 3.1 7.4-.8 1.3-2 3-4.2 3.6-4.9.7-.7 1.3-1.7 1.3-2.2 0-.5.6-1.5 1.3-2.2 1.2-1.2 12.3-16.7 14-19.4.3-.6-1-2-3.1-3.1l-3.7-2.1-7.5 11zM706.3 153.9c-4.3 4.7-14.3 15.4-20.1 21.3l-4.5 4.7 2.4 2.5c1.3 1.4 2.8 2.6 3.4 2.6.5 0 3.5-2.7 6.8-6.1 6.6-6.9 5.1-7 13.9 1.2l3.8 3.6-3.1 3.4c-1.8 1.9-4.5 4.8-6.2 6.6l-3 3.2 2.8 2.5c1.5 1.4 3 2.6 3.2 2.6.2 0 3.4-3.2 7.1-7.1 3.7-3.9 9.7-10.3 13.5-14.2 3.7-3.9 6.7-7.6 6.7-8.2 0-.6-1.2-2.1-2.6-3.4l-2.5-2.2-5.3 5.7c-6 6.4-6.1 6.4-13.3-.8l-4.3-4.3 5.4-5.9c5.7-6.2 5.7-5.9 1.1-9.7-1.9-1.5-2.2-1.4-5.2 2zM117.7 173c-1.5 1.6-2.7 3.2-2.7 3.5 0 .6 3.6 8.5 10.5 23.2 3 6.2 5.6 12.1 6 13.2.9 2.8 2.7 2.6 5.4-.6l2.4-2.6-2.2-4.5-2.2-4.5 5.8-5.8 5.8-5.8 4.4 2 4.4 2 2.9-2.8c1.5-1.5 2.8-3 2.8-3.3 0-.7-17.3-8.2-19.5-8.6-.6-.1-3.1-1.1-5.6-2.2-4.5-2.1-14.7-6.2-15.3-6.2-.1 0-1.5 1.3-2.9 3zm13.5 9.8c2.6 1.2 5.2 2.2 5.7 2.2 2.4 0 1.8 2-1.5 5.5-1.9 2.1-3.6 3.6-3.7 3.4-3.4-5.6-7.2-14.3-5.9-13.6.4.2 2.8 1.3 5.4 2.5zM755.5 214c-7.1 1.6-15.1 7.4-18 13.1-6.8 13.1 5.8 30.6 20.5 28.3 14.1-2.3 23.9-17.3 18.6-28.6-4.4-9.2-13.2-14.5-21.1-12.8zm9.5 9.7c4.2 2.4 5.7 6.1 5.1 12.4-.2 2.4-6 7.9-10.6 9.9-5.1 2.3-9.6 1.6-13-2-4.7-4.9-4.1-11.3 1.7-16.7 5.6-5.3 11.8-6.6 16.8-3.6zM80.8 217.1c-1.9 3.3-2.3 5.5-1 6.1 1.8.8 18.1 21.8 16.9 21.8-.8 0-3.5-.7-6.2-1.4-2.6-.8-5.1-1.4-5.4-1.4-.7.2-5.7-1.1-9.1-2.2-1.4-.5-4.1-1.1-6-1.4-3.3-.6-3.7-.3-5.4 2.9-1.1 1.9-1.7 3.7-1.5 3.9.3.2 15.1 3.8 25.4 6.1 1.1.2 5.1 1.2 8.9 2.1l7 1.7 2.3-2.9c1.3-1.6 2.3-3.5 2.3-4.2 0-1.1-4.7-7.9-7-10.2-.3-.3-2.5-3.2-5-6.5s-4.7-6.2-5-6.5c-.3-.3-2.3-2.9-4.4-5.8-2.1-2.8-4.1-5.2-4.4-5.2-.4 0-1.5 1.4-2.4 3.1zM43.5 286c-1.7 1.1-4.1 3.8-5.4 6-2.5 4.4-4.1 15-2.3 15 .6 0 1.3.9 1.7 1.9.3 1.1 2.2 2.6 4.2 3.4 4.9 1.9 9.3.5 14.1-4.6 10.1-10.8 9.7-10.5 12.7-8.3 1.3.9 1.9 2.6 1.9 5.1 0 4.8-4.8 9.7-8.9 8.9-2.2-.4-2.8.1-4.1 3.2-.8 2-1.3 3.9-1 4.2 1 .9 8 1 10.3.1 3.8-1.4 7.1-5 9.2-9.9 3.9-9.1 2.3-16.2-4.3-19.4-6.5-3.1-11.2-1.7-16.6 4.8-7.1 8.5-11.2 10.6-12.5 6.5-1.4-4.5 4.3-12.4 7.4-10.4 1.1.6 3.5-2.7 4.5-6.1.5-1.8.2-2-3.6-2.2-2.8-.1-5.3.5-7.3 1.8zM800.8 301.9l-3.3 3 .2 10.8c.2 9.6 0 11-1.6 12-2.6 1.6-5.7.6-7.7-2.5-2.5-3.8-2.4-7.3.1-10.7 2.1-2.8 2.2-3.4.9-6.3-.7-1.8-1.7-3.2-2.2-3.2-.4 0-2.2 1.4-4 3.1-4.2 4.1-5 8.5-2.9 16.4 1.1 4 5.4 9.5 8.7 11 6.8 3.1 15.1-.3 16.6-6.8.9-4 .9-4.8.1-12.3-.9-7.3-.3-9.4 2.8-9.4 4.6 0 7.8 9.8 4.2 12.5-1.6 1.1-1.6 1.6-.2 4.9 1.8 4.3 2.4 4.4 5.8 1.2s4.3-7 2.8-12c-.7-2.3-1.3-4.7-1.3-5.5-.1-.8-1.8-3.1-3.8-5.1-5-5-10.4-5.4-15.2-1.1zM14.5 368.1c-.4.6-1 2.6-1.2 4.5-.5 3.5-.9 2.9 10.1 12.6 1.7 1.5 2.8 2.9 2.6 3.1-.6.6-11.6 4.6-14.7 5.4-1.3.3-2.4 1.5-2.8 3.2-1.4 6.5-1.4 7.3-.2 6.8 24.2-9.8 25.3-10 34.7-8 8 1.7 8 1.6 8.1-.8 0-1.3.2-3.2.4-4.1.3-1.6-2.7-2.7-12.6-4.2-3.4-.6-6-2.6-19-15.1-3-2.9-5-4.1-5.4-3.4zM834.7 367.6c-.4.4-1.7.8-2.9 1-2.4.3-4.3.6-12.3 2.3-2.7.6-6.1 1.2-7.5 1.5-1.4.2-5.3 1-8.8 1.6l-6.3 1.3.5 3.6c.3 2 .5 3.8.6 4 0 .4 9.4-.9 13.9-2.1.9-.2 1.8 1.5 2.7 5.5 1.9 8.1 4 11.6 7.9 13.3 4.4 1.8 6.5 1.8 11.4-.2 2.7-1.1 4.5-2.6 5.6-5 1.7-3.6 1.7-5.3-.6-16.9-.6-3.3-1.2-6.6-1.3-7.3-.3-1.7-2.1-3.4-2.9-2.6zm-2 14.6c.6 3.2.5 6.2 0 7.5-1 2.2-5.3 3.7-6.3 2.1-.3-.4-1-.6-1.5-.3-1 .7-2.5-2.7-3.8-8.6l-.9-3.9 3.7-.6c2-.3 4.1-.7 4.6-.9 2.7-.9 3.4-.1 4.2 4.7zM.7 380.6c-.4 2.6-.1 4 1.3 5.4 1 1 2.1 1.6 2.4 1.2.3-.3.6-.1.6.5s.7 1.4 1.6 1.7c.8.3 1.3.2 1-.2-.2-.4-.1-1.4.4-2.2.6-.9-.2-2.8-2.2-5.7-1.7-2.4-3.5-4.3-3.8-4.3-.4 0-1 1.6-1.3 3.6zM819.6 441.7c-7 1.9-13 8.9-13.9 16.1-1.5 13.5 6.5 22.3 20.8 22.7 12.6.4 21.4-7.7 21.5-19.6 0-11.8-8.1-19.5-20.7-19.6-3.2-.1-6.7.1-7.7.4zm15.8 9.8c2.9 1.4 4.3 3.2 5 6.7 0 .3.4 1 .8 1.4.4.4.3 1.3-.3 2.1-.6.7-.9 1.3-.5 1.3s0 1.3-.9 3c-2.1 4-4.8 5.4-12 6.1-4.9.4-12.5-2.4-12.5-4.7 0-.7-.4-1.4-.9-1.6-1-.3-1.4-2.7-1.2-6.9.3-7.9 12.8-12 22.5-7.4zM34.5 447.5c-4.4 3-8.4 5.8-9 6.3-5.1 4-5.6 4.2-8 1.9-3.2-3.2-10.7-10-12.7-11.5-1.6-1.3-1.7-.9-1.5 3.9.2 5.8.1 5.5 14.1 17.7 2.1 1.8 3.6 3.6 3.3 3.9-.3.3-4.2.5-8.6.6-7.9 0-8 0-7.9 2.6 0 1.4-.1 3.3-.3 4.1-.3 1.3 1.6 1.5 13.6 1.3 7.7-.1 17-.2 20.8-.2l6.7-.1v-4c0-4.4.1-4.3-7.6-4-3.4.1-4.9-.5-7.8-3-3.8-3.4-3.8-4.5-.3-6.1 2.7-1.1 5.7-3 7.5-4.7.7-.6 2-1.2 2.8-1.2.8 0 1.4-.4 1.4-.9s.8-1.2 1.9-1.6c1.5-.4 1.8-1.5 1.7-5.2 0-2.5-.5-4.8-1.1-4.9-.5-.2-4.6 2.2-9 5.1zM801.9 516.7c-.1 1-.3 3-.4 4.5-.4 2.5-.1 2.7 5.9 3.7 3.4.6 7 1.1 7.9 1.1 2 0 2.3 3.1.6 6.1-.6 1.1-4.9 3.8-9.7 6-4.8 2.3-8.8 4.2-8.9 4.3-.1.1-.5 2.4-.8 5.1-.4 3.2-.3 4.5.3 3.7.5-.8 1.2-1.3 1.6-1.3.3.1.8 0 1.1 0 4.4-1.1 10.3-3.8 13.4-6.1 2.5-1.9 4.6-1.5 3.7.7-.8 2.2 3.1 7.2 6.7 8.4 8.8 2.9 14.5-1.5 16.1-12.4.2-1.1.6-3.4.9-5 .4-1.7.9-4.6 1.2-6.5.3-1.9.8-4.2 1-5 .3-1-.2-1.6-1.3-1.7-.9-.1-5.5-.8-10.2-1.7-12.2-2.2-14.1-2.6-18-3.2-8.1-1.3-9.4-1.5-10.2-2-.4-.3-.9.3-.9 1.3zm26.4 12.2c.4.1 1.8.1 3.2.1 2.5 0 2.6.2 1.9 4.7-.3 2.7-.7 5.5-.8 6.5-.6 4.6-7.5 6.7-9.5 2.9-.9-1.5-.7-7.4.5-13.1.1-.8.3-1.9.3-2.3.1-.4.9-.3 1.9.2.9.5 2 .9 2.5 1zM33.1 518.1c-4.1 2.5-5.9 6.3-6.6 14.3-.3 3.8-1 7.7-1.6 8.7-1.6 3.1-4.7 2.3-6.4-1.7-1.7-4.2-1.1-7.9 1.7-9.8 1.6-1.1 1.8-2.1 1.3-5-.8-4-1.4-4.2-5.4-2.1-7.3 3.7-7.3 19.5 0 26.1 3 2.7 10.7 2.6 13.5-.1 3.1-2.9 4.1-5.4 4.8-11.5 1.4-12 2.8-14 7.7-11.5 4.7 2.5 4.9 10.8.5 14.7-2.2 1.9-2.6 2.8-2 5.5.8 3.8 1.7 4 6.2 1.3 6.2-3.8 8-14.5 3.8-23.2-3.3-6.8-11.3-9.5-17.5-5.7zM61.5 580.8c-1.1.2-2.4.7-2.8 1.2-.8.7 2.1 9.3 5.8 17.5 1.6 3.4 1.2 4.3-2.1 5.6-6.7 2.5-7 2.4-9.2-3.3-1.1-2.9-2.6-7-3.4-9.1-1.2-3.5-1.5-3.8-4.2-3.3-1.6.4-3.2.8-3.4 1.1-.3.2 1.1 4.6 3 9.7 3.8 10.2 3.7 10.8-2.3 12.3-2.4.6-2.7.1-6.4-9.4-2.9-7.7-4.3-10.1-5.7-10.1-1 0-1.8.4-1.8 1 0 .5-.7 1-1.5 1s-1.5.1-1.5.3c0 .6 5.5 14.4 8.4 21 .9 2.1 1.6 4.4 1.6 5.2 0 2.2 1.4 1.9 14.5-3.1 6.6-2.6 12.9-5 14-5.4 4.6-1.7 10.5-4.3 10.5-4.6 0-.4-3.9-10.9-5.3-14.4-.6-1.4-1.1-2.7-1.2-3-.1-.3-.7-1.8-1.3-3.3-.7-1.6-1.2-3.2-1.2-3.6 0-1.7-2.7-3.7-4.5-3.3zM780.5 596.2c-.7 1.8-1.2 3.5-1 3.9.2.3 6.8 2.9 14.7 5.9 7.9 2.9 14.8 5.7 15.5 6.2.8.7.6 2.2-.9 5.9-2.3 5.4-1.9 6.7 2.1 7.1 2.2.3 2.7-.5 4.9-6.2 1.4-3.6 3.9-10.2 5.7-14.8l3.3-8.3-2.6-1c-3.6-1.4-4.5-.8-6.5 4.9l-1.7 5-5.3-1.9c-2.8-1.1-6.1-2.4-7.2-2.9-4.7-2-17.8-7-18.7-7-.5 0-1.5 1.5-2.3 3.2zM80.6 647.7c-.2.2.1 2.2.6 4.3 1 3.8 1.1 3.9 4.8 3.4 5.1-.7 8.9 2.5 9.6 8.1.4 3.4 0 4.5-2.4 7.2-1.6 1.8-3.5 3.3-4.1 3.3-.6 0-1.1.4-1.1.9 0 .9-2 1.7-7.4 3.1-7.6 2-14.4-6.5-10.4-13 1.1-1.7.9-2.4-1.8-5.1l-3.1-3.1-2.2 4.5c-2.4 5-2.2 11.8.5 14.8.8.8 1.4 1.9 1.4 2.3 0 .5 1.5 2.1 3.3 3.7 7.3 6.5 20 5.1 28.7-3.3 9.8-9.3 7.7-24.2-4.1-30.3-2.5-1.4-11.2-1.9-12.3-.8zM758.5 648.3c-5 1.7-10.7 9.4-11.8 15.7-.8 5 1.2 8.8 6.7 13 2.9 2.2 5.8 4 6.4 4 .7 0 1.2.4 1.2 1 0 .5.5 1 1.1 1 .6 0 3 1.3 5.4 3 2.4 1.6 4.8 3 5.4 3 .6 0 1.1.4 1.1.9s.6 1.1 1.4 1.4c.9.4 2.2-.7 3.6-3 1.1-1.9 2-3.7 1.8-3.8-.2-.1-5.6-3.5-12.1-7.5-13.5-8.3-15.6-10.5-13.7-14.9 2.2-5.3 6.1-7.4 10.5-5.6 1.1.5 6.2 3.4 11.2 6.6 13.9 8.7 12.8 8.4 15.2 4.7 1.8-3 1.9-3.4.4-5-.9-1-1.8-1.6-2.1-1.3-.2.2-1.9-.7-3.7-2-1.7-1.4-3.5-2.5-3.8-2.5-.6 0-6.8-3.9-9.2-5.7-4.3-3.3-10.6-4.6-15-3zM51.5 676.1c-.4.5-.2.9.4.9.5 0 1.3.9 1.6 2 .4 1.3 1.5 2 3.2 2 2.3 0 2.5.3 1.9 3.2-.4 2.2-.1 3.7 1.1 5 1.6 1.8 1.8 1.7 3.5-2.8 1.1-2.7 1.5-5 1-5.3-.5-.3-1.2-1.6-1.6-2.9-.5-1.3-1.6-2.2-2.9-2.3-1.2-.1-3.4-.3-4.9-.5-1.5-.1-3 .1-3.3.7z"/></svg>