<?xml version="1.0" standalone="no"?>
<!DOCTYPE svg PUBLIC "-//W3C//DTD SVG 20010904//EN"
 "http://www.w3.org/TR/2001/REC-SVG-20010904/DTD/svg10.dtd">
<svg version="1.0" xmlns="http://www.w3.org/2000/svg"
 width="848.000000pt" height="848.000000pt" viewBox="0 0 848.000000 848.000000"
 preserveAspectRatio="xMidYMid meet">
<metadata>
Created by potrace 1.14, written by Peter Selinger 2001-2017
</metadata>
<g transform="translate(0.000000,848.000000) scale(0.100000,-0.100000)"
fill="#000000" stroke="none">
<path d="M4046 7988 c2 -51 7 -112 9 -135 2 -24 1 -41 -3 -39 -4 2 -45 58 -92
124 -47 67 -92 122 -100 125 -8 2 -26 1 -40 -3 -23 -5 -25 -10 -24 -60 1 -30
5 -98 9 -150 4 -52 8 -119 9 -147 l1 -53 38 0 c40 0 40 0 37 77 -2 50 -8 147
-11 159 -7 39 13 18 115 -127 l68 -95 41 6 c23 3 41 10 40 15 -1 6 -4 62 -8
125 -3 63 -8 133 -12 155 -3 22 -6 56 -7 75 -1 33 -3 35 -38 38 l-37 3 5 -93z"/>
<path d="M4577 8062 c-3 -4 -8 -34 -11 -67 -8 -73 -16 -142 -22 -175 -2 -14
-7 -55 -10 -92 -6 -66 -5 -68 18 -69 12 0 32 -2 43 -4 11 -2 43 -6 70 -9 28
-3 78 -8 113 -12 l62 -6 0 30 c0 17 -3 33 -8 36 -4 2 -36 7 -72 11 -36 4 -74
9 -85 10 -11 2 -28 4 -39 4 -16 1 -18 7 -12 54 3 28 6 54 6 56 0 2 26 0 58 -3
31 -4 79 -9 106 -12 38 -5 47 -3 44 8 -3 7 -1 23 3 36 8 20 6 23 -13 22 -13
-1 -25 -1 -28 0 -8 3 -43 8 -103 15 -56 6 -57 7 -53 33 2 15 5 35 5 45 1 16 8
17 59 12 31 -4 68 -8 82 -9 14 -1 30 -5 35 -8 20 -11 48 9 51 35 1 15 0 27 -4
28 -4 0 -16 2 -27 5 -27 6 -69 12 -135 18 -30 4 -72 8 -92 11 -20 3 -39 1 -41
-3z"/>
<path d="M5415 8000 c8 -16 15 -35 15 -43 0 -8 11 -18 24 -21 13 -3 30 -8 38
-11 8 -3 31 10 52 29 l39 34 -33 7 c-23 5 -37 3 -48 -9 -14 -14 -17 -13 -32
12 -11 17 -27 28 -44 30 -26 2 -26 2 -11 -28z"/>
<path d="M3174 7939 c-3 -5 -14 -9 -25 -9 -15 0 -19 -7 -20 -32 0 -18 -2 -46
-4 -63 -4 -38 -15 -130 -20 -170 -2 -16 -7 -63 -11 -104 -6 -70 -5 -74 12 -66
11 4 29 10 42 12 12 3 22 13 23 22 1 21 8 63 13 77 3 7 39 20 81 30 69 16 78
17 86 3 28 -52 44 -62 87 -54 23 4 42 10 42 14 0 7 -12 23 -50 68 -6 7 -20 27
-33 45 -34 50 -140 190 -160 213 -19 21 -54 28 -63 14z m75 -160 c23 -34 40
-64 37 -66 -3 -3 -16 -7 -28 -9 -13 -2 -34 -6 -47 -10 l-23 -7 5 74 c3 41 6
75 6 77 2 8 13 -5 50 -59z"/>
<path d="M5345 7901 c-43 -20 -85 -62 -85 -86 0 -8 -4 -15 -9 -15 -12 0 -29
-91 -25 -138 7 -91 87 -163 184 -164 42 0 61 6 94 29 51 36 57 62 17 86 -29
17 -30 17 -59 -13 -39 -38 -79 -39 -121 -4 -27 22 -31 33 -31 72 0 93 48 175
104 180 40 3 84 -24 100 -62 12 -28 18 -33 50 -33 32 0 36 3 36 27 0 36 -37
89 -78 112 -50 27 -129 32 -177 9z"/>
<path d="M2641 7759 c-28 -11 -59 -25 -164 -73 -44 -20 -83 -36 -88 -36 -5 0
-9 -5 -9 -11 0 -9 17 -47 25 -57 2 -2 22 6 46 17 23 12 49 21 56 21 12 0 29
-24 33 -45 1 -5 16 -41 34 -80 18 -38 41 -91 52 -117 22 -56 33 -62 73 -42
l30 15 -25 57 c-15 31 -33 73 -41 92 -24 56 -55 123 -65 143 -8 15 -1 21 46
42 31 14 56 27 56 29 0 11 -24 56 -29 55 -3 0 -17 -5 -30 -10z"/>
<path d="M6031 7653 c-6 -16 -34 -71 -61 -123 -27 -52 -50 -101 -50 -107 0 -7
-4 -13 -8 -13 -10 0 -42 -65 -42 -86 0 -12 37 -34 58 -34 4 0 32 50 61 110 30
60 57 107 59 105 2 -2 6 -19 8 -37 5 -52 16 -211 17 -236 1 -17 12 -29 39 -43
l38 -19 22 42 c12 24 44 84 70 133 26 50 50 97 54 105 3 8 14 31 25 51 l18 36
-34 16 -34 16 -18 -32 c-10 -18 -34 -63 -53 -102 -19 -38 -38 -72 -43 -73 -4
-2 -5 -8 -1 -13 3 -5 0 -9 -5 -9 -6 0 -11 17 -12 38 0 20 -2 51 -4 67 -3 17
-6 60 -7 97 -2 38 -6 68 -10 68 -3 0 -4 9 -1 19 4 16 -3 23 -32 35 -46 20 -41
21 -54 -11z"/>
<path d="M4186 7363 c-1 -1 -49 -5 -106 -8 -123 -6 -182 -11 -229 -20 -19 -3
-53 -7 -77 -9 -23 -2 -46 -6 -50 -8 -5 -3 -31 -9 -59 -13 -77 -12 -77 -12
-130 -24 -63 -13 -78 -17 -143 -35 -29 -8 -55 -15 -57 -15 -8 -2 -25 -8 -120
-37 -49 -15 -144 -50 -210 -77 -66 -27 -130 -51 -142 -54 -13 -3 -23 -9 -23
-14 0 -5 -6 -9 -12 -9 -16 0 -222 -102 -226 -112 -2 -5 -8 -8 -13 -8 -5 0 -38
-18 -74 -40 -36 -22 -69 -40 -74 -40 -4 0 -16 -9 -26 -20 -10 -11 -22 -20 -26
-20 -5 0 -28 -14 -51 -30 -24 -17 -54 -38 -68 -47 -43 -29 -223 -168 -270
-209 -69 -60 -320 -312 -372 -374 -26 -30 -69 -84 -97 -120 -28 -36 -55 -70
-60 -77 -59 -70 -271 -415 -271 -439 0 -7 -4 -14 -9 -16 -15 -5 -207 -433
-200 -446 0 -2 -4 -15 -9 -30 -34 -89 -103 -345 -127 -469 -9 -47 -26 -156
-31 -193 -2 -19 -6 -51 -9 -70 -18 -133 -25 -529 -11 -685 7 -89 16 -166 21
-185 2 -8 6 -35 9 -60 3 -25 8 -55 10 -66 2 -12 7 -39 10 -60 4 -22 11 -57 17
-79 6 -22 13 -49 15 -60 13 -70 49 -193 88 -305 20 -58 38 -113 41 -124 2 -10
13 -37 23 -60 11 -22 32 -70 47 -106 51 -120 154 -319 202 -390 12 -19 23 -40
23 -47 0 -7 4 -13 8 -13 5 0 15 -12 23 -27 8 -16 22 -37 32 -47 9 -11 17 -25
17 -32 0 -7 4 -14 8 -16 5 -2 23 -25 41 -51 34 -51 170 -223 218 -277 42 -47
264 -271 304 -305 58 -51 137 -115 140 -115 2 0 4 33 5 73 1 149 22 282 70
435 15 48 28 89 29 92 2 5 10 26 37 90 89 211 210 394 401 607 53 60 62 54 18
-11 -41 -59 -132 -242 -174 -351 -32 -81 -73 -210 -68 -210 1 0 -3 -13 -9 -29
-6 -16 -13 -45 -16 -65 -3 -20 -8 -45 -11 -56 -3 -11 -7 -31 -8 -45 -2 -14 -6
-52 -11 -85 -10 -70 -10 -305 -1 -385 8 -72 23 -150 43 -228 16 -58 21 -64 68
-94 119 -75 456 -244 506 -254 3 0 16 -5 30 -11 49 -20 196 -71 265 -92 39
-12 85 -26 103 -32 19 -6 44 -13 55 -15 12 -2 40 -7 62 -12 160 -37 295 -59
485 -79 83 -9 500 -9 605 -1 148 13 302 35 435 64 14 3 36 7 50 10 43 9 144
35 160 41 8 3 24 8 35 10 24 4 112 31 140 43 11 4 56 20 100 36 44 15 108 40
143 56 34 15 65 28 68 28 11 0 323 159 334 170 3 3 21 14 40 24 98 54 377 252
470 334 l35 31 -55 56 c-116 117 -252 260 -319 334 -38 42 -80 87 -92 101 -13
15 -49 55 -79 90 -30 35 -66 76 -80 91 -14 15 -47 56 -75 91 -27 35 -58 72
-68 83 -11 11 -76 97 -146 190 -187 249 -349 495 -460 700 -18 33 -38 66 -43
73 -6 6 -8 12 -5 12 3 0 -15 37 -39 82 -24 45 -44 84 -44 88 0 3 -12 31 -26
60 -25 52 -40 87 -43 102 -1 4 -12 31 -25 60 -49 112 -129 372 -150 488 -3 19
-8 46 -11 60 -3 14 -8 45 -11 70 -3 25 -7 52 -9 60 -11 39 -24 350 -15 350 3
0 5 21 6 48 1 82 19 220 35 285 6 21 12 53 14 71 11 84 94 297 131 333 7 8 17
21 22 29 8 14 30 21 132 40 14 3 77 16 140 30 63 14 126 28 140 31 20 3 101
21 262 57 16 4 16 2 0 -23 -9 -14 -19 -28 -22 -31 -32 -28 -173 -326 -186
-393 -2 -11 -8 -34 -13 -51 -6 -17 -13 -44 -16 -61 -2 -16 -9 -55 -15 -86 -6
-31 -12 -78 -15 -105 -6 -70 -6 -284 0 -314 3 -14 8 -50 10 -80 3 -30 7 -66
10 -80 6 -24 12 -53 20 -95 41 -216 167 -539 323 -830 142 -265 379 -624 569
-865 65 -82 112 -142 133 -170 14 -18 30 -38 35 -44 6 -6 30 -36 55 -66 25
-30 47 -57 50 -60 5 -4 71 -84 110 -133 8 -11 26 -31 40 -47 14 -15 48 -53 75
-85 91 -107 128 -145 139 -144 6 0 43 43 81 96 39 52 75 100 80 107 6 6 29 40
52 76 24 36 46 70 51 75 50 63 273 490 287 550 2 10 7 23 32 85 8 19 21 55 29
80 8 25 18 52 21 60 4 8 7 18 8 23 2 4 3 8 5 10 1 1 3 9 5 17 2 8 13 49 25 90
12 41 24 84 26 95 2 11 15 70 28 130 14 61 28 128 31 150 3 22 8 58 12 80 10
60 10 64 18 150 4 44 9 96 11 115 5 52 4 394 -1 475 -8 119 -19 208 -40 330
-3 17 -8 48 -11 70 -3 22 -8 47 -11 55 -8 20 -8 18 -18 75 -11 66 -9 59 -35
145 -12 41 -23 80 -25 85 -1 6 -4 17 -7 25 -3 8 -20 58 -37 110 -18 52 -36
105 -41 118 -14 31 -26 59 -54 125 -14 31 -25 60 -26 62 -3 28 -222 419 -255
455 -8 9 -15 20 -15 24 0 5 -27 44 -60 88 -33 43 -60 83 -60 88 0 4 -4 10 -8
12 -5 2 -26 26 -48 53 -141 179 -345 386 -514 522 -19 15 -37 30 -40 33 -3 3
-32 25 -65 50 -33 25 -62 47 -65 50 -3 3 -12 10 -21 15 -18 11 -165 109 -191
127 -82 57 -492 262 -518 260 -3 0 -14 5 -24 10 -52 28 -361 129 -436 143 -8
1 -23 6 -33 10 -28 12 -29 2 -4 -46 23 -43 36 -82 42 -124 2 -11 6 -33 10 -50
6 -30 6 -135 0 -190 -9 -84 -15 -113 -24 -138 -6 -15 -9 -27 -7 -27 2 0 -11
-39 -30 -87 -71 -181 -190 -329 -306 -381 -97 -44 -188 -34 -256 28 -36 33
-107 164 -97 180 3 5 3 10 -2 10 -17 0 -23 210 -9 310 17 120 86 293 156 396
39 56 112 132 153 159 15 10 26 20 23 22 -7 7 -84 16 -261 29 -78 6 -325 11
-329 7z m-1525 -758 c132 -66 249 -195 337 -370 55 -111 74 -181 77 -295 3
-92 0 -111 -20 -156 -33 -75 -79 -106 -158 -108 -164 -3 -372 180 -488 428
-17 35 -32 77 -35 92 -3 15 -7 31 -10 36 -12 19 -18 68 -18 153 -1 133 28 197
108 239 45 23 140 14 207 -19z m3597 -347 c-7 -13 -13 -25 -13 -28 -2 -13 -49
-97 -63 -112 -8 -10 -11 -18 -6 -18 5 0 4 -4 -2 -8 -6 -4 -25 -29 -44 -57 -85
-126 -259 -270 -420 -348 -75 -36 -259 -101 -315 -110 -16 -3 -64 -12 -105
-21 -166 -33 -384 -54 -715 -71 -129 -7 -249 -15 -305 -20 -30 -3 -84 -8 -120
-11 -119 -10 -135 -12 -185 -20 -27 -4 -59 -8 -70 -10 -11 -1 -20 -3 -20 -4 0
-1 -16 -3 -35 -5 -19 -3 -42 -6 -50 -8 -16 -4 -75 -16 -100 -21 -57 -10 -273
-77 -287 -89 -9 -6 -13 -6 -13 2 0 6 35 46 78 89 124 123 284 228 445 291 40
16 81 32 92 36 11 4 25 9 30 10 6 2 51 14 100 28 85 24 110 30 180 42 17 3 53
10 80 15 28 6 64 12 80 14 17 2 48 7 70 10 22 3 63 8 90 11 28 3 64 7 80 9 17
2 57 7 90 10 33 4 80 9 105 12 25 3 61 7 80 9 19 2 60 6 90 10 30 3 71 8 90
10 19 2 49 6 65 8 17 3 52 8 78 12 27 4 59 8 70 11 12 2 36 6 52 9 17 3 72 15
123 26 52 12 99 22 105 23 7 2 19 5 27 8 8 4 60 20 115 38 118 38 287 120 388
189 39 28 73 50 75 50 1 1 -3 -9 -10 -21z m-3923 -773 c43 -4 232 -59 285 -82
167 -74 360 -184 418 -238 15 -14 30 -25 33 -25 3 0 15 -8 26 -17 11 -10 47
-40 79 -68 265 -228 502 -543 694 -920 70 -138 70 -139 31 -95 -22 25 -41 48
-41 51 0 3 -10 17 -22 31 -13 14 -50 56 -83 94 -63 73 -321 334 -392 397 -23
20 -47 37 -53 37 -5 0 -10 4 -10 8 0 15 -158 127 -280 198 -76 45 -253 134
-266 134 -19 0 -275 126 -309 152 -53 41 -115 112 -146 166 -29 50 -79 167
-79 184 0 5 21 6 48 2 26 -4 56 -8 67 -9z m1935 -201 c63 -10 163 -56 201 -91
37 -35 66 -91 77 -148 10 -57 4 -176 -12 -265 -5 -26 -16 -91 -21 -125 -2 -11
-6 -33 -9 -50 -14 -69 -16 -88 -20 -141 -3 -31 -7 -58 -10 -61 -2 -3 -1 -16 4
-29 6 -14 6 -26 -1 -29 -5 -4 -7 -10 -5 -14 3 -4 8 -30 11 -57 3 -27 11 -74
16 -104 6 -30 12 -66 14 -80 4 -31 13 -76 22 -110 3 -14 7 -30 9 -37 8 -39 37
-150 45 -170 5 -13 11 -34 13 -46 7 -33 67 -197 115 -317 49 -119 141 -311
200 -415 22 -38 45 -80 50 -93 6 -12 19 -35 30 -50 10 -15 61 -92 113 -172 52
-80 101 -152 109 -160 8 -8 25 -31 39 -51 48 -69 219 -279 262 -321 15 -16 25
-28 22 -28 -10 0 407 -412 460 -455 27 -22 59 -49 70 -60 12 -12 47 -40 78
-63 68 -50 87 -75 32 -42 -42 26 -213 140 -279 187 -52 36 -312 242 -347 274
-15 13 -55 49 -89 79 -83 72 -392 381 -449 449 -25 29 -58 68 -75 87 -38 42
-38 43 -110 134 -32 41 -62 77 -65 80 -22 17 -253 362 -312 465 -44 77 -132
253 -163 325 -15 36 -34 80 -42 98 -18 42 -73 209 -79 242 -3 14 -7 32 -10 40
-24 67 -45 237 -46 365 -1 160 13 261 80 580 13 62 7 169 -11 206 -19 39 -76
102 -121 134 -82 58 -83 57 49 51 66 -3 136 -8 155 -12z m-546 -1396 c3 -13
10 -46 16 -74 6 -28 12 -64 14 -80 1 -16 5 -34 8 -39 8 -13 2 -361 -8 -490
-15 -181 -10 -404 11 -540 17 -110 68 -274 126 -410 45 -106 157 -318 171
-323 4 -2 8 -8 8 -12 0 -14 123 -200 132 -200 4 0 8 -9 8 -20 0 -15 -7 -20
-27 -21 -30 -1 -42 -2 -148 -14 -38 -4 -84 -9 -102 -10 -17 -2 -60 -9 -95 -15
-34 -7 -73 -13 -86 -14 -12 -2 -25 -6 -29 -9 -3 -4 -14 -7 -24 -7 -15 0 -162
-40 -200 -55 -13 -5 -20 4 -32 37 -8 24 -29 81 -45 128 -28 78 -61 197 -68
245 -1 11 -8 45 -13 75 -31 154 -29 385 4 570 15 88 18 102 34 160 32 119 42
154 55 185 8 19 12 35 9 35 -3 0 -1 6 4 13 6 6 16 30 22 52 7 22 16 49 21 60
4 11 15 40 24 65 8 25 21 59 27 75 7 17 13 35 14 40 2 6 17 51 34 100 33 91
60 184 66 220 2 11 4 20 5 20 5 0 38 187 42 243 3 37 15 43 22 10z m-428 -750
c-54 -107 -119 -261 -131 -308 -2 -8 -13 -44 -24 -80 -24 -77 -57 -218 -66
-277 -3 -23 -8 -57 -11 -75 -10 -69 -17 -177 -18 -283 0 -152 9 -250 39 -410
8 -44 55 -216 66 -244 11 -26 1 -43 -26 -47 -53 -8 -221 -86 -340 -158 -33
-20 -63 -36 -66 -36 -7 0 -14 29 -30 120 -32 187 -37 241 -37 405 1 216 33
413 93 587 14 40 27 78 29 83 24 77 172 363 218 420 5 6 36 47 69 93 34 46 80
104 103 129 49 56 188 203 191 203 1 0 -26 -55 -59 -122z"/>
<path d="M6746 7348 c-38 -19 -39 -21 -20 -35 18 -13 54 -12 107 3 20 6 23 24
3 24 -7 0 -19 7 -26 15 -16 19 -16 19 -64 -7z"/>
<path d="M1814 7313 c-10 -10 -57 -47 -104 -82 -47 -35 -89 -67 -93 -71 -5 -4
2 -20 15 -34 l23 -28 70 56 c38 30 71 53 73 51 3 -2 3 -44 2 -92 -6 -196 -3
-240 16 -267 23 -31 33 -32 64 -3 14 12 47 38 73 57 27 19 59 45 72 58 13 12
27 22 30 22 7 0 45 39 45 47 0 3 -7 15 -16 24 -13 15 -21 16 -38 7 -11 -6 -23
-14 -26 -17 -3 -4 -20 -17 -38 -30 -19 -13 -45 -34 -59 -47 -25 -24 -60 -34
-48 -14 3 5 7 84 8 174 2 142 0 167 -14 185 -21 26 -30 26 -55 4z"/>
<path d="M6620 7188 c-41 -61 -80 -115 -85 -122 -6 -6 -23 -31 -38 -55 -28
-42 -28 -44 -10 -60 34 -32 48 -31 74 8 13 20 30 42 36 49 7 7 13 17 13 22 0
5 6 15 13 22 12 12 123 167 140 194 3 6 -10 20 -31 31 l-37 21 -75 -110z"/>
<path d="M7063 6941 c-43 -47 -143 -154 -201 -213 l-45 -47 24 -25 c13 -14 28
-26 34 -26 5 0 35 27 68 61 66 69 51 70 139 -12 l38 -36 -31 -34 c-18 -19 -45
-48 -62 -66 l-30 -32 28 -25 c15 -14 30 -26 32 -26 2 0 34 32 71 71 37 39 97
103 135 142 37 39 67 76 67 82 0 6 -12 21 -26 34 l-25 22 -53 -57 c-60 -64
-61 -64 -133 8 l-43 43 54 59 c57 62 57 59 11 97 -19 15 -22 14 -52 -20z"/>
<path d="M1177 6750 c-15 -16 -27 -32 -27 -35 0 -6 36 -85 105 -232 30 -62 56
-121 60 -132 9 -28 27 -26 54 6 l24 26 -22 45 -22 45 58 58 58 58 44 -20 44
-20 29 28 c15 15 28 30 28 33 0 7 -173 82 -195 86 -6 1 -31 11 -56 22 -45 21
-147 62 -153 62 -1 0 -15 -13 -29 -30z m135 -98 c26 -12 52 -22 57 -22 24 0
18 -20 -15 -55 -19 -21 -36 -36 -37 -34 -34 56 -72 143 -59 136 4 -2 28 -13
54 -25z"/>
<path d="M7555 6340 c-71 -16 -151 -74 -180 -131 -68 -131 58 -306 205 -283
141 23 239 173 186 286 -44 92 -132 145 -211 128z m95 -97 c42 -24 57 -61 51
-124 -2 -24 -60 -79 -106 -99 -51 -23 -96 -16 -130 20 -47 49 -41 113 17 167
56 53 118 66 168 36z"/>
<path d="M808 6309 c-19 -33 -23 -55 -10 -61 18 -8 181 -218 169 -218 -8 0
-35 7 -62 14 -26 8 -51 14 -54 14 -7 -2 -57 11 -91 22 -14 5 -41 11 -60 14
-33 6 -37 3 -54 -29 -11 -19 -17 -37 -15 -39 3 -2 151 -38 254 -61 11 -2 51
-12 89 -21 l70 -17 23 29 c13 16 23 35 23 42 0 11 -47 79 -70 102 -3 3 -25 32
-50 65 -25 33 -47 62 -50 65 -3 3 -23 29 -44 58 -21 28 -41 52 -44 52 -4 0
-15 -14 -24 -31z"/>
<path d="M435 5620 c-17 -11 -41 -38 -54 -60 -25 -44 -41 -150 -23 -150 6 0
13 -9 17 -19 3 -11 22 -26 42 -34 49 -19 93 -5 141 46 101 108 97 105 127 83
13 -9 19 -26 19 -51 0 -48 -48 -97 -89 -89 -22 4 -28 -1 -41 -32 -8 -20 -13
-39 -10 -42 10 -9 80 -10 103 -1 38 14 71 50 92 99 39 91 23 162 -43 194 -65
31 -112 17 -166 -48 -71 -85 -112 -106 -125 -65 -14 45 43 124 74 104 11 -6
35 27 45 61 5 18 2 20 -36 22 -28 1 -53 -5 -73 -18z"/>
<path d="M8008 5461 l-33 -30 2 -108 c2 -96 0 -110 -16 -120 -26 -16 -57 -6
-77 25 -25 38 -24 73 1 107 21 28 22 34 9 63 -7 18 -17 32 -22 32 -4 0 -22
-14 -40 -31 -42 -41 -50 -85 -29 -164 11 -40 54 -95 87 -110 68 -31 151 3 166
68 9 40 9 48 1 123 -9 73 -3 94 28 94 46 0 78 -98 42 -125 -16 -11 -16 -16 -2
-49 18 -43 24 -44 58 -12 34 32 43 70 28 120 -7 23 -13 47 -13 55 -1 8 -18 31
-38 51 -50 50 -104 54 -152 11z"/>
<path d="M145 4799 c-4 -6 -10 -26 -12 -45 -5 -35 -9 -29 101 -126 17 -15 28
-29 26 -31 -6 -6 -116 -46 -147 -54 -13 -3 -24 -15 -28 -32 -14 -65 -14 -73
-2 -68 242 98 253 100 347 80 80 -17 80 -16 81 8 0 13 2 32 4 41 3 16 -27 27
-126 42 -34 6 -60 26 -190 151 -30 29 -50 41 -54 34z"/>
<path d="M8347 4804 c-4 -4 -17 -8 -29 -10 -24 -3 -43 -6 -123 -23 -27 -6 -61
-12 -75 -15 -14 -2 -53 -10 -88 -16 l-63 -13 5 -36 c3 -20 5 -38 6 -40 0 -4
94 9 139 21 9 2 18 -15 27 -55 19 -81 40 -116 79 -133 44 -18 65 -18 114 2 27
11 45 26 56 50 17 36 17 53 -6 169 -6 33 -12 66 -13 73 -3 17 -21 34 -29 26z
m-20 -146 c6 -32 5 -62 0 -75 -10 -22 -53 -37 -63 -21 -3 4 -10 6 -15 3 -10
-7 -25 27 -38 86 l-9 39 37 6 c20 3 41 7 46 9 27 9 34 1 42 -47z"/>
<path d="M7 4674 c-4 -26 -1 -40 13 -54 10 -10 21 -16 24 -12 3 3 6 1 6 -5 0
-6 7 -14 16 -17 8 -3 13 -2 10 2 -2 4 -1 14 4 22 6 9 -2 28 -22 57 -17 24 -35
43 -38 43 -4 0 -10 -16 -13 -36z"/>
<path d="M8196 4063 c-70 -19 -130 -89 -139 -161 -15 -135 65 -223 208 -227
126 -4 214 77 215 196 0 118 -81 195 -207 196 -32 1 -67 -1 -77 -4z m158 -98
c29 -14 43 -32 50 -67 0 -3 4 -10 8 -14 4 -4 3 -13 -3 -21 -6 -7 -9 -13 -5
-13 4 0 0 -13 -9 -30 -21 -40 -48 -54 -120 -61 -49 -4 -125 24 -125 47 0 7 -4
14 -9 16 -10 3 -14 27 -12 69 3 79 128 120 225 74z"/>
<path d="M345 4005 c-44 -30 -84 -58 -90 -63 -51 -40 -56 -42 -80 -19 -32 32
-107 100 -127 115 -16 13 -17 9 -15 -39 2 -58 1 -55 141 -177 21 -18 36 -36
33 -39 -3 -3 -42 -5 -86 -6 -79 0 -80 0 -79 -26 0 -14 -1 -33 -3 -41 -3 -13
16 -15 136 -13 77 1 170 2 208 2 l67 1 0 40 c0 44 1 43 -76 40 -34 -1 -49 5
-78 30 -38 34 -38 45 -3 61 27 11 57 30 75 47 7 6 20 12 28 12 8 0 14 4 14 9
0 5 8 12 19 16 15 4 18 15 17 52 0 25 -5 48 -11 49 -5 2 -46 -22 -90 -51z"/>
<path d="M8019 3313 c-1 -10 -3 -30 -4 -45 -4 -25 -1 -27 59 -37 34 -6 70 -11
79 -11 20 0 23 -31 6 -61 -6 -11 -49 -38 -97 -60 -48 -23 -88 -42 -89 -43 -1
-1 -5 -24 -8 -51 -4 -32 -3 -45 3 -37 5 8 12 13 16 13 3 -1 8 0 11 0 44 11
103 38 134 61 25 19 46 15 37 -7 -8 -22 31 -72 67 -84 88 -29 145 15 161 124
2 11 6 34 9 50 4 17 9 46 12 65 3 19 8 42 10 50 3 10 -2 16 -13 17 -9 1 -55 8
-102 17 -122 22 -141 26 -180 32 -81 13 -94 15 -102 20 -4 3 -9 -3 -9 -13z
m264 -122 c4 -1 18 -1 32 -1 25 0 26 -2 19 -47 -3 -27 -7 -55 -8 -65 -6 -46
-75 -67 -95 -29 -9 15 -7 74 5 131 1 8 3 19 3 23 1 4 9 3 19 -2 9 -5 20 -9 25
-10z"/>
<path d="M331 3299 c-41 -25 -59 -63 -66 -143 -3 -38 -10 -77 -16 -87 -16 -31
-47 -23 -64 17 -17 42 -11 79 17 98 16 11 18 21 13 50 -8 40 -14 42 -54 21
-73 -37 -73 -195 0 -261 30 -27 107 -26 135 1 31 29 41 54 48 115 14 120 28
140 77 115 47 -25 49 -108 5 -147 -22 -19 -26 -28 -20 -55 8 -38 17 -40 62
-13 62 38 80 145 38 232 -33 68 -113 95 -175 57z"/>
<path d="M615 2672 c-11 -2 -24 -7 -28 -12 -8 -7 21 -93 58 -175 16 -34 12
-43 -21 -56 -67 -25 -70 -24 -92 33 -11 29 -26 70 -34 91 -12 35 -15 38 -42
33 -16 -4 -32 -8 -34 -11 -3 -2 11 -46 30 -97 38 -102 37 -108 -23 -123 -24
-6 -27 -1 -64 94 -29 77 -43 101 -57 101 -10 0 -18 -4 -18 -10 0 -5 -7 -10
-15 -10 -8 0 -15 -1 -15 -3 0 -6 55 -144 84 -210 9 -21 16 -44 16 -52 0 -22
14 -19 145 31 66 26 129 50 140 54 46 17 105 43 105 46 0 4 -39 109 -53 144
-6 14 -11 27 -12 30 -1 3 -7 18 -13 33 -7 16 -12 32 -12 36 0 17 -27 37 -45
33z"/>
<path d="M7805 2518 c-7 -18 -12 -35 -10 -39 2 -3 68 -29 147 -59 79 -29 148
-57 155 -62 8 -7 6 -22 -9 -59 -23 -54 -19 -67 21 -71 22 -3 27 5 49 62 14 36
39 102 57 148 l33 83 -26 10 c-36 14 -45 8 -65 -49 l-17 -50 -53 19 c-28 11
-61 24 -72 29 -47 20 -178 70 -187 70 -5 0 -15 -15 -23 -32z"/>
<path d="M806 2003 c-2 -2 1 -22 6 -43 10 -38 11 -39 48 -34 51 7 89 -25 96
-81 4 -34 0 -45 -24 -72 -16 -18 -35 -33 -41 -33 -6 0 -11 -4 -11 -9 0 -9 -20
-17 -74 -31 -76 -20 -144 65 -104 130 11 17 9 24 -18 51 l-31 31 -22 -45 c-24
-50 -22 -118 5 -148 8 -8 14 -19 14 -23 0 -5 15 -21 33 -37 73 -65 200 -51
287 33 98 93 77 242 -41 303 -25 14 -112 19 -123 8z"/>
<path d="M7585 1997 c-50 -17 -107 -94 -118 -157 -8 -50 12 -88 67 -130 29
-22 58 -40 64 -40 7 0 12 -4 12 -10 0 -5 5 -10 11 -10 6 0 30 -13 54 -30 24
-16 48 -30 54 -30 6 0 11 -4 11 -9 0 -5 6 -11 14 -14 9 -4 22 7 36 30 11 19
20 37 18 38 -2 1 -56 35 -121 75 -135 83 -156 105 -137 149 22 53 61 74 105
56 11 -5 62 -34 112 -66 139 -87 128 -84 152 -47 18 30 19 34 4 50 -9 10 -18
16 -21 13 -2 -2 -19 7 -37 20 -17 14 -35 25 -38 25 -6 0 -68 39 -92 57 -43 33
-106 46 -150 30z"/>
<path d="M515 1719 c-4 -5 -2 -9 4 -9 5 0 13 -9 16 -20 4 -13 15 -20 32 -20
23 0 25 -3 19 -32 -4 -22 -1 -37 11 -50 16 -18 18 -17 35 28 11 27 15 50 10
53 -5 3 -12 16 -16 29 -5 13 -16 22 -29 23 -12 1 -34 3 -49 5 -15 1 -30 -1
-33 -7z"/>
</g>
</svg>
