<?xml version="1.0" encoding="UTF-8"?>
<svg width="24px" height="24px" viewBox="0 0 24 24" version="1.1" xmlns="http://www.w3.org/2000/svg" xmlns:xlink="http://www.w3.org/1999/xlink">
    <title>facebook</title>
    <g id="Design" stroke="none" stroke-width="1" fill="none" fill-rule="evenodd">
        <g id="HP---Desktop" transform="translate(-1792, -96)" fill="#FFFFFF" fill-rule="nonzero">
            <g id="facebook" transform="translate(1792, 96)">
                <path d="M24,12.0730925 C24,5.40462047 18.6281,0 12,0 C5.3719,0 0,5.40462047 0,12.0730925 C0,18.1002318 4.3875,23.0945181 10.125,24 L10.125,15.5629708 L7.0781,15.5629708 L7.0781,12.0730925 L10.125,12.0730925 L10.125,9.41323932 C10.125,6.38787325 11.91565,4.71605176 14.6578,4.71605176 C15.9703,4.71605176 17.34375,4.95185435 17.34375,4.95185435 L17.34375,7.92296696 L15.8297,7.92296696 C14.33905,7.92296696 13.875,8.85440605 13.875,9.80938767 L13.875,12.0730925 L17.2031,12.0730925 L16.6711,15.5629708 L13.875,15.5629708 L13.875,24 C19.6125,23.0945181 24,18.1002318 24,12.0730925 Z" id="Path"></path>
            </g>
        </g>
    </g>
</svg>