<?xml version="1.0" encoding="UTF-8"?>
<svg width="24px" height="24px" viewBox="0 0 24 24" version="1.1" xmlns="http://www.w3.org/2000/svg" xmlns:xlink="http://www.w3.org/1999/xlink">
    <title>heart-handshake</title>
    <g id="Design" stroke="none" stroke-width="1" fill="none" fill-rule="evenodd">
        <g id="HP---Desktop" transform="translate(-894, -24)">
            <g id="heart-handshake" transform="translate(894, 24)">
                <polygon id="Path" points="0 0 24 0 24 24 0 24"></polygon>
                <path d="M19.5,12.572 L12,20 L4.5,12.572 C3.15129797,11.2595814 2.65372956,9.30104035 3.21248012,7.50403241 C3.77123067,5.70702447 5.29165335,4.3759451 7.14676212,4.05969966 C9.00187089,3.74345422 10.8774286,4.49561158 12,6.006 C13.1272757,4.50678614 14.9988259,3.76461332 16.8472042,4.08381638 C18.6955824,4.40301944 20.209821,5.72989629 20.7689925,7.52034874 C21.3281639,9.3108012 20.8381942,11.263607 19.5,12.578" id="Path" stroke="#7C3AED" stroke-width="2" stroke-linecap="round" stroke-linejoin="round"></path>
                <path d="M12,6 L8.707,9.293 C8.31661806,9.68349985 8.31661806,10.3165001 8.707,10.707 L9.25,11.25 C9.94,11.94 11.06,11.94 11.75,11.25 L12.75,10.25 C13.9926451,9.00737007 16.0073549,9.00737007 17.25,10.25 L19.5,12.5" id="Path" stroke="#7C3AED" stroke-width="2" stroke-linecap="round" stroke-linejoin="round"></path>
                <line x1="12.5" y1="15.5" x2="14.5" y2="17.5" id="Path" stroke="#7C3AED" stroke-width="2" stroke-linecap="round" stroke-linejoin="round"></line>
                <line x1="15" y1="13" x2="17" y2="15" id="Path" stroke="#7C3AED" stroke-width="2" stroke-linecap="round" stroke-linejoin="round"></line>
            </g>
        </g>
    </g>
</svg>