<?xml version="1.0" encoding="UTF-8"?>
<svg width="24px" height="24px" viewBox="0 0 24 24" version="1.1" xmlns="http://www.w3.org/2000/svg" xmlns:xlink="http://www.w3.org/1999/xlink">
    <title>instagram</title>
    <g id="Design" stroke="none" stroke-width="1" fill="none" fill-rule="evenodd">
        <g id="HP---Desktop" transform="translate(-1824, -96)" fill="#FFFFFF">
            <g id="instagram" transform="translate(1824, 96)">
                <path d="M12,0 C5.3726,0 0,5.3726 0,12 C0,18.6274 5.3726,24 12,24 C18.6274,24 24,18.6274 24,12 C24,5.3726 18.6274,0 12,0 Z M9.36165,5.63865 C10.0443,5.6076 10.26245,5.6 12.0006,5.6 L11.9986,5.6 C13.7373,5.6 13.9546,5.6076 14.6373,5.63865 C15.31865,5.66985 15.78395,5.77775 16.192,5.936 C16.6133,6.09935 16.9693,6.318 17.3253,6.674 C17.68135,7.02975 17.9,7.3868 18.064,7.80775 C18.22135,8.2147 18.32935,8.67975 18.36135,9.3611 C18.392,10.0438 18.4,10.2619 18.4,12.00005 C18.4,13.7382 18.392,13.9558 18.36135,14.6385 C18.32935,15.31955 18.22135,15.78475 18.064,16.19185 C17.9,16.61265 17.68135,16.9697 17.3253,17.32545 C16.9697,17.68145 16.6132,17.90065 16.1924,18.06415 C15.78515,18.2224 15.31955,18.33025 14.63825,18.36145 C13.95555,18.39255 13.7381,18.40015 11.9998,18.40015 C10.2618,18.40015 10.0438,18.39255 9.3611,18.36145 C8.6799,18.33025 8.2147,18.2224 7.8075,18.06415 C7.3868,17.90065 7.02975,17.68145 6.67415,17.32545 C6.31825,16.9697 6.0996,16.61265 5.936,16.1917 C5.77785,15.78475 5.67,15.3197 5.63865,14.63835 C5.60775,13.9557 5.6,13.7382 5.6,12.00005 C5.6,10.2619 5.608,10.04365 5.63855,9.36095 C5.6692,8.6799 5.7772,8.2147 5.93585,7.8076 C6.09985,7.3868 6.31855,7.02975 6.67455,6.674 C7.0303,6.31815 7.38735,6.09945 7.8083,5.936 C8.21525,5.77775 8.6803,5.66985 9.36165,5.63865 Z" id="Shape"></path>
                <path d="M11.4265,6.75335 C11.53795,6.7532 11.6579,6.75325 11.7873,6.7533 L12.00065,6.75335 C13.70945,6.75335 13.912,6.7595 14.5868,6.79015 C15.2108,6.8187 15.54945,6.92295 15.77505,7.01055 C16.07375,7.12655 16.28665,7.26525 16.51055,7.48925 C16.73455,7.71325 16.8732,7.9266 16.9895,8.22525 C17.0771,8.4506 17.1815,8.78925 17.2099,9.41325 C17.24055,10.08795 17.2472,10.2906 17.2472,11.9986 C17.2472,13.70665 17.24055,13.9093 17.2099,14.584 C17.18135,15.208 17.0771,15.54665 16.9895,15.772 C16.8735,16.07065 16.73455,16.28335 16.51055,16.5072 C16.28655,16.7312 16.07385,16.8699 15.77505,16.9859 C15.54975,17.0739 15.2108,17.1779 14.5868,17.2064 C13.9121,17.2371 13.70945,17.24375 12.00065,17.24375 C10.2917,17.24375 10.08915,17.2371 9.41445,17.2064 C8.79045,17.1776 8.4518,17.07335 8.22605,16.98575 C7.9274,16.86975 7.71405,16.73105 7.49005,16.50705 C7.26605,16.28305 7.1274,16.07025 7.0111,15.77145 C6.9235,15.54615 6.8191,15.20745 6.7907,14.58345 C6.76005,13.9088 6.7539,13.7061 6.7539,11.997 C6.7539,10.28795 6.76005,10.08635 6.7907,9.41165 C6.81925,8.78765 6.9235,8.449 7.0111,8.2234 C7.1271,7.9247 7.26605,7.7114 7.49005,7.4874 C7.71405,7.2634 7.9274,7.1247 8.22605,7.00845 C8.45165,6.92045 8.79045,6.81645 9.41445,6.78775 C10.00485,6.7611 10.2337,6.7531 11.4265,6.75175 L11.4265,6.75335 Z M15.41695,7.81605 C14.99295,7.81605 14.6489,8.15965 14.6489,8.5838 C14.6489,9.0078 14.99295,9.3518 15.41695,9.3518 C15.84095,9.3518 16.18495,9.0078 16.18495,8.5838 C16.18495,8.1598 15.84095,7.8158 15.41695,7.8158 L15.41695,7.81605 Z M8.71395,12.0001 C8.71395,10.18505 10.18545,8.7134 12.0005,8.7134 C13.8156,8.7134 15.2868,10.185 15.2868,12.0001 C15.2868,13.8152 13.8157,15.28615 12.00065,15.28615 C10.18555,15.28615 8.71395,13.8152 8.71395,12.0001 Z" id="Shape"></path>
                <path d="M12.0006,9.8667 C13.17875,9.8667 14.13395,10.8218 14.13395,12.00005 C14.13395,13.1782 13.17875,14.1334 12.0006,14.1334 C10.82235,14.1334 9.86725,13.1782 9.86725,12.00005 C9.86725,10.8218 10.82235,9.8667 12.0006,9.8667 Z" id="Path" fill-rule="nonzero"></path>
            </g>
        </g>
    </g>
</svg>