<?xml version="1.0" encoding="UTF-8"?>
<svg width="106px" height="96px" viewBox="0 0 106 96" version="1.1" xmlns="http://www.w3.org/2000/svg" xmlns:xlink="http://www.w3.org/1999/xlink">
    <title>csts-logo</title>
    <g id="Design" stroke="none" stroke-width="1" fill="none" fill-rule="evenodd">
        <g id="HP---Desktop" transform="translate(-40, -24)" fill="#FFFFFF">
            <g id="csts-logo" transform="translate(40, 24)">
                <path d="M10.2863681,77.0144783 L10.0239226,75.9952515 C10.5812666,75.8296376 11.071447,75.827392 11.493053,75.9857076 C11.9149412,76.1454267 12.2722058,76.4578474 12.5645644,76.9240925 C12.9263441,77.5006532 13.0259605,78.0965823 12.8628492,78.7144062 C12.7000201,79.3319493 12.2755922,79.8537733 11.5890008,80.2807201 C10.8629016,80.7312459 10.1822365,80.895737 9.54559451,80.7719476 C8.90951691,80.6490004 8.40014687,80.2832465 8.01776659,79.6752472 C7.68477122,79.1447215 7.57076264,78.6153186 7.67856284,78.0873192 C7.74092892,77.7737757 7.91589259,77.4591094 8.20373604,77.1433203 L8.95636202,77.8824072 C8.76333759,78.0741262 8.6518688,78.2911084 8.62280225,78.5355994 C8.59430011,78.7798096 8.65299759,79.0184058 8.79917692,79.2519494 C9.00179614,79.5736332 9.28089141,79.7619839 9.63928473,79.8181242 C9.99767805,79.8742645 10.436216,79.7406506 10.9563096,79.417844 C11.5074452,79.0742654 11.8384652,78.7320904 11.948523,78.3887925 C12.058863,78.0457754 12.0156864,77.7165126 11.8167358,77.4007235 C11.6705565,77.1683027 11.4704771,77.0133555 11.2162154,76.9384083 C10.961107,76.8631803 10.6518164,76.8881627 10.2863681,77.0144783 L10.2863681,77.0144783 Z M7.62946013,81.4273855 L7.20644313,80.7551055 L7.44969907,80.1602992 L6.79076331,80.0923695 L6.37000391,79.423458 L7.63312872,79.4902649 L8.11738301,80.2602289 L7.62946013,81.4273855 Z" id="Fill-1"></path>
                <polygon id="Fill-3" points="9.41592385 71.0972642 4.61260673 72.9305252 3.24535031 69.3877925 4.05780257 69.0781789 5.0525557 71.6561408 6.11785868 71.2496851 5.19168003 68.8502493 6.0015925 68.5417584 6.92692455 70.9397907 8.23435469 70.4415457 7.20376223 67.7726365 8.0136747 67.4627421"></polygon>
                <path d="M5.21614673,63.6781571 L4.94297764,62.705246 C5.26637823,62.5873514 5.49072681,62.4225796 5.61517677,62.2128957 C5.73990894,62.0032117 5.77461947,61.7432822 5.71959058,61.4347913 C5.66202188,61.106932 5.5480133,60.8719849 5.37925802,60.7302307 C5.21022054,60.5881958 5.03299927,60.533459 4.84590103,60.5668625 C4.72624845,60.5881958 4.63030063,60.6409677 4.55833977,60.7251781 C4.48637891,60.8099499 4.4347364,60.9446866 4.40369446,61.1296689 C4.3833761,61.2557038 4.35826035,61.5408964 4.32721841,61.9830012 C4.28742828,62.5528251 4.18922287,62.9651755 4.02978017,63.2203331 C3.80571379,63.5779467 3.49303678,63.7924026 3.09259574,63.8628586 C2.83381883,63.9080516 2.57983931,63.8771744 2.32952838,63.7710693 C2.07893525,63.6649641 1.87038985,63.4858766 1.70502096,63.2321225 C1.53852327,62.9794913 1.4208461,62.6586495 1.35255383,62.2712816 C1.23995624,61.6382998 1.29498513,61.1378092 1.51820491,60.7695289 C1.73973149,60.4012487 2.08260385,60.1674244 2.54512877,60.0697403 L2.77032395,61.0794233 C2.51747322,61.1689671 2.34617815,61.2952827 2.25728532,61.4583702 C2.16867468,61.6217385 2.15061392,61.8471417 2.20112762,62.1331765 C2.25361672,62.4287551 2.35577293,62.6493864 2.50787844,62.7959125 C2.60495506,62.8888247 2.71868144,62.9244738 2.85075079,62.9020177 C2.97040337,62.8804036 3.06409359,62.8127546 3.13097487,62.6971056 C3.2173279,62.5494567 3.27489659,62.2176676 3.30480974,61.7017384 C3.33359408,61.1866512 3.39116277,60.7992833 3.47384722,60.5393538 C3.55766046,60.280547 3.6967848,60.0649683 3.89093803,59.892337 C4.08509126,59.720267 4.34132838,59.6060215 4.66247137,59.5501619 C4.95257242,59.4987936 5.23900488,59.5310742 5.52063995,59.647846 C5.80227502,59.763495 6.03113879,59.9563369 6.20610246,60.2283366 C6.38106613,60.5003363 6.50805589,60.8551429 6.58594294,61.2927564 C6.69854053,61.93051 6.63758544,62.4453164 6.40138449,62.8388598 C6.16659453,63.2321225 5.77123308,63.5122626 5.21614673,63.6781571" id="Fill-5"></path>
                <polygon id="Fill-7" points="5.64483594 54.7414658 0.500057455 54.8307289 0.48199669 53.7974669 2.76753017 53.757888 0.446157357 51.7101711 0.421041605 50.3212604 2.45936835 52.2129074 5.56440909 50.1272958 5.58726725 51.4631538 3.19760216 52.912696 4.07242051 53.7354319 5.62677517 53.7079231"></polygon>
                <path d="M6.30348949,44.6473302 L4.17739871,44.2372255 L0.892596914,45.5116099 L1.12512927,44.3219973 L3.35422286,43.5267701 L1.58285681,41.9806667 L1.81059178,40.8126681 L4.38227552,43.2264196 L6.50131132,43.6362437 L6.30348949,44.6473302 Z M0.93690223,43.7485243 L0,43.0762444 L0.210803002,41.9961053 L1.056837,43.1382794 L0.93690223,43.7485243 Z" id="Fill-9"></path>
                <path d="M6.98652508,35.0980081 L7.32460004,34.1455881 C7.65872421,34.2326056 7.93669069,34.2267108 8.15962827,34.1253776 C8.38256585,34.0251672 8.56006931,33.8320446 8.69411406,33.5471327 C8.83549599,33.2456594 8.87754371,32.9879755 8.82110382,32.7760459 C8.76494612,32.5638356 8.64980874,32.4170288 8.47851366,32.3373095 C8.36817367,32.287064 8.25924468,32.2752745 8.15116228,32.3039061 C8.04364429,32.3325376 7.92370951,32.4136603 7.79192236,32.5469935 C7.70190073,32.6387829 7.51734228,32.8582914 7.23570721,33.202712 C6.87618509,33.6473431 6.5561709,33.9274831 6.27933322,34.0453777 C5.88876916,34.2109916 5.51005747,34.208746 5.14094057,34.0369567 C4.90361082,33.9274831 4.71199738,33.7568167 4.56807565,33.5269222 C4.42443612,33.2978698 4.35727265,33.0309228 4.36686743,32.7294494 C4.37759101,32.4265726 4.46620164,32.0975905 4.63298153,31.7413804 C4.90586841,31.1583636 5.24055698,30.7805394 5.63478964,30.6039782 C6.02902229,30.4288206 6.44357331,30.4335925 6.87985368,30.6171712 L6.48195244,31.5729596 C6.22317552,31.5027842 6.01096153,31.5086789 5.84333504,31.592328 C5.67655516,31.6745735 5.53150463,31.8486084 5.40818346,32.1119063 C5.28006491,32.383906 5.23688839,32.6233443 5.27752511,32.8296598 C5.30264086,32.9618702 5.37573053,33.0559052 5.4967941,33.1120455 C5.60713409,33.1631331 5.72340027,33.1608875 5.84559264,33.1047472 C6.00023795,33.0320456 6.2386965,32.7937301 6.56096829,32.3886779 C6.88211128,31.983345 7.15189397,31.6970296 7.37003416,31.5325386 C7.58817435,31.3680475 7.8266329,31.2703634 8.08428101,31.2406091 C8.34305792,31.2094512 8.6198956,31.2630652 8.91479404,31.3992054 C9.18203693,31.5229947 9.39763733,31.7138717 9.56187742,31.9690293 C9.72470651,32.225029 9.80033597,32.5147128 9.78707259,32.8366774 C9.77522021,33.1597647 9.67334621,33.5232731 9.48511916,33.9260796 C9.20941028,34.5127456 8.86202274,34.8989908 8.44267433,35.0870607 C8.02191493,35.2754114 7.53766064,35.2793412 6.98652508,35.0980081" id="Fill-11"></path>
                <polygon id="Fill-13" points="13.1000943 26.922972 7.78289198 25.6702016 8.39639362 24.7295711 12.2997766 25.7069734 9.79271658 22.5923104 10.3929548 21.6732939 13.7042834 25.9980608"></polygon>
                <path d="M20.2264775,18.323768 L19.4416808,19.1319074 L18.2886137,18.6454519 L16.8589912,20.1177309 L17.4056116,21.2287471 L16.6397222,22.0177988 L14.330484,17.0280503 L15.0938336,16.242367 L20.2264775,18.323768 Z M17.4332671,18.2855926 L15.5670821,17.4738041 L16.4577036,19.2905038 L17.4332671,18.2855926 Z" id="Fill-15"></path>
                <polygon id="Fill-17" points="23.0326125 15.8192376 22.4549502 15.0849227 22.5305797 10.8137698 20.6418186 12.2823997 20.1047931 11.6005759 23.0735315 9.29405229 23.5696381 9.927034 23.4855427 14.3733446 25.7925233 12.5805046 26.3258803 13.259802"></polygon>
                <polygon id="Fill-19" points="33.1661696 9.53607306 31.4283853 5.65256883 30.0334733 6.26983126 29.6798774 5.47965675 33.414223 3.82520254 33.7689477 4.61537706 32.3777043 5.23179739 34.1152064 9.11642443"></polygon>
                <path d="M43.5580803,6.0267719 L42.4662506,6.31757858 L41.7294278,5.31042186 L39.7424613,5.83954405 L39.6346611,7.07210401 L38.570487,7.35589315 L39.1743938,1.89625041 L40.2363104,1.61246127 L43.5580803,6.0267719 Z M41.1828074,4.56291396 L40.0037781,2.91070537 L39.8262746,4.9241767 L41.1828074,4.56291396 Z" id="Fill-21"></path>
                <polygon id="Fill-23" points="47.7352533 5.38778317 47.37686 0.282385635 48.3845943 0.212210278 50.7251566 3.47564506 50.4855693 0.066526238 51.4478695 0 51.8073916 5.10399403 50.7672044 5.1766957 48.4638923 1.99157662 48.6975535 5.32097623"></polygon>
                <polygon id="Fill-25" points="56.5703824 5.20179041 57.1974296 0.122498102 60.9842643 0.585094053 60.8775929 1.44460182 58.1224795 1.10719871 57.9833551 2.23365353 60.5479839 2.54719702 60.4413125 3.40305567 57.8780947 3.08951218 57.7076463 4.4722474 60.5601185 4.82031717 60.4545759 5.67617582"></polygon>
                <path d="M68.6065848,5.59036539 L69.4969241,6.15654017 C69.2020256,6.65618871 68.8464543,6.99106551 68.4293635,7.16032847 C68.0111439,7.33071423 67.5353556,7.3439072 67.0017164,7.20215298 C66.3430628,7.02559178 65.8599373,6.65731151 65.5565729,6.09478585 C65.2520797,5.5331023 65.204388,4.8633487 65.4140622,4.08608645 C65.635871,3.26250846 66.0216376,2.68061441 66.5716444,2.33984288 C67.1216512,1.99766784 67.7447476,1.92019425 68.4398049,2.10489578 C69.0487913,2.26714121 69.4943843,2.57815839 69.7774303,3.03598241 C69.9464678,3.30770139 70.0350785,3.65689397 70.0410047,4.08243733 L68.9841676,4.05380579 C68.9948912,3.7820868 68.926599,3.54713971 68.7790086,3.3481224 C68.6331115,3.1505086 68.4268237,3.01577191 68.1595808,2.94531585 C67.7915927,2.84650895 67.4574685,2.89900012 67.1566439,3.10026304 C66.8569481,3.30292947 66.6266733,3.69731497 66.4686416,4.28734937 C66.2996041,4.91219075 66.2939601,5.38769896 66.4483232,5.71303191 C66.6018397,6.03864557 66.8606167,6.24973304 67.2226786,6.34601363 C67.4885105,6.41646969 67.7413612,6.39373287 67.9784087,6.27583827 C68.2160207,6.15906648 68.4254127,5.93001412 68.6065848,5.59036539 L68.6065848,5.59036539 Z M67.523221,0.560195836 L68.292779,0.765107877 L68.5227715,1.36580893 L69.0524599,0.967774307 L69.8180671,1.17156354 L68.8484297,1.97970295 L67.9665564,1.74503656 L67.523221,0.560195836 Z" id="Fill-27"></path>
                <polygon id="Fill-29" points="73.2524064 9.52770815 75.5878892 4.96827489 76.4881055 5.42469541 76.8044511 9.42048021 78.3647319 6.37486974 79.2237471 6.81107975 76.8882643 11.370513 75.9595459 10.8997767 75.6347343 6.98988656 74.1117037 9.96391817"></polygon>
                <path d="M80.8053622,13.9298363 L83.7557576,9.73756054 L84.606589,10.3312441 L81.6561936,14.5221163 L80.8053622,13.9298363 Z M83.8277185,9.42991178 L84.8269868,8.85054403 L85.7320005,9.48128014 L84.3393461,9.78640259 L83.8277185,9.42991178 Z" id="Fill-31"></path>
                <polygon id="Fill-33" points="85.218595 17.5119514 88.728592 13.7676751 89.488273 14.4733585 88.1063422 15.9467603 89.5963554 17.3272499 90.9765929 15.8538481 91.7365561 16.5584087 88.2276879 20.3024043 87.468007 19.5967209 89.0017611 17.9599509 87.5134411 16.579742 85.978276 18.216512"></polygon>
                <path d="M93.1176967,22.3563809 C93.5421247,22.0501356 93.9434124,21.8556095 94.3232529,21.7744868 C94.6037591,21.7149781 94.8887806,21.7068378 95.1754953,21.7472588 C95.4630565,21.7890833 95.718447,21.8772235 95.9425134,22.0116795 C96.2396694,22.190767 96.5128385,22.4481702 96.7583521,22.7852926 C97.2042272,23.3958183 97.3707249,24.0217824 97.2569985,24.6629045 C97.1444009,25.3043072 96.7487573,25.8693592 96.072043,26.3591832 C95.3995616,26.8442353 94.7403437,27.0435333 94.0958001,26.9539895 C93.4509743,26.8647265 92.9054827,26.5166567 92.4621474,25.9075346 C92.011757,25.2922371 91.8424373,24.6665536 91.9553171,24.0299228 C92.0679147,23.3932919 92.4550924,22.8355382 93.1176967,22.3563809 M93.7757859,23.1979237 C93.303384,23.5386953 93.0254175,23.9047299 92.9404755,24.2968698 C92.8552512,24.6901325 92.9345493,25.0527988 93.1778052,25.3865528 C93.4210612,25.7189033 93.7422042,25.9050083 94.1398232,25.9443065 C94.5365957,25.9836047 94.9776734,25.830061 95.4593879,25.4805877 C95.936305,25.1361671 96.2165291,24.7749044 96.2994957,24.3970802 C96.3821802,24.0192561 96.2983669,23.6579934 96.046645,23.3135727 C95.7949231,22.9691521 95.4726513,22.7771523 95.0806762,22.7378541 C94.6901122,22.6985559 94.2538318,22.8520996 93.7757859,23.1979237" id="Fill-35"></path>
                <path d="M98.4337421,33.077435 L98.9036042,33.9725918 C98.6112455,34.1550478 98.4266871,34.3624861 98.3485178,34.5923806 C98.270913,34.8236786 98.2912313,35.0847309 98.4097551,35.3766604 C98.5353339,35.6857126 98.6950588,35.8917475 98.8903408,35.995607 C99.084494,36.0991858 99.2701813,36.1160279 99.446556,36.0444491 C99.5591536,35.9992561 99.6415558,35.9276773 99.6946093,35.8299932 C99.7459696,35.7320284 99.7685456,35.5902742 99.7603618,35.4019235 C99.7544356,35.2742044 99.719725,34.9906959 99.657359,34.5508368 C99.5772143,33.9857848 99.5879379,33.5627678 99.6895297,33.2801014 C99.8348624,32.8831896 100.094768,32.6089443 100.472351,32.4576462 C100.715607,32.3596815 100.970715,32.3361025 101.23824,32.388313 C101.505201,32.4408042 101.747328,32.5732952 101.9618,32.7866283 C102.177682,32.9999614 102.359701,33.2896453 102.508138,33.6545571 C102.749136,34.2504863 102.800779,34.7509769 102.660526,35.1577133 C102.520273,35.5638882 102.23384,35.8631159 101.801511,36.0551157 L101.369745,35.1133624 C101.598891,34.9738538 101.738862,34.8155382 101.791634,34.6367314 C101.844405,34.4590474 101.81562,34.2350477 101.706691,33.9655743 C101.592683,33.6865571 101.446504,33.4923117 101.268154,33.3803118 C101.153016,33.308733 101.03421,33.2980663 100.909478,33.3469084 C100.797163,33.3921013 100.720404,33.4791187 100.678357,33.6054344 C100.625868,33.7676798 100.63772,34.1036794 100.716736,34.6151174 C100.795752,35.1251519 100.82115,35.516169 100.793494,35.7881687 C100.765838,36.0587648 100.675817,36.2982032 100.521172,36.507045 C100.367937,36.7153255 100.140484,36.88122 99.838531,37.0013602 C99.5650797,37.1113952 99.2786473,37.1386232 98.9778226,37.0838865 C98.6781268,37.0291497 98.4134237,36.8859919 98.1856887,36.6569396 C97.956825,36.4270451 97.7590032,36.1064841 97.5925055,35.693853 C97.3481207,35.0931519 97.2998646,34.576942 97.4488659,34.1432583 C97.5973029,33.7090132 97.9255008,33.3539259 98.4337421,33.077435" id="Fill-37"></path>
                <path d="M99.5823786,41.910351 L104.634878,40.9340714 L104.952352,42.5624204 C105.073698,43.1788407 105.126469,43.5864192 105.113206,43.7829102 C105.092605,44.085787 104.97521,44.3589095 104.75961,44.601997 C104.543727,44.8450844 104.234437,45.0059263 103.833149,45.0836806 C103.52273,45.1443121 103.250689,45.1384174 103.017028,45.0668385 C102.784778,44.9966632 102.590343,44.8857861 102.435697,44.7367336 C102.282463,44.5876812 102.167326,44.4279621 102.094236,44.2572956 C101.99857,44.023752 101.906009,43.6782086 101.81627,43.2178582 L101.68674,42.5565257 L99.7813292,42.9259287 L99.5823786,41.910351 Z M103.9782,42.1144209 L102.544909,42.3906311 L102.652709,42.9461392 C102.731725,43.3467002 102.809894,43.609156 102.88891,43.7329453 C102.967926,43.8581382 103.072057,43.9474012 103.199047,44.0024187 C103.327448,44.0571555 103.465443,44.0703485 103.615009,44.0405941 C103.798156,44.0057871 103.939821,43.9224188 104.038026,43.7927347 C104.136514,43.6613665 104.184487,43.5114719 104.181948,43.3408054 C104.181948,43.2156126 104.146108,42.9699989 104.074147,42.6042449 L103.9782,42.1144209 Z" id="Fill-39"></path>
                <path d="M103.351011,50.1234782 C103.875902,50.1318993 104.31444,50.2175132 104.666625,50.3797586 C104.926813,50.5001795 105.159346,50.6635478 105.364222,50.8684598 C105.56797,51.0733718 105.718947,51.2965295 105.816024,51.5384941 C105.945271,51.8590551 106.006508,52.2276161 105.999453,52.6447384 C105.98619,53.3981411 105.740676,53.9974386 105.262066,54.4420697 C104.784302,54.8867007 104.126213,55.1014373 103.288645,55.0871215 C102.458132,55.0728058 101.812178,54.8370166 101.35191,54.3791925 C100.890514,53.9224913 100.666448,53.3181411 100.679711,52.566142 C100.692975,51.8054412 100.937359,51.2047401 101.412019,50.7634775 C101.886678,50.3224955 102.532633,50.1091624 103.351011,50.1234782 M103.367661,51.187898 C102.785201,51.1783542 102.341866,51.3046698 102.036244,51.5671257 C101.730904,51.8293008 101.574848,52.1667039 101.567793,52.5779315 C101.560456,52.9902819 101.703249,53.3299306 101.996736,53.599404 C102.290224,53.8688773 102.736099,54.0095088 103.331822,54.0190526 C103.921336,54.03 104.363825,53.9081755 104.658441,53.6566671 C104.95334,53.4040358 105.104317,53.0652292 105.111372,52.6396858 C105.118709,52.2144231 104.978456,51.8671955 104.689483,51.6027747 C104.400793,51.3369505 103.959716,51.1988454 103.367661,51.187898" id="Fill-41"></path>
                <path d="M100.266938,59.4393971 L105.333829,60.3272558 L104.953707,62.4692883 C104.85917,63.0082351 104.744033,63.3919539 104.609988,63.6198835 C104.475661,63.8472516 104.27925,64.0153918 104.020473,64.1203741 C103.761414,64.2264793 103.482319,64.2537073 103.182623,64.2000933 C102.802782,64.1346899 102.507884,63.9679533 102.299339,63.702129 C102.090793,63.4360241 101.993717,63.0761648 102.008109,62.6231127 C101.840482,62.8198844 101.666647,62.9773579 101.485758,63.0930069 C101.305996,63.2097787 100.998117,63.3537785 100.560425,63.5278134 L99.4626696,63.9701989 L99.6785521,62.7530775 L100.911482,62.2107623 C101.352842,62.0187626 101.631937,61.8829031 101.751872,61.8054295 C101.871806,61.7265524 101.960135,61.6372893 102.016575,61.5362368 C102.074143,61.4346229 102.123246,61.2678862 102.165294,61.0343426 L102.201133,60.8277464 L100.085766,60.4560977 L100.266938,59.4393971 Z M103.010199,60.9697813 L102.877001,61.7220611 C102.790648,62.2107623 102.757066,62.5195339 102.777384,62.6483758 C102.796856,62.7769371 102.851885,62.8838843 102.940778,62.9711825 C103.030517,63.0570771 103.15017,63.1143402 103.302558,63.1407262 C103.472442,63.1701998 103.618903,63.1488665 103.739967,63.0772876 C103.860748,63.004586 103.949641,62.888937 104.005799,62.7292179 C104.032326,62.6483758 104.082557,62.4013586 104.155647,61.9890082 L104.2959,61.1951846 L103.010199,60.9697813 Z" id="Fill-43"></path>
                <polygon id="Fill-45" points="97.7461631 69.0671192 101.737028 70.5907666 102.284495 69.1732244 103.097229 69.4831187 101.631768 73.2798862 100.819033 72.9685883 101.365371 71.554976 97.3747886 70.0316093"></polygon>
                <path d="M99.2701531,78.0194175 L98.7201463,78.8968902 L96.357008,77.4271375 C95.9816827,77.194436 95.7313718,77.0538046 95.6066396,77.0063661 C95.4043026,76.9336644 95.205352,76.9336644 95.0086589,77.0074889 C94.8108371,77.0813134 94.6358734,77.2410325 94.4823569,77.4855234 C94.3257362,77.7345056 94.2597015,77.9540141 94.2822775,78.1432069 C94.3051357,78.332961 94.3830227,78.4867854 94.5159387,78.60468 C94.648008,78.7239781 94.8875954,78.8895919 95.2327253,79.1040478 L97.6463773,80.6049584 L97.0963706,81.4810275 L94.8037821,80.0567485 C94.2797377,79.7311348 93.9252952,79.4771 93.7381969,79.2949248 C93.5513809,79.1135917 93.4243911,78.9123288 93.3549701,78.6928202 C93.2866778,78.4735924 93.2745432,78.2291015 93.3199773,77.9610316 C93.3656936,77.6929618 93.496352,77.3875586 93.7119524,77.0442608 C93.9729869,76.6296648 94.2190648,76.3444721 94.4490574,76.1906477 C94.6801787,76.0359812 94.9115823,75.9439112 95.1429859,75.9155603 C95.375236,75.8869288 95.58745,75.9060165 95.7816033,75.9702971 C96.0666247,76.0693847 96.4540846,76.2695248 96.9428541,76.5735245 L99.2701531,78.0194175 Z" id="Fill-47"></path>
                <path d="M51.4286517,47.2547939 C51.5404027,38.9269439 54.8889816,38.0385239 49.865831,34.763019 C60.9170444,34.3745282 55.6147986,41.3140289 56.0053626,47.2547939 C58.7960332,69.2393295 78.4980712,82.9518749 78.4980712,82.9518749 C66.3316055,76.0123743 51.8750912,60.0786385 51.4286517,47.2547939 M43.5589552,81.6188238 C37.7541121,67.7956821 45.7914351,61.5778648 46.3496257,51.7510693 C49.1961717,60.7450237 42.4984496,65.5750531 52.7682526,79.9542644 C49.6984868,80.2318781 46.9078162,80.4530708 43.5589552,81.6188238 M33.9588115,85.8391698 C30.1499653,70.7337839 40.3353906,61.9865661 42.1307437,60.0370947 C42.2899042,59.7777266 42.3866986,59.6345688 42.3866986,59.6345688 C42.4324149,59.6800425 42.3347739,59.8153406 42.1307437,60.0370947 C40.8701586,62.0915484 35.477609,71.8855019 39.5409991,83.1741904 C37.5308923,83.784716 36.2474492,84.3399435 33.9588115,85.8391698 M27.7078111,32.2647763 C27.7078111,32.2647763 40.4891894,32.2647763 49.363516,51.2517015 C36.0809515,34.1524934 30.4984816,41.2028711 27.7078111,32.2647763 M30.4984816,18.2737751 C32.2286466,17.2753201 35.1869436,18.9963006 37.0288595,22.2162266 C38.9263687,25.3805738 38.9822442,28.8225347 37.3085192,29.8215511 C35.5216321,30.8214096 32.6203394,29.0448502 30.7217014,25.8802224 C28.8241922,22.7158752 28.7683167,19.2739143 30.4984816,18.2737751 M78.3863202,22.4382615 C72.3585396,36.539859 55.0007325,29.7665336 42.2193543,34.8741768 C50.9819299,24.1039437 67.7821108,30.7658307 78.3863202,22.4382615 M60.1353518,43.03529 C60.5273269,39.5930484 61.3634839,36.3175435 62.8154002,34.9297556 C62.8701469,35.0400713 71.0750964,33.1531963 71.2421585,33.1531963 C60.5120881,48.1884068 75.8307218,67.4507001 87.2437148,80.3722288 C93.5912274,72.8188341 97.413337,63.0933718 97.413337,52.4792088 C97.413337,31.8616891 82.9997171,14.5940601 63.6492996,10.0989075 C64.8300222,11.6408004 65.1458034,14.5376391 64.2656232,17.4970743 C63.0933667,21.4945433 60.247385,24.1595226 57.9587474,23.4922953 C55.6706741,22.8267522 54.7224839,19.0515988 55.8947405,15.1097086 C56.6888498,12.3995364 58.2530814,10.2782757 59.8915315,9.39939953 C57.8557445,9.11083847 55.7759345,8.95813689 53.6600029,8.95813689 C29.4958269,8.95813689 9.90695093,28.4430264 9.90695093,52.4792088 C9.90695093,66.214491 16.3058238,78.4614942 26.2979426,86.4376252 C25.9824436,76.4575667 33.6678638,69.5203117 34.0539127,69.0947683 C33.7116048,69.5520309 27.3909011,78.182477 30.0520421,88.3927107 L30.320696,89.2946043 C37.0757046,93.5404941 45.0785993,96 53.6600029,96 C64.6861004,96 74.7580816,91.9416188 82.4525323,85.2463284 C72.6085683,75.5649362 58.3081103,58.7307103 60.1353518,43.03529" id="Fill-49"></path>
            </g>
        </g>
    </g>
</svg>