<?xml version="1.0" encoding="UTF-8"?>
<svg width="24px" height="24px" viewBox="0 0 24 24" version="1.1" xmlns="http://www.w3.org/2000/svg" xmlns:xlink="http://www.w3.org/1999/xlink">
    <title>map-pin</title>
    <g id="Design" stroke="none" stroke-width="1" fill="none" fill-rule="evenodd">
        <g id="HP---Desktop" transform="translate(-666, -1932)">
            <g id="Group-15" transform="translate(320, 1656)">
                <g id="Group-5" transform="translate(330, 248)">
                    <g id="map-pin" transform="translate(16, 28)">
                        <polygon id="Path" points="0 0 24 0 24 24 0 24"></polygon>
                        <path d="M9,11 C9,12.6568542 10.3431458,14 12,14 C13.6568542,14 15,12.6568542 15,11 C15,9.34314575 13.6568542,8 12,8 C10.3431458,8 9,9.34314575 9,11" id="Path" stroke="#2E1065" stroke-width="2" stroke-linecap="round" stroke-linejoin="round"></path>
                        <path d="M17.657,16.657 L13.414,20.9 C12.6331149,21.6800976 11.3678851,21.6800976 10.587,20.9 L6.343,16.657 C3.21892411,13.5327631 3.21901112,8.46751823 6.34319433,5.34338867 C9.46737755,2.21925912 14.5326224,2.21925912 17.6568057,5.34338867 C20.7809889,8.46751823 20.7810759,13.5327631 17.657,16.657 L17.657,16.657 Z" id="Path" stroke="#2E1065" stroke-width="2" stroke-linecap="round" stroke-linejoin="round"></path>
                    </g>
                </g>
            </g>
        </g>
    </g>
</svg>