<?xml version="1.0" encoding="UTF-8"?>
<svg width="24px" height="24px" viewBox="0 0 24 24" version="1.1" xmlns="http://www.w3.org/2000/svg" xmlns:xlink="http://www.w3.org/1999/xlink">
    <title>circle-x</title>
    <g id="Design" stroke="none" stroke-width="1" fill="none" fill-rule="evenodd">
        <g id="offcanvas" transform="translate(-250, -28)">
            <g id="circle-x" transform="translate(250, 28)">
                <polygon id="Path" points="0 0 24 0 24 24 0 24"></polygon>
                <path d="M3,11.9999998 C3,15.2153903 4.71539025,18.1865336 7.5,19.7942287 C10.2846097,21.4019239 13.7153903,21.4019239 16.5,19.7942287 C19.2846097,18.1865336 21,15.2153903 21,11.9999998 C21,8.78460965 19.2846098,5.8134664 16.5,4.20577121 C13.7153903,2.59807601 10.2846097,2.59807601 7.5,4.20577121 C4.71539023,5.8134664 3,8.78460965 3,11.9999998" id="Path" stroke="#020617" stroke-width="2" stroke-linecap="round" stroke-linejoin="round"></path>
                <path d="M10,10 L14,14 M14,10 L10,14" id="Shape" stroke="#020617" stroke-width="2" stroke-linecap="round" stroke-linejoin="round"></path>
            </g>
        </g>
    </g>
</svg>