<?xml version="1.0" encoding="UTF-8"?>
<svg width="24px" height="24px" viewBox="0 0 24 24" version="1.1" xmlns="http://www.w3.org/2000/svg" xmlns:xlink="http://www.w3.org/1999/xlink">
    <title>news</title>
    <g id="Design" stroke="none" stroke-width="1" fill="none" fill-rule="evenodd">
        <g id="HP---mobil" transform="translate(-185, -48)">
            <g id="news" transform="translate(185, 48)">
                <polygon id="Path" points="0 0 24 0 24 24 0 24"></polygon>
                <path d="M16,6 L19,6 C19.5522847,6 20,6.44771525 20,7 L20,18 C20,19.1045695 19.1045695,20 18,20 C16.8954305,20 16,19.1045695 16,18 L16,5 C16,4.44771525 15.5522847,4 15,4 L5,4 C4.44771525,4 4,4.44771525 4,5 L4,17 C4,18.6568542 5.34314575,20 7,20 L18,20" id="Path" stroke="#FFFFFF" stroke-width="2" stroke-linecap="round" stroke-linejoin="round"></path>
                <line x1="8" y1="8" x2="12" y2="8" id="Path" stroke="#FFFFFF" stroke-width="2" stroke-linecap="round" stroke-linejoin="round"></line>
                <line x1="8" y1="12" x2="12" y2="12" id="Path" stroke="#FFFFFF" stroke-width="2" stroke-linecap="round" stroke-linejoin="round"></line>
                <line x1="8" y1="16" x2="12" y2="16" id="Path" stroke="#FFFFFF" stroke-width="2" stroke-linecap="round" stroke-linejoin="round"></line>
            </g>
        </g>
    </g>
</svg>