<?xml version="1.0" encoding="UTF-8"?>
<svg width="16px" height="16px" viewBox="0 0 16 16" version="1.1" xmlns="http://www.w3.org/2000/svg" xmlns:xlink="http://www.w3.org/1999/xlink">
    <title>text-caption</title>
    <g id="Design" stroke="none" stroke-width="1" fill="none" fill-rule="evenodd">
        <g id="Reprezentace---lidé" transform="translate(-353, -498)">
            <g id="Group" transform="translate(320, 385)">
                <g id="Group-24" transform="translate(33, 112)">
                    <g id="text-caption" transform="translate(0, 1)">
                        <polygon id="Path" points="0 0 16 0 16 16 0 16"></polygon>
                        <line x1="2.66666667" y1="10" x2="13.3333333" y2="10" id="Path" stroke="#94A3B8" stroke-width="1.5" stroke-linecap="round" stroke-linejoin="round"></line>
                        <path d="M2.66666667,3.33333333 C2.66666667,2.9651435 2.9651435,2.66666667 3.33333333,2.66666667 L6,2.66666667 C6.36818983,2.66666667 6.66666667,2.9651435 6.66666667,3.33333333 L6.66666667,6 C6.66666667,6.36818983 6.36818983,6.66666667 6,6.66666667 L3.33333333,6.66666667 C2.9651435,6.66666667 2.66666667,6.36818983 2.66666667,6 L2.66666667,3.33333333 Z" id="Path" stroke="#94A3B8" stroke-width="1.5" stroke-linecap="round" stroke-linejoin="round"></path>
                        <line x1="2.66666667" y1="13.3333333" x2="10.6666667" y2="13.3333333" id="Path" stroke="#94A3B8" stroke-width="1.5" stroke-linecap="round" stroke-linejoin="round"></line>
                    </g>
                </g>
            </g>
        </g>
    </g>
</svg>