<?xml version="1.0" encoding="UTF-8"?>
<svg width="24px" height="24px" viewBox="0 0 24 24" version="1.1" xmlns="http://www.w3.org/2000/svg" xmlns:xlink="http://www.w3.org/1999/xlink">
    <title>user-circle</title>
    <g id="Design" stroke="none" stroke-width="1" fill="none" fill-rule="evenodd">
        <g id="Kontakty---desktop-Copy-2" transform="translate(-776, -440)">
            <g id="user-circle" transform="translate(776, 440)">
                <polygon id="Path" points="0 0 24 0 24 24 0 24"></polygon>
                <path d="M3,11.9999998 C3,15.2153903 4.71539025,18.1865336 7.5,19.7942287 C10.2846097,21.4019239 13.7153903,21.4019239 16.5,19.7942287 C19.2846097,18.1865336 21,15.2153903 21,11.9999998 C21,8.78460965 19.2846098,5.8134664 16.5,4.20577121 C13.7153903,2.59807601 10.2846097,2.59807601 7.5,4.20577121 C4.71539023,5.8134664 3,8.78460965 3,11.9999998" id="Path" stroke="#2E1065" stroke-width="2" stroke-linecap="round" stroke-linejoin="round"></path>
                <path d="M9,10 C9,11.6568542 10.3431458,13 12,13 C13.6568542,13 15,11.6568542 15,10 C15,8.34314575 13.6568542,7 12,7 C10.3431458,7 9,8.34314575 9,10" id="Path" stroke="#2E1065" stroke-width="2" stroke-linecap="round" stroke-linejoin="round"></path>
                <path d="M6.168,18.849 C6.67623761,17.157455 8.23375269,15.99948 10,15.9999998 L14,15.9999998 C15.7686393,15.9993898 17.3277271,17.1603694 17.834,18.855" id="Path" stroke="#2E1065" stroke-width="2" stroke-linecap="round" stroke-linejoin="round"></path>
            </g>
        </g>
    </g>
</svg>