<?xml version="1.0" encoding="UTF-8"?>
<svg width="24px" height="24px" viewBox="0 0 24 24" version="1.1" xmlns="http://www.w3.org/2000/svg" xmlns:xlink="http://www.w3.org/1999/xlink">
    <title>youtube</title>
    <g id="Design" stroke="none" stroke-width="1" fill="none" fill-rule="evenodd">
        <g id="HP---Desktop" transform="translate(-1856, -96)" fill="#FFFFFF">
            <g id="youtube" transform="translate(1856, 96)">
                <path d="M12,0 C5.3726,0 0,5.3726 0,12 C0,18.6274 5.3726,24 12,24 C18.6274,24 24,18.6274 24,12 C24,5.3726 18.6274,0 12,0 Z M17.0008,7.87465 C17.55155,8.0258 17.9853,8.4711 18.1325,9.0366 C18.4,10.0615 18.4,12.2 18.4,12.2 C18.4,12.2 18.4,14.3384 18.1325,15.3634 C17.9853,15.9289 17.55155,16.3742 17.0008,16.5254 C16.0027,16.8 12,16.8 12,16.8 C12,16.8 7.9973,16.8 6.99915,16.5254 C6.44835,16.3742 6.0146,15.9289 5.8674,15.3634 C5.6,14.3384 5.6,12.2 5.6,12.2 C5.6,12.2 5.6,10.0615 5.8674,9.0366 C6.0146,8.4711 6.44835,8.0258 6.99915,7.87465 C7.9973,7.6 12,7.6 12,7.6 C12,7.6 16.0027,7.6 17.0008,7.87465 Z" id="Shape"></path>
                <polygon id="Path" fill-rule="nonzero" points="10.8 14.4 10.8 10.4 14 12.40005"></polygon>
            </g>
        </g>
    </g>
</svg>