<svg width="48" height="48" viewBox="0 0 48 48" xmlns="http://www.w3.org/2000/svg"><g fill="none" fill-rule="evenodd"><path d="M0 0h48v48H0z"/><path d="M14 11.334A5.334 5.334 0 0119.334 6h17.332A5.334 5.334 0 0142 11.334v17.332A5.334 5.334 0 0136.666 34H19.334A5.334 5.334 0 0114 28.666V11.334z" stroke="#FFF" stroke-width="2" stroke-linecap="round" stroke-linejoin="round"/><path d="M8.024 14.52A4.01 4.01 0 006 17.994v20c0 2.2 1.8 4 4 4h20c1.5 0 2.316-.77 3-2M34 14h.02" stroke="#FFF" stroke-width="2" stroke-linecap="round" stroke-linejoin="round"/><path d="M14 26l7.288-7.288a2.42 2.42 0 013.424 0L32 26" stroke="#FFF" stroke-width="2" stroke-linecap="round" stroke-linejoin="round"/><path d="M30 24l3.288-3.288a2.42 2.42 0 013.424 0L42 26" stroke="#FFF" stroke-width="2" stroke-linecap="round" stroke-linejoin="round"/></g></svg>