<svg width="106" height="96" viewBox="0 0 106 96" xmlns="http://www.w3.org/2000/svg"><g fill="#FFF" fill-rule="evenodd"><path d="M10.286 77.014l-.262-1.019c.557-.165 1.047-.168 1.47-.01.42.16.778.473 1.07.94.362.576.462 1.172.299 1.79-.163.617-.587 1.139-1.274 1.566-.726.45-1.407.615-2.043.49-.636-.122-1.146-.488-1.528-1.096-.333-.53-.447-1.06-.34-1.588.063-.313.238-.628.526-.944l.752.74a1.086 1.086 0 00-.333.653c-.029.244.03.482.176.716.203.322.482.51.84.566.359.056.797-.077 1.317-.4.551-.344.882-.686.993-1.03.11-.342.067-.671-.132-.987a1.04 1.04 0 00-.6-.463c-.256-.075-.565-.05-.93.076zM7.63 81.427l-.423-.672.244-.595-.66-.068-.42-.669 1.263.067.484.77-.488 1.167zM9.416 71.097l-4.803 1.834-1.368-3.543.813-.31.995 2.578 1.065-.406-.926-2.4.81-.308.925 2.398 1.307-.498-1.03-2.67.81-.31zM5.216 63.678l-.273-.973c.323-.118.548-.282.672-.492.125-.21.16-.47.105-.778-.058-.328-.172-.563-.34-.705-.17-.142-.347-.197-.534-.163a.474.474 0 00-.288.158c-.072.085-.123.22-.154.405-.02.126-.046.41-.077.853-.04.57-.138.982-.297 1.237a1.342 1.342 0 01-.937.643 1.33 1.33 0 01-.763-.092 1.385 1.385 0 01-.625-.539c-.166-.253-.284-.573-.352-.96-.113-.634-.058-1.134.165-1.502.222-.369.565-.603 1.027-.7l.225 1.01c-.253.089-.424.215-.513.378-.088.164-.106.39-.056.675.053.296.155.516.307.663a.395.395 0 00.623-.099c.086-.148.144-.48.174-.995.029-.515.086-.903.169-1.163.084-.258.223-.474.417-.647.194-.172.45-.286.771-.342.29-.051.577-.019.859.098.281.115.51.308.685.58.175.272.302.627.38 1.065.113.638.052 1.152-.185 1.546-.234.393-.63.673-1.185.84M5.645 54.741l-5.145.09-.018-1.034 2.286-.04L.446 51.71l-.025-1.389 2.038 1.892 3.105-2.086.023 1.336-2.39 1.45.875.822 1.555-.027zM6.303 44.647l-2.126-.41-3.284 1.275.232-1.19 2.23-.795-1.772-1.546.228-1.168 2.571 2.413 2.12.41-.199 1.011zM.937 43.75L0 43.076l.21-1.08.847 1.142-.12.61zM6.987 35.098l.338-.952c.334.087.612.08.835-.02.223-.1.4-.294.534-.579.141-.301.184-.559.127-.771-.056-.212-.171-.359-.342-.439a.476.476 0 00-.328-.033c-.107.029-.227.11-.36.243-.09.092-.274.311-.555.656-.36.444-.68.724-.957.842-.39.166-.769.164-1.138-.008a1.318 1.318 0 01-.573-.51 1.386 1.386 0 01-.201-.798c.01-.302.1-.631.266-.988.273-.583.608-.96 1.002-1.137.394-.175.809-.17 1.245.013l-.398.956c-.259-.07-.471-.064-.639.02-.166.082-.311.256-.435.519-.128.272-.171.511-.13.718a.37.37 0 00.219.282.4.4 0 00.349-.007c.154-.073.393-.311.715-.716.321-.406.59-.692.809-.856.218-.165.457-.263.714-.292.26-.032.536.022.83.158.268.124.484.315.648.57.163.256.238.546.225.868-.012.323-.114.686-.302 1.09-.276.586-.623.972-1.042 1.16-.421.188-.905.192-1.456.011M13.1 26.923L7.783 25.67l.613-.94 3.904.977-2.507-3.115.6-.919 3.311 4.325zM20.226 18.324l-.784.808-1.153-.487-1.43 1.473.547 1.11-.766.79-2.31-4.99.764-.786 5.132 2.082zm-2.793-.038l-1.866-.812.89 1.817.976-1.005zM23.033 15.82l-.578-.735.076-4.271-1.89 1.468-.536-.681 2.969-2.307.496.633-.084 4.446 2.307-1.792.533.679zM33.166 9.536l-1.738-3.883-1.395.617-.353-.79 3.734-1.655.355.79-1.391.617 1.737 3.884zM43.558 6.027l-1.092.29-.737-1.007-1.987.53-.107 1.232-1.065.284.604-5.46 1.062-.284 3.322 4.415zm-2.375-1.464l-1.18-1.652-.177 2.013 1.357-.361zM47.735 5.388L47.377.282l1.008-.07 2.34 3.264-.24-3.41.963-.066.36 5.104-1.04.073-2.304-3.185.234 3.329zM56.57 5.202l.627-5.08 3.787.463-.106.86-2.756-.338-.139 1.127 2.565.313-.107.856-2.563-.313-.17 1.382 2.852.348-.105.856zM68.607 5.59l.89.567c-.295.5-.65.834-1.068 1.003-.418.17-.894.184-1.427.042-.659-.176-1.142-.545-1.445-1.107-.305-.562-.353-1.232-.143-2.009.222-.823.608-1.405 1.158-1.746.55-.342 1.173-.42 1.868-.235.609.162 1.054.473 1.337.931.17.272.258.62.264 1.046l-1.057-.028a1.076 1.076 0 00-.205-.706 1.085 1.085 0 00-.62-.403 1.176 1.176 0 00-1.002.155c-.3.203-.53.597-.688 1.187-.17.625-.175 1.1-.02 1.426.153.326.412.537.774.633.266.07.518.048.755-.07.238-.117.447-.346.629-.686zM67.523.56l.77.205.23.6.53-.397.765.204-.97.808-.881-.235L67.523.56zM73.252 9.528l2.336-4.56.9.457.316 3.995 1.56-3.045.86.436-2.336 4.56-.928-.471-.325-3.91-1.523 2.974zM80.805 13.93l2.95-4.192.852.593-2.95 4.191-.852-.592zm3.023-4.5l.999-.58.905.631-1.393.305-.511-.356zM85.219 17.512l3.51-3.744.76.705-1.383 1.474 1.49 1.38 1.38-1.473.76.704-3.508 3.744-.76-.705 1.534-1.637-1.489-1.38-1.535 1.637zM93.118 22.356c.424-.306.825-.5 1.205-.582.28-.059.566-.067.852-.027.288.042.543.13.768.265.297.179.57.436.815.773.446.61.613 1.237.499 1.878-.113.641-.508 1.206-1.185 1.696-.672.485-1.332.685-1.976.595-.645-.09-1.19-.437-1.634-1.046-.45-.616-.62-1.241-.507-1.878.113-.637.5-1.194 1.163-1.674m.658.842c-.473.34-.75.707-.836 1.099-.085.393-.005.756.238 1.09.243.332.564.518.962.557.397.04.838-.114 1.32-.463.476-.345.757-.706.84-1.084.082-.378-.002-.739-.253-1.083-.252-.345-.574-.537-.966-.576-.39-.04-.827.114-1.305.46M98.434 33.077l.47.896c-.293.182-.477.39-.555.62-.078.23-.058.492.06.784.126.309.286.515.481.619.194.103.38.12.557.048a.47.47 0 00.248-.214c.051-.098.074-.24.065-.428-.006-.128-.04-.411-.103-.851-.08-.565-.07-.988.033-1.27.145-.398.405-.672.782-.823.244-.098.499-.122.766-.07.267.053.51.185.724.399.216.213.398.503.546.868.241.595.293 1.096.153 1.503-.14.406-.427.705-.86.897l-.431-.942c.229-.14.369-.297.422-.476.052-.178.024-.402-.085-.671-.114-.28-.26-.474-.439-.586a.38.38 0 00-.359-.033.396.396 0 00-.23.258c-.053.163-.041.499.038 1.01.079.51.104.901.076 1.173-.027.27-.117.51-.272.719-.153.208-.38.374-.682.494-.274.11-.56.138-.861.083a1.474 1.474 0 01-.792-.427c-.23-.23-.427-.55-.593-.963-.245-.6-.293-1.117-.144-1.55.148-.435.477-.79.985-1.067M99.582 41.91l5.053-.976.317 1.628c.122.617.174 1.024.161 1.22-.02.304-.138.577-.353.82-.216.243-.526.404-.927.482-.31.06-.582.054-.816-.017a1.412 1.412 0 01-.581-.33 1.497 1.497 0 01-.342-.48c-.095-.233-.188-.579-.278-1.04l-.13-.66-1.905.369-.199-1.016zm4.396.204l-1.433.277.108.555c.079.4.157.663.236.787a.682.682 0 00.31.27.691.691 0 00.416.038.665.665 0 00.423-.248.713.713 0 00.144-.452c0-.125-.036-.371-.108-.737l-.096-.49zM103.351 50.123c.525.009.963.095 1.316.257.26.12.492.284.697.488.204.205.355.429.452.67.13.321.19.69.183 1.107-.013.753-.258 1.352-.737 1.797-.478.445-1.136.66-1.973.645-.83-.014-1.477-.25-1.937-.708-.461-.457-.686-1.06-.672-1.813.013-.76.257-1.361.732-1.803.475-.44 1.12-.654 1.939-.64m.017 1.065c-.583-.01-1.026.117-1.332.38-.305.261-.461.599-.468 1.01-.008.412.135.752.429 1.021.293.27.74.41 1.335.42.59.011 1.032-.11 1.326-.362.295-.253.446-.592.453-1.017.008-.426-.133-.773-.422-1.037-.288-.266-.73-.404-1.321-.415M100.267 59.44l5.067.887-.38 2.142c-.095.54-.21.923-.344 1.15-.134.228-.33.396-.59.501a1.48 1.48 0 01-.837.08c-.38-.065-.675-.232-.884-.498-.208-.266-.305-.626-.29-1.079a2.386 2.386 0 01-.523.47c-.18.117-.488.26-.926.435l-1.097.442.216-1.217 1.232-.542c.442-.192.72-.328.84-.406a.79.79 0 00.266-.269c.057-.101.106-.268.148-.502l.036-.206-2.115-.372.18-1.017zm2.743 1.53l-.133.752c-.086.489-.12.798-.1.926.02.129.075.236.164.323.09.086.21.143.362.17.17.03.316.008.437-.064a.632.632 0 00.266-.348c.026-.08.077-.328.15-.74l.14-.794-1.286-.225zM97.746 69.067l3.991 1.524.547-1.418.813.31-1.465 3.797-.813-.311.546-1.414-3.99-1.523zM99.27 78.02l-.55.877-2.363-1.47c-.375-.233-.626-.373-.75-.42a.84.84 0 00-.598 0c-.198.074-.373.234-.527.479-.156.249-.222.468-.2.657.023.19.101.344.234.462.132.119.372.285.717.499l2.413 1.501-.55.876-2.292-1.424c-.524-.326-.879-.58-1.066-.762a1.441 1.441 0 01-.383-.602 1.562 1.562 0 01-.035-.732c.046-.268.176-.573.392-.917.261-.414.507-.7.737-.853a1.6 1.6 0 01.694-.275c.232-.03.444-.01.639.054.285.1.672.3 1.16.604l2.328 1.445z"/><path d="M51.429 47.255c.111-8.328 3.46-9.216-1.563-12.492 11.051-.388 5.749 6.551 6.14 12.492 2.79 21.984 22.492 35.697 22.492 35.697-12.166-6.94-26.623-22.873-27.07-35.697M43.56 81.619c-5.805-13.823 2.232-20.041 2.79-29.868 2.847 8.994-3.85 13.824 6.42 28.203-3.07.278-5.861.5-9.21 1.665m-9.6 4.22c-3.809-15.105 6.376-23.852 8.172-25.802.159-.26.256-.402.256-.402.045.045-.052.18-.256.402-1.26 2.055-6.653 11.849-2.59 23.137-2.01.61-3.294 1.166-5.582 2.665m-6.251-53.574s12.781 0 21.656 18.987c-13.283-17.1-18.866-10.05-21.656-18.987m2.79-13.991c1.73-.999 4.689.722 6.53 3.942 1.898 3.165 1.954 6.607.28 7.606-1.786 1-4.688-.777-6.586-3.942-1.898-3.164-1.954-6.606-.224-7.606m47.888 4.164C72.36 36.54 55.001 29.767 42.22 34.874c8.763-10.77 25.563-4.108 36.167-12.436m-18.25 20.597c.391-3.442 1.227-6.717 2.68-8.105.054.11 8.26-1.777 8.426-1.777-10.73 15.035 4.589 34.298 16.002 47.22 6.347-7.554 10.17-17.28 10.17-27.894 0-20.617-14.414-37.885-33.765-42.38 1.181 1.542 1.497 4.439.617 7.398-1.173 3.998-4.019 6.663-6.307 5.995-2.288-.665-3.237-4.44-2.064-8.382.794-2.71 2.358-4.832 3.997-5.71a44.376 44.376 0 00-6.232-.442c-24.164 0-43.753 19.485-43.753 43.521 0 13.735 6.399 25.982 16.39 33.959-.315-9.98 7.37-16.918 7.757-17.343-.342.457-6.663 9.087-4.002 19.298l.269.902A43.716 43.716 0 0053.66 96a43.716 43.716 0 0028.793-10.754c-9.844-9.681-24.145-26.515-22.318-42.21"/></g></svg>