<svg width="30" height="45" viewBox="0 0 30 45" fill="none" xmlns="http://www.w3.org/2000/svg"><path d="M13.458 41.693C2.107 25.237 0 23.548 0 17.5c0-8.284 6.716-15 15-15 8.284 0 15 6.716 15 15 0 6.048-2.107 7.737-13.458 24.193a1.876 1.876 0 01-3.084 0z" fill="orange"/><path d="M12.552 23.592c-.139-.085-.214-.17-.224-.256-.011-.075.016-.224.08-.448a1.507 1.507 0 01.016-.384l.064-.24c.053 0 .085-.032.096-.096.01-.064.016-.117.016-.16 0-.085.032-.23.096-.432.074-.203.138-.41.192-.624.085-.213.165-.41.24-.592.085-.192.128-.31.128-.352 0-.085.021-.17.064-.256.042-.096.09-.187.144-.272a1.7 1.7 0 00.112-.416c.032-.16.048-.283.048-.368l.208-.448c.074-.16.133-.325.176-.496.064-.181.154-.443.272-.784.128-.352.261-.71.4-1.072.096-.203.192-.416.288-.64.096-.224.181-.416.256-.576.074-.16.128-.24.16-.24v-.048-.128c0-.053.042-.155.128-.304a7.04 7.04 0 00.24-.496c.106-.16.181-.31.224-.448l.064-.224.048-.096c.042-.064.085-.117.128-.16.138-.096.266-.133.384-.112.128.021.234.123.32.304.085.17.122.315.112.432a.793.793 0 01-.144.352c-.086.192-.198.437-.336.736-.139.288-.288.603-.448.944-.15.33-.294.65-.432.96-.128.299-.235.56-.32.784-.075.213-.112.347-.112.4l-.656 1.616a.56.56 0 01-.064.16l-.144.384c-.054.17-.123.395-.208.672-.086.277-.187.613-.304 1.008-.214.683-.379 1.216-.496 1.6-.118.373-.214.63-.288.768-.064.15-.134.224-.208.224-.043 0-.091-.021-.144-.064a1.745 1.745 0 00-.176-.112zm5.648.128c-.096.01-.23-.037-.4-.144a5.41 5.41 0 01-.528-.368c-.182-.15-.358-.304-.528-.464a5.86 5.86 0 01-.384-.416 37.09 37.09 0 01-.64-.96 4.861 4.861 0 01-.576-1.296 5.613 5.613 0 00-.224-.8 2.898 2.898 0 01-.144-.496l.016-1.12.816.256c.053.576.133 1.056.24 1.44.117.373.256.704.416.992.128.277.272.555.432.832.16.267.33.49.512.672.245.267.464.464.656.592.192.128.336.192.432.192.053.01.128.048.224.112.106.064.202.133.288.208.096.064.149.128.16.192.01.032.016.08.016.144 0 .075-.011.139-.032.192a.374.374 0 01-.048.144.429.429 0 01-.176.192c-.075.064-.251.032-.528-.096zm-3.584-5.936l1.168-.848c.032-.032.144-.139.336-.32.202-.181.533-.443.992-.784l1.968-1.6a5.54 5.54 0 00.816-.528c.288-.213.506-.368.656-.464.181-.128.341-.24.48-.336.138-.096.229-.139.272-.128.085-.043.17-.027.256.048.096.064.17.155.224.272.064.107.09.203.08.288a.304.304 0 01-.064.272c-.064.075-.219.181-.464.32a6.327 6.327 0 00-.544.288c-.15.096-.24.176-.272.24l-.304.24c-.192.15-.443.33-.752.544-.427.277-.795.539-1.104.784-.299.245-.491.432-.576.56a.213.213 0 00-.128.048.111.111 0 01-.112.032l-.128.08a.878.878 0 00-.176.16c-.022.053-.07.128-.144.224-.064.096-.15.139-.256.128a5.516 5.516 0 00-.4.272c-.192.128-.395.272-.608.432-.203.16-.379.304-.528.432a1.83 1.83 0 00-.24.224l-.448-.88z" fill="#000"/><path d="M12.552 23.592l-.262.426.007.004.007.004.248-.434zm-.224-.256l.496-.062-.001-.009-.495.071zm.08-.448l.48.137.025-.086-.007-.09-.498.039zm.016-.384l-.483-.132-.005.021-.004.022.492.089zm.064-.24v-.5h-.39l-.095.379.485.121zm.096-.096l.493.082-.493-.082zm.112-.592l-.47-.173-.004.011-.003.011.477.151zm.192-.624l-.465-.186-.012.032-.008.033.485.121zm.24-.592l-.457-.203-.006.013.463.19zm.192-.608l.447.224.005-.01.005-.01-.457-.204zm.144-.272l.424.265.021-.035.016-.038-.461-.192zm.112-.416l-.49-.098-.003.014-.002.013.495.071zm.048-.368l-.454-.21-.046.1v.11h.5zm.208-.448l-.454-.211.454.211zm.176-.496l-.472-.166-.008.022-.005.023.485.121zm.272-.784l-.47-.17-.003.008.473.162zm.4-1.072l-.452-.214-.008.017-.007.018.467.179zm.288-.64l-.46-.197.46.197zm.256-.576l-.454-.211.454.211zm.16-.24v.5h.5v-.5h-.5zm.128-.48l.434.248.003-.006.004-.007-.441-.235zm.24-.496l-.416-.277-.025.036-.018.04.459.201zm.224-.448l.478.147.002-.01-.48-.137zm.064-.224l-.448-.224-.02.042-.013.045.48.137zm.048-.096l-.416-.277-.018.026-.014.027.448.224zm.128-.16l-.285-.411-.037.026-.032.031.354.354zm.384-.112l-.09.492.007.001.083-.493zm.32.304l-.453.213.005.01.448-.223zm.112.432l.497.05v-.005l-.497-.045zm-.144.352l-.416-.277-.024.035-.017.039.457.203zm-.336.736l.45.217.003-.006-.453-.211zm-.448.944l-.453-.212-.003.006.456.206zm-.432.96l-.457-.205-.003.008.46.197zm-.32.784l-.468-.178-.004.013.472.165zm-.112.4l.463.188.037-.09v-.098h-.5zm-.656 1.616l-.464-.188-.036.09v.098h.5zm-.064.16l-.448-.224-.011.024-.01.024.469.176zm-.144.384l-.468-.176-.005.014-.005.013.478.149zm-.208.672l.478.147-.478-.147zm-.304 1.008l.477.15.002-.008-.48-.142zm-.496 1.6l.477.15v-.004l-.477-.146zm-.288.768l-.44-.237-.011.02-.009.02.46.197zm-.352.16l.312-.39-.006-.005-.006-.005-.3.4zm5.472.016l.21-.454-.127-.058-.139.015.056.497zm-.4-.144l.265-.424-.008-.005-.257.429zm-.528-.368l-.318.386.01.009.308-.395zm-.528-.464l-.354.354.006.005.006.006.342-.365zm-.384-.416l-.41.285.01.017.013.015.387-.317zm-.64-.96l-.423.267.003.005.42-.272zm-.576-1.296l-.489.107.003.014.004.013.482-.134zm-.224-.8l-.47.173.004.008.466-.181zm-.144-.496l-.5-.007-.001.045.007.044.494-.082zm.016-1.12l.15-.477-.64-.2-.01.67.5.007zm.816.256l.497-.046-.03-.331-.318-.1-.15.477zm.24 1.44l-.482.134.002.008.003.008.477-.15zm.416.992l.454-.21-.008-.017-.01-.016-.436.243zm.432.832l-.434.25.005.007.429-.257zm.512.672l.368-.338-.008-.008-.007-.008-.353.354zm.656.592l.277-.416-.277.416zm.432.192l.098-.49-.049-.01h-.05v.5zm.224.112l-.278.416.01.007.01.006.258-.429zm.288.208l-.33.376.025.022.027.018.278-.416zm.16.192l-.494.082.007.039.012.037.475-.158zm-.016.336l-.465-.186-.02.05-.009.054.494.082zm-.048.144l-.416-.277-.026.038-.018.042.46.197zm-.176.192l-.265-.424-.032.02-.029.024.326.38zm-4.112-6.032l-.294-.405-.346.251.194.38.446-.226zm1.168-.848l.293.405.032-.024.028-.027-.353-.354zm.336-.32l-.334-.373-.01.01.344.363zm.992-.784l.298.401.009-.006.008-.007-.315-.388zm1.968-1.6l-.231-.444-.045.024-.04.032.316.388zm.816-.528l-.298-.402-.007.006.305.396zm.656-.464l.27.42.01-.005.008-.006-.288-.409zm.752-.464l-.122.485.18.045.165-.083-.223-.447zm.256.048l-.33.376.025.022.027.018.278-.416zm.224.272l-.456.207.012.026.015.024.429-.257zm.08.288l-.497-.062-.01.08.016.08.49-.098zm-.064.272l-.38-.325.38.325zm-.464.32l.214.452.016-.008.016-.009-.246-.435zm-.544.288l-.258-.429-.006.004-.007.004.27.421zm-.272.24l.31.392.087-.069.05-.1-.447-.223zm-.304.24l.307.395.002-.003-.31-.392zm-.752.544l.272.42.011-.008-.283-.412zm-1.104.784l-.311-.392-.007.006.318.386zm-.576.56v.5h.267l.149-.223-.416-.277zm-.128.048l-.3-.4-.029.021-.025.025.354.354zm-.112.032l.12-.485-.205-.052-.18.113.265.424zm-.128.08l-.265-.424-.013.008-.013.01.29.406zm-.176.16l-.39-.312-.047.058-.028.068.465.186zm-.144.224l-.395-.307-.011.014-.01.016.416.277zm-.256.128l.05-.497-.16-.016-.138.079.248.434zm-.4.272l.277.416.008-.005.007-.006-.292-.405zm-.608.432l-.3-.4-.01.008.31.392zm-.528.432l-.326-.38.326.38zm-.24.224l-.446.227.45.883.443-.886-.447-.224zm-2.25 4.502c-.044-.027-.053-.039-.046-.031a.267.267 0 01.056.139l-.992.124c.04.327.296.52.458.62l.524-.852zm.009.1c.004.028.002.044.002.036a2.492 2.492 0 01.063-.276l-.961-.275c-.035.12-.062.232-.08.33a1.05 1.05 0 00-.014.326l.99-.142zm.083-.416a.999.999 0 01.01-.257l-.984-.178c-.03.165-.036.337-.023.511l.997-.076zm0-.214l.067-.25-.97-.243-.062.23.965.263zm-.418.128a.586.586 0 00.417-.17.627.627 0 00.172-.344l-.987-.164a.376.376 0 01.108-.2.414.414 0 01.29-.122v1zm.589-.514c.013-.078.023-.162.023-.242h-1a.57.57 0 01-.01.078l.987.164zm.023-.242c0 .01-.001-.005.012-.063.011-.054.031-.125.06-.218l-.953-.302c-.063.2-.12.412-.12.583h1zm.065-.26c.08-.219.15-.444.208-.675l-.97-.242c-.05.196-.108.387-.177.572l.939.346zm.187-.61c.085-.212.164-.408.238-.588l-.925-.38-.242.596.929.372zm.232-.575c.045-.1.082-.19.11-.264a1.38 1.38 0 00.037-.116.678.678 0 00.025-.175h-1a.394.394 0 01.008-.083l-.002.008a3.291 3.291 0 01-.091.224l.914.406zm.172-.555v-.007a.132.132 0 01.01-.025l-.894-.448a1.068 1.068 0 00-.116.48h1zm.02-.053a1.69 1.69 0 01.112-.21l-.848-.53a2.708 2.708 0 00-.177.334l.914.406zm.15-.283c.07-.17.118-.35.145-.537l-.99-.142a1.207 1.207 0 01-.079.295l.923.384zm.14-.51a2.49 2.49 0 00.058-.466h-1c0 .035-.008.119-.039.27l.98.196zm.012-.256l.207-.447-.906-.422-.21.45.909.419zm.207-.447a3.24 3.24 0 00.208-.586l-.97-.242c-.035.14-.083.274-.144.406l.906.422zm.194-.54l.274-.788-.946-.326-.27.78.942.333zm.27-.78c.128-.35.26-.704.398-1.064l-.934-.358c-.14.366-.274.725-.403 1.08l.94.342zm.383-1.029c.098-.209.197-.428.295-.657l-.919-.394c-.094.219-.187.426-.28.623l.904.428zm.295-.657c.095-.22.178-.408.25-.562l-.906-.422a20.84 20.84 0 00-.263.59l.92.394zm.25-.562c.034-.072.053-.105.059-.114.003-.005-.009.015-.038.043a.472.472 0 01-.314.12v-1a.542.542 0 00-.37.15.763.763 0 00-.11.133 1.927 1.927 0 00-.133.246l.906.422zm-.293-.451h.5v-.001-.001-.001-.001-.001-.001-.001-.001-.001-.001-.001-.001-.001-.001-.001-.001-.001-.001-.001-.001-.001-.001-.001-.001-.001-.001-.001-.001-.001-.001-.001-.001-.001-.001-.001-.001-.001-.001-.001-.001-.001-.001-.001-.001-.001-.001-.001-.001h-1V14.44h.5zm.5-.048v-.001-.001-.001-.001-.001-.001-.001-.001-.001-.001-.001-.001-.001-.001-.001-.001-.001-.001-.001-.001-.001-.001-.001-.001-.001-.001-.001-.001-.001-.001-.001-.001-.001-.001-.001-.001-.001-.001-.001-.001-.001-.001-.001-.001-.001-.001-.001-.001-.001-.001-.001-.001-.001-.001-.001-.001-.001-.001-.001-.001-.001-.001-.001-.001-.001-.001-.001-.001-.001-.001-.001-.001-.001-.001-.001-.001-.001-.001-.001-.001-.001-.001-.001-.001-.001-.001-.001-.001-.001-.001-.001-.001-.001-.001-.001-.001-.001-.001-.001-.001-.001-.001-.001-.001-.001-.001-.001-.001-.001-.001-.001-.001-.001-.001-.001-.001-.001-.001-.001-.001-.001-.001-.001-.001-.001-.001-.001-.001h-1V14.393h1zm0-.128a.367.367 0 01-.01.084l.002-.006c.01-.025.032-.068.07-.134l-.868-.496c-.048.084-.091.165-.123.242a.81.81 0 00-.071.31h1zm.069-.069c.091-.171.177-.348.257-.53l-.917-.401a6.6 6.6 0 01-.223.46l.883.471zm.215-.454c.125-.188.225-.38.285-.578l-.955-.294c-.025.08-.074.186-.162.318l.832.554zm.288-.588l.015-.052.002-.006.002-.006.003-.012v-.001-.002l.002-.002v-.002-.001-.002h.001l.003-.012.011-.038.002-.005v-.004h.001v-.002l.001-.002L16.5 13l.004-.015.012-.042v-.001l.001-.002.001-.003.001-.004v-.002h.001v-.001l-.48-.138-.481-.137v.002h-.001v.001l-.003.01-.005.018-.007.025v.002h-.001v.003l-.001.002-.001.004-.001.004-.005.016-.005.018-.006.02-.013.046-.007.025-.004.014-.004.014.961.274zm-.416-.361l.447.224v-.001l.002-.003v-.001-.001l.005-.008V13 13l.001-.002h.001l.001-.003.002-.003.015-.03v-.001-.001h.001v-.002h.001v-.001l.001-.002v-.001l.001-.001.003-.006v-.001h.001v-.001-.002h.001l.006-.012v-.001h.001v-.001l.001-.002v-.001l.002-.003v-.001h.001v-.002l-.894-.448v.002l-.001.001v.001l-.001.002v.001h-.001v.001l-.001.001v.002h-.001v.002h-.001v.001l-.001.001v.001l-.001.001v.001l-.001.001v.001l-.001.001v.001l-.001.001v.001l-.001.001v.002h-.001v.002h-.001v.001l-.001.001v.002h-.001v.001l-.001.001v.001l-.001.001v.002h-.001v.002h-.001v.001l-.003.005v.001l-.001.001v.002h-.001v.001.001h-.001v.002h-.001v.002h-.001v.001l-.001.001v.002h-.001v.002h-.001v.002h-.001v.001l-.001.001v.002h-.001v.001c-.001.001 0 0 0 0v.001h-.001v.001l-.001.001v.001l-.001.001v.002h-.001v.002H15.6v.001l-.001.001v.002h-.001v.002h-.001v.002h-.001c0 .001 0 0 0 0v.002h-.001v.001l-.001.001v.002h-.001v.002h-.001v.001l.447.224zm.464.181a.558.558 0 01.065-.083l-.707-.708a1.545 1.545 0 00-.19.237l.832.554zm-.004-.026a.338.338 0 01.041-.025l.011-.005h.003v-.001l-.013.002c-.009 0-.02 0-.032-.002l.18-.984c-.295-.053-.557.053-.759.193l.57.822zm.017-.03a.192.192 0 01-.057-.019.128.128 0 01-.029-.02c-.003-.002 0 0 .007.01s.017.027.03.053l.904-.426c-.116-.246-.326-.524-.69-.584l-.165.986zm-.045.035a.724.724 0 01.056.137c.008.03.005.037.006.026l.996.09c.022-.25-.06-.493-.163-.7l-.895.447zm.062.158c0-.002-.004.037-.062.125l.832.554c.112-.168.204-.364.225-.58l-.995-.099zm-.103.199c-.084.188-.195.431-.333.728l.907.422c.14-.3.253-.548.34-.744l-.914-.406zm-.33.722c-.14.29-.29.606-.45.949l.905.424c.16-.34.308-.653.446-.94l-.9-.433zm-.453.955l-.433.961.913.41c.138-.31.282-.629.431-.96l-.911-.41zm-.436.969c-.13.303-.24.57-.328.803l.935.356c.082-.216.186-.47.312-.765l-.919-.394zm-.332.816c-.04.111-.071.209-.094.29-.017.063-.046.17-.046.275h1c0 .036-.005.055-.003.043a3.963 3.963 0 01.087-.278l-.944-.33zm-.104.377l-.656 1.616.927.376.656-1.616-.927-.376zm-.692 1.804a.441.441 0 01.015-.115l.004-.015a.544.544 0 01-.03.066l.894.448c.024-.048.047-.097.065-.142a.583.583 0 00.052-.242h-1zm-.032-.016l-.144.384.936.352.144-.384-.936-.352zm-.154.41l-.208.675.956.294.207-.67-.955-.298zm-.208.675c-.086.28-.188.617-.306 1.012l.959.285c.117-.393.218-.728.303-1.003l-.956-.294zm-.304 1.006c-.213.683-.379 1.217-.497 1.603l.957.292c.117-.382.282-.915.495-1.597l-.955-.298zm-.495 1.6c-.118.374-.202.588-.252.68l.88.474c.1-.185.209-.483.326-.855l-.954-.3zm-.27.72c-.022.05-.028.047-.008.025a.356.356 0 01.259-.104v1c.221 0 .38-.115.474-.216.09-.097.15-.211.193-.311l-.919-.394zm.25-.079c.063 0 .11.016.136.027.024.011.036.02.033.019l-.625.78c.093.074.25.174.457.174v-1zm.157.036a2.22 2.22 0 00-.228-.146l-.496.868c.066.038.104.064.124.078l.6-.8zm5.116-.08c.03-.004.05-.002.057 0 .007 0 .006.001-.004-.002a.761.761 0 01-.132-.07l-.53.848c.18.113.442.248.72.217l-.11-.994zm-.087-.077a4.909 4.909 0 01-.478-.334l-.614.79c.203.158.396.293.577.402l.515-.858zm-.467-.325c-.174-.142-.342-.29-.504-.443l-.684.73c.178.167.362.329.552.485l.636-.772zm-.493-.432a5.342 5.342 0 01-.35-.379l-.774.634c.11.134.25.286.417.453l.707-.708zm-.327-.348c-.166-.239-.376-.554-.63-.946l-.84.544c.258.397.474.722.65.973l.82-.57zm-.628-.941a4.365 4.365 0 01-.517-1.163l-.963.268c.141.506.353.983.635 1.429l.845-.534zm-.51-1.136a6.1 6.1 0 00-.246-.874l-.932.362c.06.157.129.395.201.726l.977-.214zm-.243-.866a2.417 2.417 0 01-.12-.405l-.987.164c.03.173.09.371.168.587l.939-.346zm-.113-.316l.016-1.12-1-.014-.016 1.12 1 .014zm-.634-.65l.816.256.3-.954-.817-.256-.299.954zm.468-.175c.055.594.139 1.106.256 1.528l.963-.268a7.902 7.902 0 01-.224-1.352l-.995.092zm.26 1.544c.126.4.277.762.457 1.085l.874-.486a4.842 4.842 0 01-.376-.899l-.954.3zm.44 1.052c.134.291.285.582.452.872l.867-.5a9.83 9.83 0 01-.411-.791l-.908.418zm.457.88c.177.294.372.552.587.768l.707-.708a2.968 2.968 0 01-.437-.575l-.857.514zm.573.752c.259.282.508.511.746.67l.555-.832a3.367 3.367 0 01-.565-.515l-.736.677zm.746.67c.11.073.22.137.327.185.1.044.234.091.383.091v-1c.03 0 .047.005.047.005l-.024-.01a1.28 1.28 0 01-.178-.103l-.555.832zm.612.266c-.02-.003-.03-.008-.034-.009l.004.002c.013.007.038.02.074.045l.555-.832a1.176 1.176 0 00-.403-.186l-.196.98zm.064.05c.084.05.155.103.216.156l.659-.752a2.496 2.496 0 00-.36-.26l-.515.857zm.268.196c.022.015.019.016.005 0a.302.302 0 01-.06-.142l.986-.164c-.046-.275-.248-.44-.376-.526l-.555.832zm-.037-.066a.287.287 0 01-.009-.033l-.001-.007v-.003.029h1a.966.966 0 00-.041-.302l-.949.316zm-.01-.014v.022s0-.005.004-.016l.929.372c.05-.128.068-.258.068-.378h-1zm-.025.11c-.002.013-.003.014 0 .008a.257.257 0 01.03-.06l.832.555a.865.865 0 00.125-.339l-.987-.164zm-.014.029a.136.136 0 01.023-.037c.006-.006.006-.005-.004.002l.53.848a.928.928 0 00.37-.419l-.919-.394zm-.042.01a.363.363 0 01.187-.087c.036-.005.053 0 .04-.002a.526.526 0 01-.074-.021 1.722 1.722 0 01-.146-.061l-.419.908c.154.071.312.13.46.158.122.022.386.05.603-.136l-.65-.76zm-3.493-5.248l1.168-.848-.587-.81-1.168.848.587.81zm1.228-.9c.026-.025.13-.125.326-.31l-.687-.726c-.188.178-.307.291-.346.33l.707.707zm.316-.3c.185-.166.5-.416.957-.756l-.597-.802c-.46.343-.806.615-1.027.812l.667.746zm.974-.769l1.968-1.6-.63-.776-1.969 1.6.631.776zm1.883-1.544c.297-.155.594-.347.89-.576l-.61-.792a5.045 5.045 0 01-.741.48l.461.888zm.883-.57c.286-.212.494-.359.629-.445l-.54-.842a13.77 13.77 0 00-.684.483l.595.804zm.647-.457c.18-.128.34-.239.476-.334l-.569-.822-.484.338.577.818zm.476-.334a.865.865 0 01.1-.063c.005-.002-.009.005-.037.012a.439.439 0 01-.197-.003l.243-.97a.586.586 0 00-.28 0 .814.814 0 00-.154.057c-.082.038-.165.09-.244.145l.57.822zm.211-.092a.302.302 0 01-.188.024.237.237 0 01-.109-.047l.659-.752a.772.772 0 00-.365-.183.698.698 0 00-.444.064l.447.894zm-.245.017c.01.006.027.02.046.063l.91-.414a1.13 1.13 0 00-.401-.481l-.555.832zm.073.113c.014.024.016.033.015.029a.158.158 0 01-.003-.06l.993.124a.951.951 0 00-.148-.607l-.857.514zm.018.13a.21.21 0 01.047-.152l.76.65a.804.804 0 00.174-.695l-.98.196zm.047-.152c.011-.013 0 .003-.068.05a3.6 3.6 0 01-.262.16l.492.87c.13-.073.244-.143.337-.207.087-.06.185-.135.26-.223l-.759-.65zm-.298.193c-.215.102-.411.205-.588.311l.515.858c.143-.086.31-.175.5-.265l-.427-.904zm-.6.32c-.088.055-.17.115-.241.177a.875.875 0 00-.209.26l.895.447a.246.246 0 01-.032.05l.007-.007c.02-.018.058-.046.12-.086l-.54-.842zm-.002.66l-.31-.392h-.001l-.004.003a2.728 2.728 0 00-.071.057l-.228.18.62.784.002-.001.002-.002.001-.001.002-.001.002-.002.01-.007c.019-.016-.002 0 .017-.015l.035-.027.008-.006a.286.286 0 00.024-.02l.015-.011.002-.002.002-.001.003-.003a.2.2 0 00.007-.006l.053-.04.022-.019.01-.008c.016-.012-.01.008.006-.004l.002-.002h.001v-.001h.001l.001-.001.002-.001.002-.002.005-.004c.027-.022-.02.015.008-.007l.004-.003.004-.003.008-.006c.012-.01-.005.004.007-.005l.003-.003a.065.065 0 01.003-.002c.014-.012-.01.007.005-.005l.005-.004c.02-.016-.01.01.009-.006l.006-.005.002-.001.001-.002h.001l-.31-.393zm-.611-.155a16.27 16.27 0 01-.73.527l.569.824c.313-.217.572-.404.775-.561l-.614-.79zm-.718.52a15.06 15.06 0 00-1.142.811l.621.784c.294-.233.65-.486 1.066-.757l-.545-.838zm-1.149.817c-.296.243-.543.471-.674.669l.832.554c.039-.058.176-.203.477-.45l-.635-.773zm-.258.446a.712.712 0 00-.428.148l.6.8a.292.292 0 01-.172.052v-1zm-.482.194a.387.387 0 01.363-.1l-.243.971a.611.611 0 00.587-.163l-.707-.708zm.242.386l-.265-.424-.002.001-.006.004-.024.015-.096.06.53.848.004-.003.004-.002.001-.001.002-.001h.001c.003-.003-.001 0 .001-.002h.002l.007-.005h.001V17.2h.001c.004-.003-.002 0 .002-.002.01-.006-.007.005.004-.002l.007-.004.006-.004c.002-.001 0 0 0 0l.002-.001.001-.001.003-.002h.001l.001-.001.002-.001.001-.001.002-.001.011-.007.005-.003.006-.004a.33.33 0 00.01-.006l.008-.005.014-.009.005-.003.003-.002c.003-.002-.003.002 0 0h.001v-.001c.013-.008-.008.006.004-.002l.002-.001.002-.001v-.001l-.264-.424zm-.419-.327a1.37 1.37 0 00-.276.255l.781.624a.404.404 0 01.076-.065l-.581-.814zm-.35.381c.006-.014.007-.012-.008.012a1.252 1.252 0 01-.066.091l.79.614c.078-.101.164-.223.213-.345l-.929-.372zm-.095.133a.243.243 0 01.21-.092l-.1.995a.757.757 0 00.722-.349l-.832-.554zm-.088-.03a5.85 5.85 0 00-.445.302l.585.81c.195-.14.308-.215.356-.243l-.496-.868zm-.43.291c-.2.134-.41.283-.63.448l.6.8c.207-.155.402-.294.585-.416l-.555-.832zm-.64.456c-.207.163-.388.31-.544.444l.651.76c.143-.123.314-.262.512-.42l-.62-.784zm-.544.444a6.18 6.18 0 00-.257.235c-.005.005-.064.064-.105.145l.895.448a.47.47 0 01-.051.08l-.009.01-.003.003.007-.006.018-.018c.032-.03.083-.075.156-.137l-.65-.76zm.531.377l-.448-.88-.891.454.448.88.891-.454z" fill="#fff"/></svg>