<svg width="30" height="45" viewBox="0 0 30 45" fill="none" xmlns="http://www.w3.org/2000/svg"><g clip-path="url(#clip0_1_2)"><path d="M13.458 41.693C2.107 25.237 0 23.548 0 17.5c0-8.284 6.716-15 15-15 8.284 0 15 6.716 15 15 0 6.048-2.107 7.737-13.458 24.193a1.876 1.876 0 01-3.084 0z" fill="#2158D5"/><path d="M9.111 22.432a3.412 3.412 0 01-.456-.072c-.136-.024-.22-.116-.252-.276a.694.694 0 01.036-.336.88.88 0 01.192-.3c.136-.144.284-.304.444-.48.168-.176.364-.376.588-.6.232-.224.508-.488.828-.792.328-.312.724-.672 1.188-1.08.32-.272.576-.496.768-.672a34.195 34.195 0 001.02-1.02c.28-.288.524-.568.732-.84.216-.272.344-.488.384-.648.048-.16.036-.272-.036-.336-.064-.072-.184-.12-.36-.144a5.393 5.393 0 00-.672-.072 6.516 6.516 0 00-1.32.012c-.376.04-.74.092-1.092.156-.056.016-.124.004-.204-.036-.072-.048-.108-.088-.108-.12a.192.192 0 00.048-.12c0-.04-.032-.084-.096-.132-.032-.08-.032-.144 0-.192a.787.787 0 01.096-.12.851.851 0 01.312-.06c.144-.016.308-.04.492-.072.12-.024.296-.04.528-.048.24-.008.48-.012.72-.012.248 0 .444.008.588.024.288.024.564.052.828.084.264.024.492.072.684.144a.652.652 0 01.396.372c.088.184.104.348.048.492a21.65 21.65 0 01-.204.576c-.096.176-.26.412-.492.708-.224.288-.484.592-.78.912-.288.312-.584.608-.888.888-.448.416-.852.788-1.212 1.116-.352.32-.704.632-1.056.936-.224.192-.448.392-.672.6a46.4 46.4 0 00-.672.612c-.08.104-.096.184-.048.24.056.048.248.064.576.048.184-.008.328-.024.432-.048.104-.024.216-.048.336-.072.12-.024.288-.04.504-.048.416-.024.808-.048 1.176-.072.368-.024.664-.036.888-.036.064 0 .116.008.156.024.048.016.112.08.192.192.072.024.116.06.132.108.024.04.024.084 0 .132a.5.5 0 01-.144.156c-.056 0-.156.012-.3.036a3.412 3.412 0 01-.456.072c-.16.024-.304.032-.432.024a5.616 5.616 0 00-.6.012c-.288.024-.6.056-.936.096a7.1 7.1 0 01-.972.084 14.91 14.91 0 01-.852 0zm8.454.168a4.877 4.877 0 01-.348-.108l-.132-.036c.016-.04.008-.076-.024-.108-.024-.032-.08-.052-.168-.06a1.542 1.542 0 01-.336-.276 2.038 2.038 0 01-.24-.312 2.335 2.335 0 01-.144-.264.903.903 0 01-.084-.216c.008-.032.056-.068.144-.108.088-.064.152-.084.192-.06.048.024.104.104.168.24.104.184.28.324.528.42.256.096.54.14.852.132.32-.016.624-.088.912-.216.296-.12.48-.244.552-.372.08-.136.052-.308-.084-.516a.568.568 0 00-.084-.156 1.402 1.402 0 00-.156-.156 18.974 18.974 0 00-.324-.312l-.336-.156-.312-.156a4.92 4.92 0 01-.468-.276 5.008 5.008 0 01-.504-.42 1.88 1.88 0 01-.348-.42 1.102 1.102 0 01-.288-.492 1.936 1.936 0 01-.072-.684c.016-.24.076-.456.18-.648.048-.112.128-.248.24-.408a8.104 8.104 0 01.816-.96c.136-.136.248-.232.336-.288.064-.064.132-.128.204-.192l.108-.108c.008-.04.02-.06.036-.06h.036a2.47 2.47 0 01.264-.12c.136-.056.284-.16.444-.312.536-.256.972-.444 1.308-.564.336-.12.612-.18.828-.18.2.008.38.056.54.144.168.08.304.188.408.324.112.136.18.3.204.492.056.192.04.416-.048.672-.088.248-.22.484-.396.708-.168.216-.352.38-.552.492-.224.096-.376.14-.456.132-.072-.016-.104-.1-.096-.252 0-.064.02-.14.06-.228.048-.088.172-.244.372-.468.256-.376.412-.676.468-.9.056-.224.004-.348-.156-.372a.695.695 0 00-.264 0c-.12.016-.256.04-.408.072a2.906 2.906 0 00-.372.084c-.104.024-.156.044-.156.06v.036c0 .024-.016.032-.048.024-.016 0-.084.032-.204.096-.12.064-.264.148-.432.252l-.504.312c-.168.104-.312.196-.432.276a.863.863 0 00-.18.132c-.016.088-.108.168-.276.24a1.56 1.56 0 00-.444.42c-.128.184-.272.412-.432.684a1.733 1.733 0 00-.288.6c-.056.208-.056.376 0 .504.04.128.164.292.372.492s.468.392.78.576c.272.152.516.304.732.456.216.144.392.284.528.42.144.136.24.256.288.36.096.136.164.276.204.42.048.136.072.268.072.396a.972.972 0 01-.036.348c-.056.128-.156.26-.3.396-.136.136-.252.2-.348.192a.712.712 0 00-.204.084.62.62 0 01-.144.084c-.056.032-.176.064-.36.096a4.164 4.164 0 01-.588.06c-.216.016-.416.02-.6.012zm3.804-9.216a.32.32 0 01-.192.072.26.26 0 01-.168-.096l-.372-.336-.396-.396a2.652 2.652 0 01-.204-.216.492.492 0 010-.264.255.255 0 01.18-.18c.088-.024.196.04.324.192.056.08.148.176.276.288.136.104.268.212.396.324.096-.056.2-.12.312-.192.112-.072.216-.144.312-.216.104-.072.184-.132.24-.18.192-.144.332-.204.42-.18.088.016.14.068.156.156a.402.402 0 01-.024.24c-.008.032-.064.096-.168.192a4.03 4.03 0 01-.36.288c-.136.104-.272.204-.408.3a3.855 3.855 0 01-.324.204z" fill="#fff"/><path d="M9.111 22.432l-.047.498.014.001h.015l.018-.499zm-.456-.072l.115-.487-.014-.003-.014-.002-.087.492zm-.252-.276l-.495.07.002.014.003.014.49-.098zm.036-.336l-.464-.186-.003.009-.004.009.471.168zm.192-.3l.354.354.005-.005.005-.006-.364-.343zm.444-.48l-.362-.345-.008.009.37.336zm.588-.6l-.347-.36-.006.006.353.354zm.828-.792l.345.363-.345-.363zm1.188-1.08l-.324-.381-.006.006.33.375zm.768-.672l.338.369.008-.008-.346-.361zm1.02-1.02l-.358-.348-.003.002.361.346zm.732-.84l-.391-.311-.006.007.397.304zm.384-.648l-.479-.144-.003.011-.003.012.485.121zm-.036-.336l-.373.332.02.022.021.02.332-.374zm-.36-.144l-.093.491.013.003.013.001.067-.495zm-.672-.072l-.04.498.012.001.028-.499zm-1.32.012l.053.497h.01l-.063-.497zm-1.092.156l-.09-.492-.023.005-.024.006.137.481zm-.204-.036l-.277.416.026.017.028.014.223-.447zm-.108-.12l-.39-.312-.11.137v.175h.5zm-.048-.252l-.464.186.052.13.112.084.3-.4zm0-.192l-.416-.277.416.277zm.096-.12l-.223-.447-.073.036-.057.057.353.354zm.312-.06l.028.5.014-.002.014-.001-.056-.497zm.492-.072l.086.493.012-.003-.098-.49zm.528-.048l-.016-.5h-.001l.017.5zm1.308.012l-.055.497.014.001.041-.498zm.828.084l-.06.496.008.001h.007l.045-.497zm.684.144l.176-.468-.176.468zm.396.372l-.463.19.006.013.006.013.451-.216zm.048.492l-.466-.181-.004.011-.004.012.474.158zm-.204.576l.44.24.017-.033.013-.035-.47-.172zm-.492.708l-.393-.308-.001.001.394.307zm-.78.912l-.367-.34.367.34zm-.888.888l-.338-.368-.002.002.34.366zm-1.212 1.116l.337.37-.337-.37zm-1.056.936l.326.38.001-.002-.327-.378zm-.672.6l.333.373.008-.007-.34-.366zm-.672.612l-.34-.366-.03.028-.026.033.396.305zm-.048.24l-.38.325.026.03.029.025.325-.38zm.576.048l-.021-.5h-.003l.024.5zm.432-.048l-.112-.487.112.487zm.336-.072l-.098-.49.098.49zm.504-.048l.019.5h.01l-.029-.5zm1.176-.072l.033.499-.033-.499zm1.044-.012l-.185.464.013.006.014.004.158-.474zm.192.192l-.407.29.095.133.154.051.158-.474zm.132.108l-.474.158.017.052.028.047.43-.257zm0 .132l-.447-.224.447.224zm-.144.156v.5h.172l.135-.105-.307-.395zm-.3.036l-.082-.493-.016.003-.016.003.114.487zm-.456.072l-.047-.498-.014.002-.013.002.074.494zm-.432.024l-.038.499h.007l.031-.499zm-.6.012l-.027-.5-.007.001h-.007l.041.499zm-.936.096l-.059-.496h-.01l-.01.002.08.494zm-.972.084l.012.5-.012-.5zm-.804-.498a2.915 2.915 0 01-.39-.06l-.228.973c.162.038.337.065.523.083l.095-.996zm-.417-.066c.012.002.031.007.054.019.024.012.046.03.064.049.035.039.037.068.034.05l-.981.196a.883.883 0 00.208.428.782.782 0 00.447.242l.174-.984zm.156.145a.195.195 0 01.012-.097l-.942-.336a1.194 1.194 0 00-.06.575l.99-.142zm.005-.08a.383.383 0 01.082-.131l-.707-.708a1.38 1.38 0 00-.303.468l.928.372zm.092-.142c.138-.146.289-.309.45-.487l-.74-.672c-.158.174-.304.331-.437.473l.727.686zm.442-.478c.165-.172.358-.37.58-.591l-.707-.708c-.226.226-.425.43-.596.609l.723.69zm.574-.585c.23-.223.505-.486.825-.79l-.69-.724c-.32.304-.597.57-.83.794l.695.72zm.825-.79c.322-.306.713-.661 1.173-1.066l-.66-.752c-.467.411-.868.776-1.202 1.094l.689.724zm1.167-1.061c.322-.274.584-.502.782-.684l-.676-.738c-.185.17-.436.39-.754.66l.648.762zm.79-.692c.194-.186.369-.356.524-.511l-.707-.708c-.15.15-.319.315-.509.497l.692.722zm.524-.511c.155-.155.325-.33.511-.524l-.722-.692c-.182.19-.347.36-.496.508l.707.708zm.509-.521c.291-.3.549-.595.77-.885l-.794-.608a8.96 8.96 0 01-.693.796l.717.697zm.765-.878c.222-.28.41-.567.477-.838l-.97-.242c-.012.049-.08.194-.29.458l.783.622zm.471-.815c.06-.202.121-.584-.183-.854l-.664.748a.321.321 0 01-.076-.102.273.273 0 01-.026-.087c-.003-.034.005-.037-.009.007l.958.288zm-.141-.812c-.187-.21-.46-.28-.666-.307l-.135.99a.733.733 0 01.104.023c.011.005-.016-.003-.05-.042l.747-.664zm-.64-.303a5.881 5.881 0 00-.737-.08l-.057.998c.27.016.47.038.607.064l.187-.982zm-.726-.08a7.007 7.007 0 00-1.422.015l.124.992a6.027 6.027 0 011.218-.01l.08-.996zm-1.413.014c-.387.041-.763.095-1.128.161l.179.984c.339-.062.69-.112 1.055-.15l-.106-.995zm-1.176.172a.298.298 0 01.131-.008c.025.004.035.01.026.006l-.447.894a.78.78 0 00.565.07l-.275-.962zm.21.029c-.019-.013-.008-.008.014.015a.443.443 0 01.101.28h-1c0 .201.107.336.156.39a.927.927 0 00.175.147l.555-.832zm.006.608a.69.69 0 00.157-.432h-1c0-.102.043-.169.062-.192l.78.624zm.157-.432a.606.606 0 00-.12-.357.839.839 0 00-.176-.175l-.6.8c.01.007-.008-.005-.032-.037a.394.394 0 01-.072-.231h1zm-.132-.318c0 .001.004.008.006.02a.352.352 0 01-.054.25l-.832-.553c-.162.243-.11.501-.048.655l.928-.372zm-.048.271a.297.297 0 01.034-.043l-.707-.708c-.06.061-.113.128-.159.197l.832.554zm-.096.05a.209.209 0 01-.015.007l-.004.002h-.001a.215.215 0 01.017-.004.93.93 0 01.119-.013l-.056-.998a1.316 1.316 0 00-.507.112l.447.894zm.143-.01c.157-.017.332-.043.523-.076l-.171-.986a7.71 7.71 0 01-.462.068l.11.994zm.535-.079c.08-.016.223-.03.447-.038l-.034-1c-.24.009-.448.026-.609.058l.196.98zm.447-.038c.234-.008.469-.012.703-.012v-1c-.245 0-.49.004-.736.012l.033 1zm.703-.012c.24 0 .416.008.533.02l.11-.993a6.072 6.072 0 00-.643-.027v1zm.547.022c.282.024.552.051.81.082l.12-.992c-.271-.033-.553-.062-.847-.086l-.083.996zm.824.084c.232.021.414.062.554.114l.35-.936a3.13 3.13 0 00-.814-.174l-.09.996zm.554.114c.073.028.094.057.108.093l.926-.378a1.151 1.151 0 00-.683-.651l-.351.936zm.12.12c.025.051.03.082.032.094 0 .009-.001.007.001 0l.932.363c.12-.31.065-.622-.063-.889l-.902.432zm.025.118c-.046.137-.112.324-.2.562l.94.344c.088-.242.158-.44.209-.59l-.95-.316zm-.169.495c-.076.139-.22.349-.446.639l.787.616a6.07 6.07 0 00.537-.777l-.878-.478zm-.447.64c-.214.275-.465.568-.753.88l.734.679c.304-.329.574-.644.808-.945l-.79-.614zm-.753.88c-.28.302-.566.589-.86.86l.678.735c.314-.29.62-.595.917-.917l-.735-.678zm-.861.86c-.447.416-.85.787-1.208 1.113l.673.74c.361-.33.767-.703 1.216-1.12l-.681-.732zm-1.208 1.113a55.05 55.05 0 01-1.046.928l.653.756c.355-.306.71-.621 1.066-.944l-.673-.74zm-1.045.926c-.23.197-.458.401-.687.614l.68.732c.22-.203.439-.399.658-.586l-.651-.76zm-.68.607c-.226.202-.453.408-.679.619l.68.732c.222-.205.444-.407.665-.605l-.666-.746zm-.735.68a.844.844 0 00-.166.345.614.614 0 00.135.525l.759-.65a.39.39 0 01.087.321c-.014.068-.041.093-.022.069l-.793-.61zm.023.925c.1.085.21.12.268.134.068.018.138.027.202.032.128.01.283.01.456.001l-.05-.998a2.64 2.64 0 01-.323 0c-.033-.002-.042-.005-.035-.003a.39.39 0 01.133.075l-.651.759zm.923.168c.196-.009.375-.027.523-.06l-.225-.975c-.06.014-.17.028-.341.036l.043.998zm.523-.06c.098-.024.206-.046.321-.07l-.196-.98c-.124.024-.24.05-.35.075l.225.974zm.321-.07c.082-.016.219-.03.425-.038l-.037-1a3.82 3.82 0 00-.584.058l.196.98zm.435-.039c.417-.024.81-.048 1.18-.072l-.065-.998c-.367.024-.758.048-1.173.072l.058.998zm1.18-.072c.363-.024.647-.035.855-.035v-1c-.24 0-.547.013-.92.037l.065.998zm.855-.035h.011c-.003 0-.018-.003-.04-.012l.371-.928a.919.919 0 00-.342-.06v1zm-.002-.002a.376.376 0 01-.093-.046c-.014-.01-.02-.017-.018-.014a.95.95 0 01.055.069l.813-.582a1.552 1.552 0 00-.161-.195.726.726 0 00-.28-.18l-.316.948zm.192.192a.236.236 0 01-.071-.042.365.365 0 01-.113-.166l.949-.316a.682.682 0 00-.449-.424l-.316.948zm-.139-.109a.38.38 0 01-.018-.349l.895.448a.629.629 0 00-.019-.613l-.857.514zm-.018-.349a.228.228 0 01.026-.04l-.008.007a.429.429 0 01-.022.018l.614.79a.986.986 0 00.285-.327l-.895-.448zm.303-.12c-.102 0-.24.02-.382.043l.165.986.16-.024c.043-.005.059-.005.057-.005v-1zm-.414.05c-.11.025-.24.046-.39.06l.096.996c.186-.018.36-.045.523-.083l-.23-.974zm-.416.063c-.134.02-.242.025-.327.02l-.062.998c.171.01.351 0 .537-.029l-.148-.989zm-.32.02a5.96 5.96 0 00-.665.012l.054.998c.3-.016.469-.018.535-.013l.077-.997zm-.68.013c-.294.024-.612.057-.953.098l.118.992c.332-.039.638-.07.919-.094l-.083-.996zm-.974.1c-.27.044-.57.07-.903.078l.023 1a7.615 7.615 0 001.04-.09l-.16-.988zm-.903.078c-.347.008-.62.008-.822 0l-.037 1c.23.008.525.008.882 0l-.023-1zm7.613.668l-.134.482.055.015.057.002.022-.499zm-.348-.108l.17-.47-.019-.007-.02-.005-.131.482zm-.132-.036l-.464-.186-.209.52.541.148.132-.482zm-.024-.108l-.4.3.021.028.025.026.354-.354zm-.168-.06l-.258.429.099.059.113.01.046-.498zm-.336-.276l-.368.34h.001l.367-.34zm-.24-.312l-.426.262.426-.262zm-.144-.264l.457-.203-.004-.008-.453.211zm-.084-.216l-.485-.121-.015.06v.061h.5zm.144-.108l.207.455.046-.02.04-.03-.293-.405zm.192-.06l-.258.429.017.01.017.008.224-.447zm.168.24l-.453.213.008.017.01.016.435-.246zm.528.42l-.18.466.004.002.176-.468zm.852.132l.013.5h.012l-.025-.5zm.912-.216l-.188-.463-.008.003-.007.003.203.457zm.552-.372l-.431-.254-.005.009.436.245zm-.084-.516l-.468.176.019.051.03.047.419-.274zm-.084-.156l.39-.312-.39.312zm-.156-.156l-.354.354.01.01.012.01.332-.374zm-.324-.312l.344-.363-.06-.056-.073-.034-.211.453zm-.336-.156l-.224.447.007.004.007.003.21-.454zm-.78-.432l-.294.404.01.008.01.007.274-.419zm-.504-.42l-.345.363.345-.363zm-.348-.42l.436-.245-.038-.067-.056-.053-.342.365zm-.288-.492l-.48.142.002.005.478-.147zm-.072-.684l-.5-.033.5.033zm.18-.648l.44.238.01-.02.01-.021-.46-.197zm.24-.408l-.407-.29-.003.003.41.287zm.396-.504l.38.325-.38-.325zm.42-.456l-.354-.354.354.354zm.336-.288l.268.422.047-.03.038-.038-.353-.354zm.204-.192l.332.374.011-.01.01-.01-.353-.354zm.108-.108l.353.354.107-.107.03-.149-.49-.098zm.072-.06v.5h.138l.119-.071-.257-.429zm.264-.12l.19.462-.19-.462zm.444-.312l-.216-.451-.071.034-.058.054.345.363zm2.136-.744l.02-.5h-.02v.5zm.54.144l-.241.438.013.007.013.006.215-.451zm.408.324l-.397.304.005.007.006.007.386-.318zm.204.492l-.496.062.005.04.01.038.48-.14zm-.048.672l.471.167.002-.005-.473-.162zm-.396.708l-.393-.309-.002.002.395.307zm-.552.492l.197.46.024-.01.023-.014-.244-.436zm-.456.132l-.109.488.03.007.029.003.05-.498zm-.096-.252l.5.026v-.026h-.5zm.06-.228l-.44-.24-.008.016-.007.017.455.207zm.372-.468l.373.333.022-.025.018-.027-.413-.281zm.468-.9l.485.121-.485-.121zm-.156-.372l-.158.474.04.014.044.007.074-.495zm-.264 0l-.062-.496h-.004l.066.496zm-.408.072l.082.493.01-.002.01-.002-.102-.489zm-.372.084l.112.487.018-.004.017-.005-.147-.478zm-.204.12l.121-.485-.06-.015h-.061v.5zm-.204.096l.235.441-.235-.441zm-1.368.84l.27.42.007-.004-.277-.416zm-.18.132l-.447-.224-.032.064-.013.07.492.09zm-.276.24l-.197-.46-.031.014-.03.017.258.429zm-.444.42l-.402-.297-.005.006-.004.005.41.286zm-.432.684l.402.297.015-.02.014-.023-.431-.254zm-.288.6l.483.13v-.005l-.483-.125zm0 .504l.477-.15-.008-.025-.011-.025-.458.2zm.372.492l-.347.36.347-.36zm.78.576l-.254.43.01.006.244-.436zm.732.456l-.288.409.01.007.278-.416zm.528.42l-.354.354.005.005.006.005.343-.364zm.288.36l-.454.21.019.041.026.037.409-.288zm.204.42l-.482.134.005.016.005.016.472-.166zm.072.396h-.5v.031l.5-.031zm-.036.348l.458.2.011-.026.009-.027-.478-.147zm-.3.396l-.344-.363-.005.004-.005.005.354.354zm-.348.192l.041-.498-.088-.008-.085.024.132.482zm-.204.084l-.278-.416-.018.012-.017.014.313.39zm-.144.084l-.197-.46-.026.012-.025.014.248.434zm-.36.096l-.086-.493-.004.001.09.492zm-.588.06l-.019-.5h-.009l-.01.001.038.499zm3.204-9.204l-.24-.439-.031.017-.03.022.3.4zm-.192.072l-.062.496.03.004h.032v-.5zm-.168-.096l.38-.325-.02-.023-.022-.02-.338.368zm-.372-.336l-.354.354.01.01.01.009.334-.373zm-.396-.396l-.354.354.354-.354zm-.204-.216l-.48.144.022.071.042.062.416-.277zm0-.264l-.474-.158-.007.018-.004.019.485.121zm.18-.18l.131.482-.131-.482zm.324.192l.41-.287-.013-.018-.015-.017-.382.322zm.276.288l-.33.376.013.011.013.01.304-.397zm.396.324l-.33.376.271.237.31-.181-.251-.432zm.624-.408l-.285-.411-.008.005-.007.006.3.4zm.24-.18l-.3-.4-.013.01-.013.01.326.38zm.42-.18l-.132.482.021.006.021.004.09-.492zm.156.156l.492-.09-.492.09zm-.024.24l-.457-.203-.018.04-.01.042.485.121zm-.168.192l.338.369v-.002l-.338-.367zm-.36.288l-.293-.405-.01.008.303.397zm-.408.3l.283.412.005-.004-.288-.408zm-3.994 8.938a4.375 4.375 0 01-.311-.096l-.342.94c.105.038.235.078.385.12l.268-.964zm-.35-.108h-.001-.001l-.001-.001h-.001-.001-.001v-.001h-.001-.001-.001l-.001-.001h-.001-.001-.001l-.001-.001h-.001-.001-.001v-.001h-.001-.001-.001l-.001-.001h-.002-.001l-.001-.001h-.001-.001l-.001-.001h-.001-.001-.001-.001V22h-.002-.001L17.312 22h-.001-.001-.001v-.001h-.002-.001-.001v-.001h-.001-.002v-.001h-.001-.002-.001v-.001h-.001-.002l-.001-.001h-.001-.002l-.001-.001h-.002-.001v-.001h-.001-.001-.001l-.001-.001h-.001-.001-.001v-.001h-.002-.001-.001v-.001h-.001-.001-.001l-.001-.001h-.001-.001-.001v-.001h-.001-.001-.001-.001v-.001h-.002-.001-.001v-.001h-.001-.001-.001v-.001h-.001-.002-.001v-.001h-.002-.001l-.001-.001h-.003v-.001h-.003-.001v-.001h-.002-.001l-.001-.001h-.001-.002v-.001h-.002-.001-.001v-.001h-.003l-.001-.001h-.003v-.001h-.001-.001-.001-.001v-.001h-.001-.001-.001-.001v-.001h-.001l-.132.482-.132.482h.002v.001h.003l.001.001h.003v.001h.004v.001h.003l.001.001h.003v.001h.004v.001h.003l.001.001h.003v.001h.004v.001h.003l.001.001h.003v.001H17v.001h.003l.001.001h.003v.001h.004v.001h.003l.001.001h.003v.001h.004v.001h.003l.001.001h.003v.001h.004v.001h.003l.001.001h.003l.001.001h.002l.001.001h.003l.001.001h.003v.001h.004v.001h.003l.001.001h.003l.001.001h.002l.001.001h.003l.001.001h.003v.001h.004v.001h.003l.001.001h.003v.001h.002l.263-.964zm.2.632a.595.595 0 00-.135-.648l-.707.708a.405.405 0 01-.087-.431l.929.37zm-.088-.594a.623.623 0 00-.292-.21.94.94 0 00-.23-.048l-.091.996c.02.002.01.003-.015-.006a.38.38 0 01-.172-.132l.8-.6zm-.311-.189a1.046 1.046 0 01-.227-.187l-.733.68c.133.144.282.266.445.365l.515-.858zm-.226-.186a1.544 1.544 0 01-.181-.235l-.852.524c.083.136.184.265.298.39l.735-.68zm-.181-.235a1.87 1.87 0 01-.113-.205l-.914.406c.044.1.105.21.175.323l.852-.524zm-.117-.213a3.86 3.86 0 01-.05-.114l-.003-.009.001.005a.296.296 0 01.012.06c.001.013.003.03.003.053h-1c0 .081.02.148.025.167.01.031.02.061.03.086.02.051.046.11.076.174l.906-.422zm-.052.116a.437.437 0 01-.143.228c-.017.013-.02.011.009-.002l-.414-.91c-.06.027-.13.063-.195.112a.597.597 0 00-.227.33l.97.242zm-.047.175c.024-.017.011-.003-.031.01a.41.41 0 01-.328-.045l.514-.858a.591.591 0 00-.484-.051.906.906 0 00-.26.136l.589.808zM16.2 21.5a.385.385 0 01-.092-.065l-.016-.017a1.022 1.022 0 01.047.088l.905-.426a1.604 1.604 0 00-.133-.236.725.725 0 00-.264-.238l-.447.894zm-.044.039c.175.308.456.514.783.64l.361-.932c-.168-.066-.24-.14-.273-.2l-.87.492zm.788.642c.324.122.673.173 1.04.164l-.025-1a1.746 1.746 0 01-.664-.1l-.35.936zm1.053.163c.38-.019.745-.105 1.09-.258l-.406-.914c-.231.103-.475.16-.734.174l.05.998zm1.075-.252c.167-.068.321-.144.451-.231.127-.086.26-.201.349-.359l-.872-.49c.017-.03.022-.02-.036.02-.053.036-.14.082-.268.134l.376.926zm.795-.582c.225-.382.078-.776-.097-1.043l-.837.548a.506.506 0 01.041.073c.008.017.008.023.007.018 0-.005-.002-.02.002-.041a.185.185 0 01.022-.061l.862.506zm-.047-.945a1.066 1.066 0 00-.162-.292l-.78.624c-.006-.006-.007-.01-.005-.006a.233.233 0 01.01.026l.937-.352zm-.162-.292a1.87 1.87 0 00-.214-.218l-.664.748a1.649 1.649 0 01.09.087l.007.007.781-.624zm-.193-.198a20.24 20.24 0 00-.333-.321l-.688.726c.152.144.256.244.314.303l.707-.708zM19 19.663l-.338-.157-.419.908.334.155.423-.906zm-.324-.15l-.312-.156-.447.894.312.156.447-.894zm-.312-.156a4.445 4.445 0 01-.418-.248l-.546.838a5.4 5.4 0 00.517.304l.447-.894zm-.397-.233a4.494 4.494 0 01-.454-.378l-.689.725c.176.166.36.32.555.461l.588-.808zm-.454-.378a1.41 1.41 0 01-.256-.303l-.872.49c.105.188.26.367.44.538l.688-.726zm-.35-.423a.609.609 0 01-.152-.274l-.956.294a1.6 1.6 0 00.424.71l.684-.73zm-.15-.269a1.436 1.436 0 01-.053-.509l-.998-.066c-.02.295.01.582.091.859l.96-.284zm-.053-.509c.011-.175.054-.32.12-.443l-.879-.476a2.06 2.06 0 00-.24.853l.999.066zm.14-.484c.03-.067.088-.172.19-.318l-.819-.574a2.872 2.872 0 00-.29.498l.92.394zm.188-.314c.11-.156.233-.312.368-.47l-.759-.65a7.78 7.78 0 00-.423.538l.814.582zm.368-.47c.137-.16.269-.302.394-.427l-.707-.708a8.635 8.635 0 00-.446.485l.76.65zm.394-.427c.128-.128.21-.194.251-.22l-.537-.844a2.634 2.634 0 00-.42.356l.706.708zm.336-.288c.057-.057.118-.114.183-.172l-.664-.748c-.08.07-.154.141-.226.212l.707.708zm.204-.192l.001-.001.001-.001v-.001h.001l.001-.001v-.001h.001l.001-.001.001-.001.001-.001.001-.001.001-.001.001-.001.001-.001.001-.001.001-.001.001-.001.001-.001.001-.001.001-.001v-.001h.001l.001-.001.001-.001v-.001h.001l.001-.001.001-.001v-.001h.001l.001-.001.001-.001v-.001h.001l.001-.001.001-.001.001-.001.001-.001v-.001h.001v-.001h.001l.001-.001.001-.001.001-.001.001-.001.001-.001.001-.001.001-.001.001-.001.001-.001.001-.001.001-.001.001-.001.001-.001v-.001h.001v-.001h.001l.001-.001.001-.001v-.001h.001v-.001h.001l.001-.001.001-.001.001-.001.001-.001v-.001h.001l.001-.001v-.001h.001l.001-.001.001-.001v-.001h.001l.001-.001.001-.001v-.001h.001v-.001h.001l.001-.001.001-.001.001-.001.001-.001.001-.001.001-.001v-.001h.001v-.001h.001l.001-.001.001-.001v-.001h.001l.001-.001.001-.001v-.001h.001l.001-.001.001-.001.001-.001.001-.001.001-.001v-.001h.001v-.001h.001v-.001h.001l.001-.001v-.001h.001v-.001h.001l.001-.001v-.001h.001l.001-.001v-.001h.001v-.001h.001v-.001h.001l.001-.001v-.001h.001l.001-.001v-.001h.001v-.001h.001v-.001h.001v-.001h.001v-.001h.001v-.001h.001v-.001h.001l-.353-.354-.354-.354v.001h-.001v.001h-.001v.001h-.001v.001h-.001v.001h-.001v.001h-.001v.001h-.001v.001h-.001v.001h-.001v.001h-.001v.001h-.001v.001h-.001v.001h-.001v.001h-.001v.001h-.001v.001h-.001v.001h-.001v.001h-.001v.001h-.001v.001h-.001v.001h-.001v.001h-.001v.001h-.001v.001h-.001v.001h-.001v.001h-.001v.001h-.001v.001h-.001v.001h-.001v.001h-.001v.001h-.001v.001h-.001v.001h-.001v.001h-.001v.001h-.001v.001h-.001v.001h-.001v.001h-.001v.001h-.001v.001h-.001v.001h-.001v.001h-.001v.001h-.001v.001h-.001v.001h-.001v.001h-.001v.001h-.001v.001h-.001v.001h-.001v.001h-.001v.001h-.001v.001h-.001v.001h-.001v.001h-.001v.001h-.001v.001h-.001v.001h-.001v.001h-.001v.001h-.001v.001h-.001v.001h-.001v.001h-.001v.001h-.001v.001h-.001v.001h-.001v.001h-.001v.001h-.001v.001h-.001v.001h-.001v.001h-.001v.001h-.001v.001h-.001v.001h-.001v.001h-.001v.001h-.001v.001l-.001.001h-.001v.001h-.001v.001h-.001v.001h-.001v.001h-.001v.001h-.001v.001h-.001v.001l-.001.001h-.001v.001h-.001v.001l-.001.001h-.001v.001h-.001v.001H17.9v.001H17.9v.001l-.001.001h-.001v.001l-.001.001h-.001v.001l-.001.001h-.001v.001l-.001.001h-.001v.001l-.001.001h-.001v.001l-.001.001h-.001v.001h-.001v.001h-.001v.001h-.001v.001l-.001.001.706.708zm.245-.364s-.009.051-.047.114a.475.475 0 01-.407.228v-1a.524.524 0 00-.45.258.638.638 0 00-.076.204l.98.196zm-.454.342H18.417v-.5-.5h-.001-.002-.001-.001-.001-.001-.001-.001-.001-.001-.001-.001-.001-.002-.001-.002-.001-.001-.001-.001-.001-.002-.001-.001-.002-.002-.003v1zm.293-.071l.046-.022.151-.065-.38-.924a2.789 2.789 0 00-.331.153l.514.858zm.197-.087a2 2 0 00.598-.412l-.689-.725a1.043 1.043 0 01-.29.213l.381.924zm.47-.323c.528-.253.947-.432 1.26-.544l-.336-.942c-.36.128-.813.325-1.356.584l.431.902zm1.26-.544c.312-.112.526-.151.66-.151v-1c-.299 0-.637.08-.996.21l.336.94zm.64-.151c.13.005.233.035.319.082l.482-.876a1.705 1.705 0 00-.761-.206l-.04 1zm.345.095a.599.599 0 01.226.177l.794-.608a1.596 1.596 0 00-.59-.471l-.43.902zm.237.19a.44.44 0 01.094.237l.992-.124a1.439 1.439 0 00-.314-.748l-.772.636zm.11.315c.018.063.025.177-.041.37l.946.325c.11-.32.148-.654.055-.975l-.96.28zm-.04.365a1.992 1.992 0 01-.317.566l.786.618c.207-.263.366-.547.474-.85l-.942-.334zm-.319.568c-.135.173-.27.289-.402.363l.49.872c.268-.15.5-.362.701-.621l-.789-.614zm-.354.34c-.102.043-.175.07-.224.084l-.038.01c-.005 0 .016-.004.053 0l-.1.995a.98.98 0 00.363-.045 3.03 3.03 0 00.34-.125l-.394-.92zm-.15.103c.069.015.136.05.19.103.052.05.078.1.09.132.02.053.012.075.014.027l-.998-.052a.935.935 0 00.05.381c.06.16.199.332.436.385l.217-.976zm.295.236c0 .02-.003.028-.002.022a.294.294 0 01.017-.043l-.91-.414a1.06 1.06 0 00-.105.435h1zm-.001.011l.02-.03a6.297 6.297 0 01.286-.344l-.746-.666c-.194.217-.358.415-.438.562l.878.478zm.346-.426c.264-.386.462-.747.54-1.06l-.97-.242c-.034.135-.148.374-.396.74l.826.562zm.54-1.06c.037-.149.067-.365-.021-.575a.686.686 0 00-.546-.412l-.148.989a.273.273 0 01-.113-.048.333.333 0 01-.115-.143.228.228 0 01-.02-.087c0-.006 0 .004-.007.034l.97.242zm-.483-.967a.825.825 0 00-.26-.038c-.072 0-.148.006-.224.016l.124.992a1.377 1.377 0 01.1-.008c.008 0 .007 0 0 0a.273.273 0 01-.056-.014l.316-.948zm-.488-.022a6.06 6.06 0 00-.445.079l.206.978c.143-.03.266-.051.37-.065l-.131-.992zm-.424.075a3.4 3.4 0 00-.437.1l.294.955c.077-.024.178-.047.307-.069l-.164-.986zm-.403.09c-.058.013-.124.03-.184.053a.64.64 0 00-.134.07c-.02.014-.225.15-.225.424h1a.49.49 0 01-.206.398c-.042.03-.075.041-.076.042-.007.003.004-.002.05-.013l-.225-.974zm-.043.547h-.5V14.669h1v-.001-.001-.001-.001-.001-.001-.001-.001-.001-.001-.001-.001-.001-.001-.001-.001-.001-.001-.001-.001-.001-.001-.001-.001-.001-.001-.001-.001-.001-.001-.001-.001-.001-.001-.001-.001h-.5zm-.5.036a.48.48 0 01.264-.423c.158-.08.296-.041.31-.038l-.244.97a.551.551 0 00.381-.038.524.524 0 00.289-.471h-1zm.452-.476c-.07 0-.126.015-.142.02a.642.642 0 00-.134.052c-.045.02-.101.05-.163.083l.47.882a4.456 4.456 0 01.119-.06l.01-.005-.004.001a.322.322 0 01-.072.02.5.5 0 01-.084.007v-1zm-.44.155c-.132.07-.286.16-.46.268l.527.85c.163-.1.297-.179.404-.236l-.47-.882zm-.46.268l-.001.001h-.001l-.001.001h-.001l-.001.001-.001.001h-.001l-.001.001-.001.001h-.001l-.001.001h-.001l-.001.001-.001.001h-.001l-.001.001h-.001l-.001.001-.001.001h-.001l-.001.001h-.001l-.001.002h-.001-.001l-.001.001-.002.002h-.002v.001l-.002.001-.002.001-.002.001v.001h-.002v.001h-.002v.002h-.002l-.002.001-.002.002h-.002v.001h-.002v.002h-.002l-.002.001v.001h-.002v.001h-.002v.001l-.001.001H19.4l-.001.001h-.001l-.001.002h-.001-.001l-.001.001h-.001l-.001.002h-.001-.001l-.001.001-.001.001h-.001l-.001.001h-.001l-.001.001-.001.001h-.001l-.001.001h-.001l-.001.001-.001.001h-.001l-.001.001h-.001l-.001.002h-.001-.001l-.001.001-.002.002h-.002v.001l-.002.001-.002.001-.002.001v.001h-.002v.001h-.002v.002h-.002l-.002.001-.002.002h-.002v.001h-.002v.002h-.002l-.002.001v.001h-.002v.001h-.002v.001l-.001.001h-.001l-.001.001h-.001l-.001.002h-.001-.001l-.001.001h-.001l-.001.002h-.001-.001l-.001.001-.001.001h-.001l-.001.001h-.001l-.001.001-.001.001h-.001l-.001.001h-.001l-.001.001-.001.001h-.001l-.001.001h-.001l-.001.002h-.001-.001l-.001.001-.002.002h-.002v.001l-.002.001-.002.001-.002.001v.001h-.002v.001h-.002v.002h-.002l-.002.001-.002.002h-.002v.001h-.002v.002h-.002l-.002.001v.001h-.002v.001h-.002v.001l-.001.001h-.001l-.001.001h-.001l-.001.002h-.001-.001l-.001.001h-.001l-.001.002h-.001-.001l-.001.001-.001.001h-.001l-.001.001h-.001l-.001.001-.001.001h-.001l-.001.001h-.001l-.001.001-.001.001h-.001l-.001.001h-.001l-.001.002h-.001-.001l-.001.001-.002.002h-.002v.001l-.002.001-.002.001-.002.001v.001h-.002v.001h-.002v.002h-.002l-.002.001-.002.002h-.002v.001h-.002v.002h-.002l-.002.001v.001h-.002v.001h-.002v.001l-.001.001h-.001l-.001.001h-.001l-.001.002h-.001-.001l-.001.001h-.001l-.001.002h-.001-.001l-.001.001-.001.001h-.001l-.001.001h-.001l-.001.001-.001.001h-.001l-.001.001h-.001l-.001.001-.001.001h-.001l-.001.001h-.001l-.001.002h-.001-.001l-.001.001-.002.002h-.002v.001l-.002.001-.002.001-.002.001v.001h-.002v.001h-.002v.002h-.002l-.002.001-.002.002h-.002v.001h-.002v.002h-.002l-.002.001v.001h-.002v.001h-.002v.001l-.001.001h-.001l-.001.001h-.001l-.001.002h-.001-.001l-.001.001h-.001l-.001.002h-.001-.001l-.001.001-.001.001h-.001l-.001.001h-.001l-.001.001-.001.001h-.001l-.001.001h-.001l-.001.001-.001.001h-.001l-.001.001h-.001l-.001.002h-.001-.001l-.001.001-.002.002h-.002v.001l-.002.001-.002.001-.002.001v.001h-.002v.001h-.002v.002h-.002l-.002.001-.002.002h-.002v.001h-.002v.002h-.002l-.002.001v.001h-.002v.001h-.002v.001l-.001.001h-.001l-.001.001h-.001l-.001.002h-.001-.001l-.001.001h-.001l-.001.001-.001.001h-.001l-.001.001-.001.001h-.001l-.001.001h-.001l-.001.001-.001.001h-.001l-.001.001h-.001l-.001.001-.001.001h-.001l-.001.001h-.001l-.001.002h-.001-.001l-.001.001-.002.002h-.002v.001l-.002.001-.002.001-.002.001v.001h-.002v.001h-.002v.002h-.002l-.002.001-.002.002h-.002v.001h-.002v.002h-.002l-.002.001v.001h-.002v.001h-.002v.001l-.001.001h-.001l-.001.001h-.001l-.001.002h-.001-.001l-.001.001h-.001l-.001.002h-.001-.001l-.001.001-.001.001h-.001l-.001.001h-.001l-.001.001-.001.001h-.001l-.001.001h-.001l-.001.001L19 14.9H19l-.001.001h-.001l-.001.002h-.001-.001l-.001.001-.002.002h-.002v.001l-.002.001-.002.001-.002.001v.001h-.002v.001h-.002v.002h-.002l-.002.001-.002.002h-.002v.001h-.002v.002h-.002l-.002.001v.001h-.002v.001h-.002v.001l-.001.001h-.001l-.001.001h-.001l.526.851h.001v-.001h.002v-.001h.002v-.002h.002l.002-.001v-.001h.002v-.001h.002v-.001l.002-.001.002-.001.002-.001v-.001h.002v-.001h.002v-.002h.002l.002-.001.002-.002h.002v-.001l.002-.001.001-.001h.001l.001-.001.001-.001h.001l.001-.001h.001l.001-.002h.002l.001-.001h.001l.001-.002h.002l.001-.001h.001l.001-.002h.002l.001-.001.001-.001h.001l.001-.001h.001l.001-.001.001-.001h.001l.001-.001h.001l.001-.002h.002v-.001h.002v-.002h.002l.002-.001v-.001h.002v-.001h.002v-.001l.002-.001.002-.001.002-.001v-.001h.002v-.001h.002v-.002h.002l.002-.001.002-.002h.002v-.001l.002-.001.001-.001h.001l.001-.001.001-.001h.001l.001-.001h.001l.001-.002h.002l.001-.001h.001l.001-.002h.002l.001-.001h.001l.001-.002h.002l.001-.001.001-.001h.001l.001-.001h.001l.001-.001.001-.001h.001l.001-.001h.001l.001-.002h.002v-.001h.002v-.002h.002l.002-.001v-.001h.002v-.001h.002v-.001l.002-.001.002-.001.002-.001v-.001h.002v-.001h.002v-.002h.002l.002-.001.002-.002h.002v-.001l.002-.001.001-.001h.001l.001-.001.001-.001h.001l.001-.001h.001l.001-.002h.002l.001-.001h.001l.001-.002h.002l.001-.001h.001l.001-.002h.002l.001-.001.001-.001h.001l.001-.001h.001l.001-.001.001-.001h.001l.001-.001h.001l.001-.002h.002v-.001h.002v-.002h.002l.002-.001v-.001h.002v-.001h.002v-.001l.002-.001.002-.001.002-.001v-.001h.002v-.001h.002v-.002h.002l.002-.001.002-.002h.001l.002-.001v-.001h.001l.001-.001h.001l.001-.001.001-.001h.001l.001-.001h.001l.001-.002h.002l.001-.001h.001l.001-.001.001-.001h.001l.001-.001h.001l.001-.002h.002l.001-.001.001-.001h.001l.001-.001h.001l.001-.001.001-.001h.001l.001-.001h.001l.001-.002h.002v-.001h.002v-.002h.002l.002-.001v-.001h.002v-.001h.002v-.001l.002-.001.002-.001.002-.001v-.001h.002v-.001h.002v-.002h.002l.002-.001.002-.002h.002v-.001l.002-.001.001-.001h.001l.001-.001.001-.001h.001l.001-.001h.001l.001-.002h.002l.001-.001h.001l.001-.002h.002l.001-.001h.001l.001-.002h.002l.001-.001.001-.001h.001l.001-.001h.001l.001-.001.001-.001h.001l.001-.001h.001l.001-.002h.002v-.001h.002v-.002h.002l.002-.001v-.001h.002v-.001h.002v-.001l.002-.001.002-.001.002-.001v-.001h.002v-.001h.002v-.002h.002l.002-.001.002-.002h.002v-.001l.002-.001.001-.001h.001l.001-.001.001-.001h.001l.001-.001h.001l.001-.002h.002l.001-.001h.001l.001-.002h.002l.001-.001h.001l.001-.002h.002l.001-.001.001-.001h.001l.001-.001h.001l.001-.001.001-.001h.001l.001-.001h.001l.001-.002h.002v-.001h.002v-.002h.002l.002-.001v-.001h.002v-.001h.002v-.001l.002-.001.002-.001.002-.001v-.001h.002v-.001h.002v-.002h.002l.002-.001.002-.002h.002v-.001l.002-.001.001-.001h.001l.001-.001.001-.001h.001l.001-.001h.001l.001-.002h.002l.001-.001h.001l.001-.002h.002l.001-.001h.001l.001-.002h.002l.001-.001.001-.001h.001l.001-.001h.001l.001-.001.001-.001h.001l.001-.001h.001l.001-.002h.002v-.001h.002V15.5h.002l.002-.001v-.001h.002v-.001h.002v-.001l.002-.001.002-.001.002-.001v-.001h.002v-.001h.002v-.002h.002l.002-.001.001-.002h.002l.002-.001v-.001h.001l.001-.001h.001l.001-.001.001-.001h.001l.001-.001h.001l.001-.002h.002l.001-.001h.001l.001-.002h.002l.001-.001h.001l.001-.002h.002l.001-.001.001-.001h.001l.001-.001h.001l.001-.001.001-.001h.001l.001-.001h.001l-.526-.851zm-.503.312c-.171.106-.32.201-.447.285l.555.832c.114-.076.253-.165.418-.267l-.526-.85zm-.44.28a3.233 3.233 0 00-.154.105 1 1 0 00-.07.056c-.005.004-.082.067-.132.168l.894.448a.468.468 0 01-.1.134l-.007.005.006-.005.104-.07-.54-.84zm-.401.464a.286.286 0 01.083-.162c.005-.005.004-.003-.008.004a.52.52 0 01-.056.027l.394.92c.11-.048.226-.11.326-.197.1-.087.21-.223.245-.414l-.984-.178zm-.041-.1a2.056 2.056 0 00-.59.552l.805.594c.105-.142.207-.233.299-.288l-.514-.858zm-.598.563c-.137.198-.288.438-.452.716l.862.508c.156-.266.293-.482.411-.652l-.82-.572zm-.423.673a2.235 2.235 0 00-.37.771l.968.252c.04-.153.107-.295.206-.429l-.804-.594zm-.369.767c-.07.261-.096.56.025.834l.916-.4c.005.01 0 .007 0-.022 0-.03.005-.08.025-.152l-.966-.26zm.006.783c.08.259.288.498.502.703l.693-.72a1.916 1.916 0 01-.196-.215c-.044-.058-.049-.078-.045-.066l-.954.298zm.502.703c.242.233.535.448.873.647l.508-.862a3.704 3.704 0 01-.688-.505l-.693.72zm.883.652c.26.146.488.288.688.429l.575-.818a8.858 8.858 0 00-.775-.483l-.488.872zm.698.436c.198.132.346.251.452.358l.707-.708a3.966 3.966 0 00-.604-.482l-.555.832zm.463.367c.126.12.168.188.177.206l.908-.419a1.754 1.754 0 00-.399-.514l-.686.727zm.222.285a.86.86 0 01.131.266l.964-.268a1.858 1.858 0 00-.278-.574l-.817.576zm.141.298a.69.69 0 01.044.23h1c0-.191-.036-.38-.1-.562l-.944.332zm.045.261a.477.477 0 01-.015.17l.956.294a1.47 1.47 0 00.057-.526l-.998.062zm.005.117a.785.785 0 01-.186.233l.687.727c.174-.165.323-.35.415-.56l-.916-.4zm-.196.242a.652.652 0 01-.071.063l-.006.003.008-.003a.278.278 0 01.117-.015l-.084.996c.336.028.596-.189.743-.336l-.707-.708zm-.126.064a1.2 1.2 0 00-.35.15l.555.832c-.01.006-.011.006 0 .001a.51.51 0 01.058-.019l-.263-.964zm-.385.176c.002-.001-.006.005-.028.014l.394.92c.09-.039.178-.089.26-.154l-.626-.78zm-.08.04l.024-.012a2.261 2.261 0 01-.22.05l.17.985c.1-.018.192-.037.272-.058.07-.019.165-.048.25-.097l-.495-.868zm-.2.038c-.149.027-.32.045-.518.052l.037 1c.235-.009.456-.031.66-.068l-.18-.984zm-.536.053c-.2.015-.38.019-.541.012l-.044.998c.207.01.427.005.659-.012l-.074-.998zm2.94-9.105s.01-.007.03-.014a.23.23 0 01.079-.014v1a.818.818 0 00.492-.172l-.6-.8zm.17-.024a.258.258 0 01.097.032.204.204 0 01.053.043l-.759.65a.76.76 0 00.486.267l.124-.992zm.109.031c-.098-.09-.224-.203-.377-.34l-.667.746c.152.135.274.245.368.332l.676-.738zm-.357-.32l-.396-.397-.707.708.396.396.707-.708zm-.396-.397a6.816 6.816 0 01-.16-.164c-.002-.003-.001-.003 0 0 .002 0 .01.01.019.025l-.832.554c.036.054.09.11.115.138l.151.155.707-.708zm-.078-.006l.003.018.003-.017-.97-.242a.991.991 0 00.006.529l.958-.288zm-.005.038a.256.256 0 01-.163.144l-.263-.964a.754.754 0 00-.523.504l.95.316zm-.163.144a.32.32 0 01-.24-.022c-.009-.005-.008-.006.003.003.01.01.026.026.047.051l.765-.644a1.231 1.231 0 00-.304-.27.686.686 0 00-.534-.082l.263.964zm-.217-.003c.09.128.217.255.357.377l.658-.752a1.315 1.315 0 01-.196-.199l-.819.574zm.382.398c.127.098.25.199.37.303l.659-.752a8.259 8.259 0 00-.422-.345l-.607.794zm.952.359c.103-.06.213-.128.33-.203l-.54-.842a8.035 8.035 0 01-.294.181l.504.864zm.33-.203c.121-.078.235-.157.342-.237l-.6-.8a4.74 4.74 0 01-.283.195l.541.842zm.326-.226a3.53 3.53 0 00.281-.211l-.65-.76c-.038.032-.101.08-.2.149l.57.822zm.256-.191a1.261 1.261 0 01.146-.093c.008-.004 0 .001-.024.005a.324.324 0 01-.134-.01l.263-.964a.76.76 0 00-.5.05 1.76 1.76 0 00-.351.212l.6.8zm.03-.088a.31.31 0 01-.159-.087.31.31 0 01-.087-.16l.984-.178a.692.692 0 00-.19-.37.692.692 0 00-.369-.189l-.179.984zm-.246-.247v-.013a.13.13 0 01.01-.04l.915.407a.901.901 0 00.059-.532l-.984.178zm-.017.03a.442.442 0 01.062-.138l-.002.002a1.905 1.905 0 01-.083.082l.679.734a2.14 2.14 0 00.157-.158.92.92 0 00.073-.094.6.6 0 00.084-.186l-.97-.242zm-.021-.056a3.555 3.555 0 01-.315.252l.585.81c.155-.111.291-.22.406-.324l-.676-.738zm-.326.26c-.131.1-.262.196-.393.288l.577.817c.141-.1.283-.203.423-.31l-.607-.795zm-.387.285c-.121.083-.213.14-.28.177l.478.878c.11-.06.233-.138.368-.231l-.566-.824z" fill="#fff"/></g><defs><clipPath id="clip0_1_2"><path fill="#fff" d="M0 0h30v45H0z"/></clipPath></defs></svg>