<svg width="30" height="45" viewBox="0 0 30 45" fill="none" xmlns="http://www.w3.org/2000/svg"><g clip-path="url(#clip0_1_2)"><path d="M13.458 41.693C2.107 25.237 0 23.548 0 17.5c0-8.284 6.716-15 15-15 8.284 0 15 6.716 15 15 0 6.048-2.107 7.737-13.458 24.193a1.876 1.876 0 01-3.084 0z" fill="#EE3232"/><path d="M14.456 22.576c-.008.048-.056.06-.144.036-.08-.016-.152-.072-.216-.168a1.09 1.09 0 01-.096-.42c0-.128.004-.32.012-.576.048-.28.112-.644.192-1.092.088-.456.188-.964.3-1.524.12-.568.248-1.16.384-1.776.096-.32.172-.612.228-.876.064-.272.112-.492.144-.66l.048-.252c0-.024-.024-.012-.072.036-.04.04-.08.088-.12.144-.04.056-.056.1-.048.132l-.084.12c-.056.08-.128.188-.216.324-.08.08-.176.24-.288.48-.112.24-.236.464-.372.672-.128.24-.264.5-.408.78-.144.272-.272.5-.384.684a3.563 3.563 0 00-.216.36 3.738 3.738 0 00-.132.264 1.814 1.814 0 01-.168.324c-.08.12-.168.24-.264.36a5.673 5.673 0 00-.144.228 3.342 3.342 0 00-.12.192l-.036.072c0 .024-.04.096-.12.216-.072.12-.164.252-.276.396a4.022 4.022 0 01-.3.372c-.28.296-.504.472-.672.528-.168.048-.356-.024-.564-.216a1.246 1.246 0 01-.228-.432 2.007 2.007 0 01-.06-.612c.008-.248.036-.556.084-.924.056-.28.108-.56.156-.84l.132-.804.12-.648c.04-.176.072-.292.096-.348.016-.16.012-.248-.012-.264-.024-.016-.072.032-.144.144-.032.056-.116.196-.252.42-.136.216-.296.484-.48.804-.176.32-.352.668-.528 1.044l-.816 1.512a68.42 68.42 0 01-.504.936 46.8 46.8 0 00-.264.516 4.021 4.021 0 01-.12.228.464.464 0 01-.06.084.372.372 0 01-.228-.096 2.48 2.48 0 01-.228-.204.424.424 0 01-.036-.168.96.96 0 01.084-.24l.216-.504c.104-.208.2-.388.288-.54.088-.16.156-.256.204-.288a2.32 2.32 0 00.108-.192.636.636 0 00.06-.228c.04-.048.1-.144.18-.288.088-.152.176-.316.264-.492.064-.104.144-.24.24-.408.104-.168.212-.352.324-.552.112-.208.212-.404.3-.588.368-.632.68-1.164.936-1.596.256-.44.448-.72.576-.84a.76.76 0 00.12-.168.36.36 0 00.072-.192c0-.168.032-.32.096-.456.072-.144.144-.208.216-.192.08 0 .152.008.216.024s.132.068.204.156c.064.096.12.192.168.288.048.096.044.288-.012.576 0 .112-.012.24-.036.384a17.24 17.24 0 01-.072.384l-.036.264c-.104.312-.2.664-.288 1.056-.088.384-.168.776-.24 1.176a26.1 26.1 0 00-.18 1.104c-.048.336-.08.616-.096.84-.008.216 0 .34.024.372.056.032.104.036.144.012.04-.024.108-.128.204-.312.056-.096.132-.212.228-.348.104-.144.204-.276.3-.396.064-.112.164-.28.3-.504.136-.224.308-.512.516-.864.216-.352.472-.78.768-1.284.304-.512.648-1.104 1.032-1.776.184-.28.356-.552.516-.816.168-.272.304-.448.408-.528.112-.104.228-.128.348-.072.12.048.224.152.312.312.096.16.148.36.156.6.008.112-.008.292-.048.54a9.442 9.442 0 01-.156.852 10.66 10.66 0 01-.276.972 6.223 6.223 0 01-.12.516c-.048.2-.104.408-.168.624-.064.216-.128.42-.192.612-.04.264-.088.524-.144.78-.048.256-.064.428-.048.516-.072.128-.12.312-.144.552-.024.24-.036.488-.036.744-.032.312-.056.532-.072.66-.016.128-.044.188-.084.18-.104-.032-.156-.012-.156.06zm4.232.024a4.877 4.877 0 01-.348-.108l-.132-.036c.016-.04.008-.076-.024-.108-.024-.032-.08-.052-.168-.06a1.542 1.542 0 01-.336-.276 2.038 2.038 0 01-.24-.312 2.335 2.335 0 01-.144-.264.903.903 0 01-.084-.216c.008-.032.056-.068.144-.108.088-.064.152-.084.192-.06.048.024.104.104.168.24.104.184.28.324.528.42.256.096.54.14.852.132.32-.016.624-.088.912-.216.296-.12.48-.244.552-.372.08-.136.052-.308-.084-.516a.568.568 0 00-.084-.156 1.402 1.402 0 00-.156-.156 18.974 18.974 0 00-.324-.312l-.336-.156-.312-.156a4.92 4.92 0 01-.468-.276 5.008 5.008 0 01-.504-.42 1.88 1.88 0 01-.348-.42 1.102 1.102 0 01-.288-.492 1.936 1.936 0 01-.072-.684c.016-.24.076-.456.18-.648.048-.112.128-.248.24-.408a8.104 8.104 0 01.816-.96c.136-.136.248-.232.336-.288.064-.064.132-.128.204-.192l.108-.108c.008-.04.02-.06.036-.06h.036a2.47 2.47 0 01.264-.12c.136-.056.284-.16.444-.312.536-.256.972-.444 1.308-.564.336-.12.612-.18.828-.18.2.008.38.056.54.144.168.08.304.188.408.324.112.136.18.3.204.492.056.192.04.416-.048.672-.088.248-.22.484-.396.708-.168.216-.352.38-.552.492-.224.096-.376.14-.456.132-.072-.016-.104-.1-.096-.252 0-.064.02-.14.06-.228.048-.088.172-.244.372-.468.256-.376.412-.676.468-.9.056-.224.004-.348-.156-.372a.695.695 0 00-.264 0c-.12.016-.256.04-.408.072a2.906 2.906 0 00-.372.084c-.104.024-.156.044-.156.06v.036c0 .024-.016.032-.048.024-.016 0-.084.032-.204.096-.12.064-.264.148-.432.252l-.504.312c-.168.104-.312.196-.432.276a.863.863 0 00-.18.132c-.016.088-.108.168-.276.24a1.56 1.56 0 00-.444.42c-.128.184-.272.412-.432.684a1.733 1.733 0 00-.288.6c-.056.208-.056.376 0 .504.04.128.164.292.372.492s.468.392.78.576c.272.152.516.304.732.456.216.144.392.284.528.42.144.136.24.256.288.36.096.136.164.276.204.42.048.136.072.268.072.396a.972.972 0 01-.036.348c-.056.128-.156.26-.3.396-.136.136-.252.2-.348.192a.712.712 0 00-.204.084.62.62 0 01-.144.084c-.056.032-.176.064-.36.096a4.164 4.164 0 01-.588.06c-.216.016-.416.02-.6.012zm3.804-9.216a.32.32 0 01-.192.072.26.26 0 01-.168-.096l-.372-.336-.396-.396a2.652 2.652 0 01-.204-.216.492.492 0 010-.264.255.255 0 01.18-.18c.088-.024.196.04.324.192.056.08.148.176.276.288.136.104.268.212.396.324.096-.056.2-.12.312-.192.112-.072.216-.144.312-.216.104-.072.184-.132.24-.18.192-.144.332-.204.42-.18.088.016.14.068.156.156a.402.402 0 01-.024.24c-.008.032-.064.096-.168.192a4.03 4.03 0 01-.36.288c-.136.104-.272.204-.408.3a3.855 3.855 0 01-.324.204z" fill="#000"/><path d="M14.456 22.576l.493.082.007-.04v-.042h-.5zm-.144.036l.131-.482-.016-.005-.017-.003-.098.49zm-.216-.168l-.461.194.018.044.027.04.416-.278zm-.084-.996l-.493-.085-.006.035-.001.034.5.016zm.192-1.092l-.491-.095-.002.007.493.088zm.3-1.524l-.49-.103v.005l.49.098zm.384-1.776l-.48-.144-.005.018-.004.018.489.108zm.228-.876l-.487-.114-.002.01.489.104zm.144-.66l.49.094-.49-.094zm.048-.252l.49.094.01-.047v-.047h-.5zm-.072.036l-.354-.354.354.354zm-.12.144l.407.29-.407-.29zm-.048.132l.41.287.13-.187-.055-.221-.485.121zm-.084.12l.41.287-.41-.287zm-.216.324l.353.354.038-.038.028-.044-.42-.272zm-.66 1.152l-.419-.274-.012.019-.01.02.44.235zm-.408.78l.442.234.002-.005-.444-.229zm-.384.684l.41.285.01-.012.007-.013-.427-.26zM13.1 19l.442.234L13.1 19zm-.132.264l-.465-.186-.002.008-.003.007.47.171zm-.168.324l.416.277.004-.006.004-.006-.424-.265zm-.264.36l-.39-.312-.014.017-.012.018.416.277zm-.144.228l.416.277.006-.01.006-.01-.428-.257zm-.12.192l-.434-.248-.007.012-.006.012.447.224zm-.036.072l-.447-.224-.053.106v.118h.5zm-.12.216l-.416-.277-.007.01-.006.01.429.257zm-.276.396l-.395-.307-.005.007-.006.007.406.293zm-.3.372l.363.344.004-.005-.367-.339zm-.672.528l.137.48.01-.002.01-.004-.157-.474zm-.564-.216l-.388.315.022.028.027.024.339-.367zm-.228-.432l-.481.137.002.007.479-.144zm-.06-.612l.5.017-.5-.017zm.084-.924l-.49-.098-.004.016-.002.017.496.065zm.156-.84l.492.084v-.002l-.492-.082zm.132-.804l-.492-.092-.002.012.494.08zm.12-.648l-.488-.11-.002.01-.002.01.492.09zm.096-.348l.46.197.03-.07.007-.077-.497-.05zm-.012-.264l.277-.416-.277.416zm-.144.144l-.42-.27-.008.01-.006.012.434.248zm-.252.42l.423.266.004-.006-.427-.26zm-.48.804l-.434-.25-.004.009.438.241zm-.528 1.044l.44.237.006-.012.007-.013-.453-.212zm-.816 1.512l-.44-.238-.002.004.442.234zm-.504.936l-.438-.242-.006.012.444.23zm-.264.516l.447.224-.447-.224zm-.12.228l-.43-.257.43.257zm-.06.084v.5h.207l.146-.146-.353-.354zm-.228-.096l.312-.39-.005-.005-.307.395zm-.228-.204l-.46.197.038.088.068.069.354-.354zm-.036-.168l-.495-.07-.005.035v.035h.5zm.084-.24l.454.21.005-.013-.46-.197zm.216-.504l-.448-.224-.006.014-.006.013.46.197zm.288-.54l.432.25.006-.009-.438-.241zm.204-.288l.277.416.09-.06.057-.091-.424-.265zm.168-.42l-.384-.32-.1.12-.014.155.498.045zm.18-.288l-.433-.25-.004.007.437.243zm.264-.492l-.426-.262-.012.019-.01.02.448.223zm.24-.408l-.425-.263-.005.007-.004.008.434.248zm.324-.552l.436.244.004-.007-.44-.237zm.3-.588l-.432-.252-.01.018-.01.018.452.216zm.936-1.596l.43.255.002-.004-.432-.251zm.576-.84l.342.365.005-.006.006-.005-.353-.354zm.12-.168l-.416-.277-.012.017-.01.017.438.243zm.168-.648l-.448-.224-.005.011.453.213zm.216-.192l-.109.488.054.012h.055v-.5zm.216.024l-.122.485.122-.485zm.204.156l.416-.277-.014-.02-.015-.02-.387.317zm.156.864l-.491-.095-.01.047v.048h.5zm-.036.384l.492.087v-.005l-.492-.082zm-.072.384l-.49-.098-.003.014-.002.013.495.071zm-.036.264l.474.158.016-.047.006-.049-.496-.062zm-.288 1.056l.487.112v-.003l-.487-.109zm-.24 1.176l.491.09v-.001l-.491-.089zm-.18 1.104l.495.07-.495-.07zm-.096.84l-.5-.036v.017l.5.019zm.024.372l-.4.3.062.083.09.051.248-.434zm.348-.3l-.432-.252-.006.01-.006.01.444.232zm.228-.348l-.406-.293-.003.005.409.288zm.3-.396l.39.312.024-.03.02-.034-.434-.248zm.3-.504l-.428-.26.428.26zm.516-.864l-.427-.262-.004.008.43.254zm.768-1.284l-.43-.255-.002.002.432.253zm1.032-1.776l-.418-.275-.009.013-.007.014.434.248zm.516-.816l-.426-.263-.002.004.428.259zm.408-.528l.304.396.019-.014.017-.016-.34-.366zm.348-.072l-.212.453.013.006.013.005.186-.464zm.312.312l-.438.241.004.008.005.008.429-.257zm.156.6l-.5.017v.019l.5-.036zm-.048.54l-.494-.08-.001.008-.001.008.496.064zm-.156.852l.487.112v-.002l-.487-.11zm-.276.972l-.475-.158-.011.035-.007.036.493.087zm-.12.516l-.483-.13-.003.013.486.117zm-.168.624l.48.142-.48-.142zm-.192.612l-.475-.158-.013.04-.007.043.495.075zm-.144.78l-.489-.107-.001.008-.002.007.492.092zm-.048.516l.435.245.089-.157-.032-.177-.492.089zm-.144.552l.497.05-.497-.05zm-.036.744l.497.051.003-.025v-.026h-.5zm-.072.66l.496.062-.496-.062zm-.084.18l-.147.478.024.007.025.005.098-.49zm-.65-.022a.446.446 0 01.33-.358c.104-.026.172 0 .151-.006l-.263.964c.068.019.204.05.355.012a.557.557 0 00.414-.448l-.986-.164zm.448-.372a.231.231 0 01.095.041c.016.013.016.018.007.004l-.832.554c.106.16.278.33.534.381l.196-.98zm.146.128a.603.603 0 01-.056-.226h-1c0 .21.052.418.135.614l.921-.388zm-.056-.226c0-.12.004-.306.011-.56l-1-.032c-.007.258-.011.456-.011.592h1zm.005-.492c.047-.278.111-.64.19-1.088l-.984-.176c-.08.449-.144.814-.192 1.095l.986.17zm.19-1.081c.087-.455.187-.962.299-1.52l-.98-.197c-.113.56-.213 1.07-.301 1.527l.982.19zm.298-1.516c.12-.566.247-1.157.383-1.771l-.977-.216c-.136.618-.264 1.211-.384 1.78l.978.207zm.374-1.735c.099-.33.178-.636.238-.916l-.978-.208c-.053.248-.125.526-.218.836l.958.288zm.235-.905c.065-.276.115-.504.149-.681l-.982-.188c-.03.159-.077.37-.14.64l.973.229zm.149-.681v-.001-.001-.001-.001-.001l.001-.001v-.001-.001-.001-.001-.001l.001-.001V15.6 15.6v-.001l.001-.002v-.002-.002l.001-.002v-.002-.001-.001l.001-.001v-.001-.001-.001l.001-.002v-.002-.002l.001-.001v-.001-.001-.001-.002h.001v-.002-.001-.001-.001l.001-.001v-.002-.002l.001-.001v-.001-.001-.002l.001-.001v-.001-.001-.001-.002h.001v-.002-.001-.001l.001-.002v-.001-.001-.001l.001-.002v-.001-.001-.001-.002h.001v-.001-.001-.002l.001-.001v-.001-.002-.001-.001h.001v-.002-.001-.001l.001-.002v-.001-.002-.001h.001v-.002-.001-.001-.002h.001v-.001-.002-.001l.001-.001v-.001-.002-.001l.001-.002v-.001-.001-.001-.002h.001v-.001-.001-.001-.002h.001v-.002-.002-.001h.001v-.001-.001-.001-.001-.001l.001-.001v-.001-.001-.001-.001l.001-.001v-.002-.002l.001-.001v-.001-.001-.002l.001-.001v-.001-.001-.002-.001h.001v-.002-.001-.001-.001l.001-.001v-.001-.002-.001l.001-.001v-.002-.001-.001l.001-.001v-.002-.001-.001-.001h.001v-.001-.001-.001-.001-.001h.001v-.001-.001-.001-.001-.001l.001-.001v-.001-.001-.001-.001-.001h.001v-.001-.001-.001-.001-.001h.001v-.001-.001-.001-.001-.001h.001v-.001-.001-.001-.001-.001l.001-.001v-.001-.001-.001-.001l.001-.001v-.001-.001-.001-.001-.001h.001v-.001-.001-.001-.001-.001h.001v-.001-.001-.001-.001-.001-.001h.001v-.001-.001-.001-.001-.001h.001v-.001-.001-.001-.001-.001h.001v-.001-.001-.001-.001-.001h.001v-.001-.001-.001-.001-.001l-.49-.094-.492-.094v.008h-.001v.005h-.001v.005h-.001v.005h-.001v.005l-.001.001v.005h-.001v.005h-.001v.005h-.001v.006h-.001v.004l-.001.001v.005l-.001.001v.004h-.001v.006h-.001v.004l-.001.001v.005H14.8v.005l-.001.001v.004l-.001.001v.005h-.001v.005h-.001v.005l-.001.001v.004l-.001.002v.004h-.001v.005h-.001v.006h-.001v.005h-.001v.005l-.001.001v.004l-.001.001v.005h-.001v.005h-.001v.005h-.001v.005l-.001.001v.004h-.001v.006h-.001v.005h-.001v.005l-.001.001v.005h-.001v.004l-.001.002v.004l-.001.001v.004l-.001.001v.005h-.001v.004l-.001.001v.005h-.001v.005l-.001.001v.004l-.001.001v.004l-.001.002v.004h-.001v.006h-.001v.002l.982.188zm.057-.346a.51.51 0 00-.742-.456c-.093.046-.163.117-.184.138l.707.708c.027-.027-.006.014-.076.048a.492.492 0 01-.706-.438h1zm-.926-.318c-.063.064-.12.134-.173.207l.814.582a.641.641 0 01.066-.081l-.707-.708zm-.173.207a.821.821 0 00-.105.195.596.596 0 00-.021.35l.97-.243a.405.405 0 01-.01.235c-.012.035-.025.051-.02.045l-.814-.582zm.359.423l-.41-.287v.001h-.001v.002h-.001v.001h-.001v.001l-.001.001v.001h-.001v.001h-.001v.002h-.001v.001h-.001v.002h-.001v.001h-.001v.001l-.001.001v.001h-.001v.001h-.001v.002h-.001v.001h-.001v.002h-.001v.001h-.001v.002h-.001v.001h-.001v.001h-.001v.002h-.001v.001h-.001v.001l-.001.001v.001h-.001v.001l-.001.001v.001h-.001v.001l-.001.001v.001h-.001v.001h-.001v.002h-.001v.001h-.001v.002h-.001v.001h-.001v.001h-.001v.002h-.001v.001h-.001v.001l-.001.001v.001h-.001v.001l-.001.001v.001h-.001v.001h-.001v.002h-.001v.001h-.001v.001l-.001.001v.001h-.001v.001l-.001.001v.001h-.001v.001l-.001.001v.001h-.001v.001l-.001.001-.001.001v.001h-.001v.001l-.001.001v.001h-.001v.001l-.001.001v.001h-.001v.001H14.6v.002H14.6v.001h-.001v.001l-.001.001v.001h-.001v.001h-.001v.002h-.001v.001h-.001v.002h-.001v.001h-.001v.001l-.001.001v.001h-.001v.001l-.001.001v.001h-.001v.001h-.001v.002h-.001v.001h-.001v.001l-.001.001v.001h-.001v.001l-.001.001v.001h-.001v.001l-.001.001-.001.001v.001h-.001v.001l-.001.001v.001h-.001v.001h-.001v.002l.818.574v-.001h.001v-.001l.001-.001v-.001h.001v-.001h.001v-.001l.001-.001v-.001h.001v-.001h.001v-.001l.001-.001v-.001l.001-.001.001-.001v-.001h.001v-.001l.001-.001v-.001h.001v-.001l.001-.001.001-.001v-.001l.001-.001.001-.001v-.001h.001v-.001l.001-.001v-.001h.001v-.001l.001-.001.001-.001v-.001h.001v-.001-.001h.001v-.001h.001v-.001l.001-.001v-.001h.001v-.001h.001v-.001-.001h.001v-.001h.001v-.001-.001h.001v-.001h.001v-.001l.001-.001v-.001h.001v-.001h.001v-.001-.001h.001v-.001h.001v-.001l.001-.001v-.001h.001v-.001l.001-.001v-.001h.001v-.001l.001-.001.001-.001v-.001h.001v-.001l.001-.001v-.001h.001v-.001l.001-.001v-.001h.001v-.001h.001v-.001-.001h.001v-.001h.001v-.001-.001h.001v-.001h.001v-.001l.001-.001v-.001h.001v-.001h.001v-.001-.001h.001v-.001h.001v-.001l.001-.001v-.001h.001V15.9l.001-.001v-.001h.001v-.001h.001v-.001-.001h.001v-.001h.001v-.001l.001-.001v-.001h.001v-.001l.001-.001v-.001h.001v-.001h.001v-.001-.001h.001v-.001h.001v-.001l.001-.001v-.001h.001v-.001l.001-.001v-.001h.001v-.001h.001v-.001-.001h.001v-.001h.001v-.001-.001h.001v-.001h.001v-.001l.001-.001v-.001h.001v-.001h.001v-.001l-.41-.287zm-.494-.167c-.06.087-.137.201-.226.34l.84.543a10.8 10.8 0 01.205-.31l-.819-.573zm-.16.257c-.148.149-.275.382-.387.623l.906.422c.051-.11.095-.193.131-.254.04-.064.059-.085.057-.083l-.707-.708zm-.387.623c-.103.22-.216.422-.338.61l.837.547c.15-.23.285-.474.407-.735l-.906-.422zm-.36.648c-.13.242-.267.504-.412.786l.89.458c.142-.278.277-.536.404-.774l-.883-.47zm-.41.781a12.95 12.95 0 01-.368.658l.854.52c.119-.195.252-.433.399-.71l-.884-.468zm-.352.633c-.086.124-.168.261-.247.411l.884.468c.064-.122.126-.225.185-.31l-.822-.569zm-.247.411a4 4 0 00-.155.312l.929.372s.006-.015.028-.058c.02-.04.046-.092.082-.158l-.884-.468zm-.16.327c-.015.041-.051.116-.122.23l.848.53c.088-.142.165-.284.214-.418l-.94-.342zm-.114.218c-.072.107-.151.215-.239.325l.781.624c.105-.13.201-.262.29-.395l-.832-.554zm-.264.36c-.053.079-.105.162-.157.248l.857.514c.045-.073.088-.143.132-.208l-.832-.554zm-.144.228a3.886 3.886 0 00-.138.22l.868.497c.025-.043.058-.097.102-.163l-.832-.554zm-.152.245v.003h-.001v.002h-.001v.002h-.001v.002h-.001v.002h-.001v.002h-.001v.002h-.001v.002h-.001v.002h-.001v.002h-.001v.002h-.001v.002h-.001v.002h-.001v.002h-.001v.002h-.001v.002h-.001v.002h-.001v.002h-.001v.002h-.001v.002h-.001v.002h-.001v.002h-.001v.002H11.8v.002H11.8v.002h-.001v.002h-.001v.002h-.001v.002h-.001v.002h-.001v.002h-.001v.002h-.001v.002h-.001v.002h-.001v.002h-.001v.002h-.001v.001l.447.224.447.224v-.001-.001h.001v-.001-.001h.001v-.001-.001h.001v-.001-.001h.001v-.001-.001h.001v-.001-.001h.001v-.001-.001h.001v-.001-.001h.001v-.001-.001h.001v-.001-.001h.001v-.001-.001h.001v-.001-.001h.001v-.001-.001h.001v-.001-.001h.001v-.001-.001h.001v-.001-.001h.001v-.001-.001h.001v-.001-.001h.001v-.001-.001h.001v-.001-.001h.001v-.001-.001h.001v-.001-.001h.001v-.001-.001h.001v-.001-.001h.001v-.001-.001h.001v-.001-.001h.001v-.001-.001h.001v-.001-.001h.001v-.001-.001h.001v-.001-.001h.001v-.001-.001h.001V20.6 20.6h.001v-.001-.001h.001v-.001-.001h.001v-.001-.001h.001v-.001-.001l-.893-.448zm-.088.296a.466.466 0 01.036-.176l-.003.005a.953.953 0 01-.07.11l.833.554c.043-.064.081-.125.11-.178a.96.96 0 00.048-.096c.007-.018.046-.106.046-.219h-1zm-.05-.041c-.058.098-.138.213-.241.346l.79.614c.12-.155.225-.304.31-.446l-.858-.514zm-.252.36a3.55 3.55 0 01-.262.326l.735.678c.113-.122.225-.262.338-.418l-.81-.586zm-.258.321a3.11 3.11 0 01-.323.305.988.988 0 01-.133.088l-.01.005.316.948c.297-.099.596-.361.877-.658l-.727-.688zm-.446.391a.124.124 0 01.042-.004c.01 0 .014.003.008 0a.493.493 0 01-.137-.098l-.678.734c.253.234.619.45 1.04.33l-.275-.962zm-.038-.05a.747.747 0 01-.137-.26l-.958.287c.066.221.173.424.319.603l.776-.63zm-.136-.254a1.522 1.522 0 01-.04-.458l-1-.034a2.5 2.5 0 00.079.766l.961-.274zm-.04-.459c.007-.226.033-.516.08-.875l-.992-.13c-.05.377-.08.703-.088.973l1 .032zm.074-.842c.057-.284.11-.569.159-.854l-.986-.169c-.047.276-.099.551-.154.827l.981.196zm.159-.856l.132-.806-.987-.16-.132.802.987.164zm.13-.794l.12-.65-.983-.18-.12.646.983.184zm.116-.63c.02-.083.035-.148.049-.196.014-.053.021-.07.02-.065l-.92-.394a2.834 2.834 0 00-.124.434l.975.222zm.106-.408a1.85 1.85 0 00.011-.259.75.75 0 00-.023-.16.54.54 0 00-.22-.311l-.555.832a.473.473 0 01-.19-.26c-.01-.038-.011-.06-.01-.055 0 .007 0 .041-.008.113l.995.1zm-.232-.73a.522.522 0 00-.503-.04.611.611 0 00-.182.126c-.063.064-.116.14-.157.204l.841.54c.032-.048.038-.051.023-.036-.004.004-.045.046-.119.079a.478.478 0 01-.458-.041l.555-.832zm-.855.312c-.028.049-.108.182-.246.409l.855.518c.135-.221.223-.368.259-.43l-.868-.497zm-.241.402c-.141.223-.305.497-.49.82l.866.5c.182-.317.339-.58.47-.788l-.846-.532zm-.495.829c-.182.33-.363.689-.543 1.073l.906.424c.172-.367.343-.706.513-1.015l-.876-.482zm-.53 1.048l-.816 1.511.88.476.816-1.513-.88-.474zm-.818 1.515c-.207.39-.374.7-.5.929l.875.482c.13-.235.3-.55.508-.943l-.883-.468zm-.506.94l-.268.522.895.448c.054-.11.141-.279.26-.51l-.887-.46zm-.268.522a3.828 3.828 0 01-.101.195l.857.514c.036-.059.084-.15.139-.261l-.895-.448zm-.101.195a.546.546 0 01-.008.013l-.003.004.005-.007a.33.33 0 01.021-.023l.707.708a.939.939 0 00.135-.18l-.857-.515zm.369-.159c.08 0 .112.036.084.014l-.625.78a.867.867 0 00.54.206v-1zm.079.01a1.985 1.985 0 01-.182-.164l-.707.708c.091.09.183.173.275.245l.614-.79zm-.076-.007l.003.008a.101.101 0 01.002.021h-1c0 .13.028.252.076.365l.92-.394zm0 .1c-.003.015-.004.015.004-.008.007-.02.02-.051.039-.093l-.908-.42a1.423 1.423 0 00-.125.38l.99.14zm.048-.114l.216-.504-.919-.394-.216.504.92.394zm.204-.477c.1-.202.192-.373.273-.514l-.865-.5c-.094.163-.195.352-.303.566l.895.448zm.279-.523c.039-.071.068-.117.087-.144l.01-.013c-.001 0-.02.02-.054.044l-.555-.832a.866.866 0 00-.217.223c-.05.07-.099.151-.147.24l.876.482zm.19-.264c.048-.077.091-.155.13-.233l-.894-.448c-.024.05-.052.1-.084.151l.848.53zm.13-.233c.066-.132.1-.27.112-.407l-.996-.09c-.004.04-.011.053-.01.05l.895.447zm-.002-.132a2.55 2.55 0 00.233-.365l-.874-.486c-.038.068-.068.12-.092.158l-.035.053.768.64zm.228-.357a9.63 9.63 0 00.279-.52l-.895-.447a8.675 8.675 0 01-.249.465l.865.502zm.258-.481c.067-.11.15-.252.248-.422l-.868-.496c-.095.166-.172.296-.232.394l.851.524zM9 19.167c.108-.175.22-.365.335-.57l-.873-.49c-.109.195-.213.373-.312.534l.85.526zm.339-.578c.115-.214.219-.417.31-.61l-.901-.43c-.084.175-.18.364-.29.566l.88.474zm.292-.573c.367-.632.679-1.163.934-1.593l-.86-.51c-.257.434-.57.967-.938 1.6l.864.503zm.936-1.597c.261-.45.42-.664.486-.726l-.684-.73c-.19.178-.416.523-.666.954l.864.502zm.497-.737c.084-.085.15-.183.204-.28l-.874-.485a.51.51 0 01-.03.048l-.007.01.707.707zm.183-.245a.851.851 0 00.156-.469h-1a.25.25 0 01.014-.086c.004-.011.006-.011-.002 0l.832.555zm.156-.469a.56.56 0 01.048-.243l-.905-.426c-.099.21-.143.436-.143.669h1zm.043-.232c.024-.049.026-.036-.007-.006a.346.346 0 01-.12.067.401.401 0 01-.213.011l.217-.976a.618.618 0 00-.549.15c-.104.094-.175.21-.223.306l.895.448zm-.231.084c.047 0 .077.005.094.01l.243-.971a1.392 1.392 0 00-.337-.039v1zm.094.01a.236.236 0 01-.083-.038c-.005-.004.003.002.022.025l.774-.634a.908.908 0 00-.47-.324l-.243.97zm-.09-.053c.053.08.098.159.136.235l.895-.448a3.185 3.185 0 00-.2-.341l-.831.554zm.136.235a.263.263 0 01-.02-.059v.04a1.73 1.73 0 01-.035.276l.982.19c.03-.159.05-.31.054-.445a.963.963 0 00-.086-.45l-.894.448zm-.064.352c0 .078-.009.177-.03.302l.987.164c.027-.163.043-.32.043-.466h-1zm-.029.297c-.023.133-.046.257-.07.373l.981.196c.025-.124.05-.256.074-.395l-.985-.174zm-.074.4c-.017.113-.029.205-.037.273l.992.124c.007-.06.019-.144.035-.255l-.99-.142zm-.016.177c-.11.33-.21.7-.301 1.105l.976.218c.085-.378.176-.714.274-1.007l-.949-.316zm-.3 1.102c-.09.392-.172.792-.245 1.2l.984.177c.07-.393.149-.777.235-1.153l-.975-.224zm-.245 1.198c-.073.398-.134.773-.184 1.125l.99.138c.048-.336.107-.697.177-1.083l-.983-.18zm-.183 1.123c-.05.343-.083.635-.1.875l.997.072c.015-.208.046-.476.093-.805l-.99-.142zm-.101.892a3.146 3.146 0 000 .306c.004.043.008.093.019.144a.6.6 0 00.105.241l.8-.6a.446.446 0 01.074.158c.003.012.002.012 0-.007a3.513 3.513 0 010-.204l-.998-.037zm.276.825a.634.634 0 00.649.007l-.515-.858a.392.392 0 01.233-.054.313.313 0 01.129.037l-.496.868zm.649.007a.649.649 0 00.16-.14c.031-.037.059-.076.082-.111.047-.072.097-.16.148-.259l-.887-.462a2.205 2.205 0 01-.098.173c-.01.017-.013.02-.01.015a.4.4 0 01.09-.073l.515.857zm.379-.49c.046-.078.113-.181.204-.31l-.817-.577c-.1.142-.185.271-.251.384l.864.504zm.201-.306c.1-.139.195-.264.285-.377l-.78-.624c-.103.127-.208.266-.316.415l.811.586zm.329-.44c.06-.107.157-.27.293-.494l-.855-.518c-.136.224-.239.397-.306.515l.868.496zm.293-.494c.137-.226.31-.516.52-.869l-.862-.508c-.207.35-.378.637-.513.859l.855.518zm.515-.861c.218-.356.476-.787.773-1.293l-.863-.506c-.294.502-.549.927-.763 1.275l.853.524zm.772-1.29c.305-.516.65-1.11 1.036-1.784l-.868-.496c-.383.67-.726 1.26-1.028 1.769l.86.51zm1.02-1.757c.187-.285.362-.562.525-.832l-.855-.518c-.157.258-.325.525-.506.8l.835.55zm.523-.828c.079-.127.144-.224.198-.293.027-.035.049-.06.065-.078l.024-.024-.61-.792c-.184.142-.36.39-.528.661l.851.526zm.323-.425c.008-.007-.014.017-.068.028-.06.012-.11-.001-.136-.013l.423-.906a.776.776 0 00-.49-.06.86.86 0 00-.41.219l.68.732zm-.178.026c-.024-.01.005-.01.06.089l.876-.482c-.121-.22-.3-.43-.565-.535l-.371.928zm.069.105c.041.07.079.18.085.36l1-.034a1.726 1.726 0 00-.228-.84l-.857.514zm.086.379c.003.05-.003.18-.043.424l.987.16c.04-.252.066-.481.053-.656l-.997.072zm-.045.44c-.03.229-.079.497-.148.806l.976.22c.074-.331.13-.63.164-.898l-.992-.128zm-.147.804a10.18 10.18 0 01-.264.926l.949.316c.116-.35.213-.689.289-1.018l-.974-.224zm-.282.997c-.02.116-.056.272-.11.473l.966.26c.057-.215.101-.403.13-.56l-.986-.173zm-.114.486c-.045.191-.099.39-.16.599l.958.284c.066-.224.125-.44.175-.65l-.973-.233zm-.16.599c-.063.211-.126.41-.188.596l.949.316c.066-.198.132-.407.197-.628l-.959-.284zm-.208.68a11.67 11.67 0 01-.138.747l.977.214c.059-.267.108-.538.15-.812l-.989-.15zm-.14.762a4.14 4.14 0 00-.055.367c-.01.097-.015.217.006.33l.984-.178c.003.017.002.022.002.007 0-.013 0-.034.003-.067.007-.065.02-.155.042-.275l-.983-.184zm.007.363c-.12.214-.179.477-.206.747l.995.1c.021-.21.06-.316.082-.357l-.871-.49zm-.206.747a7.964 7.964 0 00-.038.794h1c0-.24.01-.472.033-.694l-.995-.1zm-.036.743c-.032.312-.055.527-.07.649l.992.124c.017-.134.041-.359.073-.671l-.995-.102zm-.07.649c-.007.052-.01.035.01-.008a.418.418 0 01.126-.154.467.467 0 01.374-.086l-.196.98a.533.533 0 00.43-.1.582.582 0 00.172-.218.98.98 0 00.076-.29l-.992-.124zm.559-.236a.679.679 0 00-.444.002.555.555 0 00-.285.246.588.588 0 00-.074.29h1a.445.445 0 01-.281.398.392.392 0 01-.17.026c-.029-.002-.044-.007-.04-.006l.294-.956zm3.93.562l-.134.482.055.015.057.002.021-.499zm-.349-.108l.171-.47-.02-.007-.02-.005-.13.482zm-.132-.036l-.464-.186-.208.52.54.148.132-.482zm-.024-.108l-.4.3.022.028.025.026.353-.354zm-.168-.06l-.257.429.098.059.114.01.045-.498zm-.336-.276l-.367.34h.001l.366-.34zm-.24-.312l-.425.262.425-.262zm-.144-.264l.457-.203-.003-.008-.454.211zm-.084-.216l-.485-.121-.015.06v.061h.5zm.144-.108l.207.455.047-.02.04-.03-.294-.405zm.192-.06l-.257.429.017.01.017.008.223-.447zm.168.24l-.452.213.008.017.01.016.434-.246zm.528.42l-.18.466.005.002.175-.468zm.852.132l.013.5h.012l-.025-.5zm.912-.216l-.188-.463-.007.003-.008.003.203.457zm.552-.372l-.43-.254-.005.009.435.245zm-.084-.516l-.468.176.02.051.03.047.418-.274zm-.084-.156l.39-.312-.39.312zm-.156-.156l-.353.354.01.01.011.01.332-.374zm-.324-.312l.344-.363-.059-.056-.073-.034-.212.453zm-.336-.156l-.223.447.007.004.007.003.21-.454zm-.78-.432l-.294.404.01.008.011.007.273-.419zm-.504-.42l-.344.363.344-.363zm-.348-.42l.436-.245-.037-.067-.057-.053-.342.365zm-.288-.492l-.479.142.002.005.477-.147zm-.072-.684l-.498-.033.498.033zm.18-.648l.44.238.01-.02.01-.021-.46-.197zm.24-.408l-.407-.29-.002.003.41.287zm.396-.504l.38.325-.38-.325zm.42-.456l-.353-.354.353.354zm.336-.288l.269.422.046-.03.039-.038-.354-.354zm.204-.192l.333.374.01-.01.01-.01-.353-.354zm.108-.108l.354.354.107-.107.03-.149-.49-.098zm.072-.06v.5h.139l.119-.071-.258-.429zm.264-.12l.19.462-.19-.462zm.444-.312l-.215-.451-.072.034-.057.054.344.363zm2.136-.744l.02-.5h-.02v.5zm.54.144l-.24.438.012.007.013.006.215-.451zm.408.324l-.397.304.006.007.005.007.386-.318zm.204.492l-.496.062.005.04.011.038.48-.14zm-.048.672l.472.167.001-.005-.473-.162zm-.396.708l-.393-.309-.001.002.394.307zm-.552.492l.197.46.025-.01.023-.014-.245-.436zm-.456.132l-.108.488.029.007.03.003.05-.498zm-.096-.252l.5.026v-.026h-.5zm.06-.228l-.439-.24-.008.016-.008.017.455.207zm.372-.468l.373.333.022-.025.019-.027-.414-.281zm.468-.9l.485.121-.485-.121zm-.156-.372l-.158.474.041.014.043.007.074-.495zm-.264 0l-.062-.496h-.004l.066.496zm-.408.072l.083.493.01-.002.01-.002-.103-.489zm-.372.084l.113.487.017-.004.017-.005-.147-.478zm-.204.12l.122-.485-.06-.015h-.062v.5zm-.204.096l.236.441-.236-.441zm-1.368.84l.27.42.008-.004-.278-.416zm-.18.132l-.447-.224-.032.064-.012.07.491.09zm-.276.24l-.197-.46-.03.014-.03.017.257.429zm-.444.42l-.402-.297-.004.006-.004.005.41.286zm-.432.684l.403.297.015-.02.013-.023-.43-.254zm-.288.6l.483.13.001-.005-.484-.125zm0 .504l.478-.15-.008-.025-.012-.025-.458.2zm.372.492l-.346.36.346-.36zm.78.576l-.254.43.01.006.244-.436zm.732.456l-.287.409.01.007.277-.416zm.528.42l-.353.354.005.005.005.005.343-.364zm.288.36l-.454.21.02.041.026.037.408-.288zm.204.42l-.481.134.004.016.006.016.471-.166zm.072.396h-.5v.016l.001.015.5-.031zm-.036.348l.459.2.01-.026.01-.027-.479-.147zm-.3.396l-.343-.363-.005.004-.005.005.353.354zm-.348.192l.042-.498-.088-.008-.085.024.131.482zm-.204.084l-.277-.416-.018.012-.017.014.312.39zm-.144.084l-.197-.46-.026.012-.025.014.248.434zm-.36.096l-.085-.493-.004.001.09.492zm-.588.06l-.018-.5h-.01l-.009.001.037.499zm3.204-9.204l-.239-.439-.032.017-.029.022.3.4zm-.192.072l-.062.496.031.004h.031v-.5zm-.168-.096l.38-.325-.02-.023-.022-.02-.338.368zm-.372-.336l-.353.354.01.01.01.009.333-.373zm-.396-.396l-.353.354.353-.354zm-.204-.216l-.479.144.022.071.041.062.416-.277zm0-.264l-.474-.158-.006.018-.005.019.485.121zm.18-.18l.132.482-.132-.482zm.324.192l.41-.287-.013-.018-.014-.017-.383.322zm.276.288l-.329.376.013.011.013.01.303-.397zm.396.324l-.329.376.27.237.311-.181-.252-.432zm.624-.408l-.284-.411-.008.005-.008.006.3.4zm.24-.18l-.3-.4-.013.01-.012.01.325.38zm.42-.18l-.131.482.02.006.022.004.09-.492zm.156.156l.492-.09-.492.09zm-.024.24l-.456-.203-.018.04-.01.042.484.121zm-.168.192l.338.369.002-.002-.34-.367zm-.36.288l-.293-.405-.01.008.303.397zm-.408.3l.284.412.005-.004-.289-.408zm-3.994 8.938a4.375 4.375 0 01-.31-.096l-.343.94c.106.038.235.078.386.12l.267-.964zm-.35-.108h-.001-.001v-.001h-.001-.001-.001l-.001-.001h-.001-.001-.001v-.001h-.001-.001-.001-.001v-.001h-.001-.001-.001l-.001-.001h-.003v-.001h-.001-.001-.001-.001v-.001h-.001-.002v-.001h-.001-.001-.001-.001V22h-.001-.001-.001-.001V22h-.001-.001-.001v-.001h-.002-.001-.001v-.001h-.001-.002l-.001-.001h-.002-.001v-.001h-.001-.002-.001v-.001h-.001-.002-.001v-.001h-.001-.001-.001v-.001h-.001-.001-.002v-.001h-.001-.001-.001l-.001-.001h-.001-.001-.001l-.001-.001h-.003v-.001h-.003l-.001-.001h-.001-.001-.001l-.001-.001h-.002-.001v-.001h-.002-.001-.001v-.001h-.001-.001-.001l-.001-.001h-.002-.001v-.001h-.001-.001-.001-.001v-.001h-.001-.001-.001v-.001h-.002-.002v-.001h-.001-.003v-.001h-.001-.001-.001v-.001h-.001-.001-.001-.001v-.001h-.001-.001-.001-.001v-.001h-.002-.001v-.001h-.001-.001-.001-.001v-.001h-.001-.001l-.132.482-.131.482h.001l.001.001h.003v.001h.004v.001h.003l.001.001h.003v.001h.004v.001h.003l.001.001h.003v.001h.004v.001h.003v.001h.004v.001h.004v.001h.003l.001.001h.003v.001h.004v.001h.003l.001.001h.003v.001h.004v.001h.003l.001.001h.003v.001h.003l.001.001h.003l.001.001h.003v.001h.004v.001h.003v.001h.004v.001h.003l.001.001h.003l.001.001h.003l.001.001h.003v.001h.003l.001.001h.003v.001h.003l.001.001h.003l.001.001h.003v.001h.003l.001.001h.001l.264-.964zm.2.632a.595.595 0 00-.134-.648l-.707.708a.405.405 0 01-.087-.431l.929.37zm-.088-.594a.623.623 0 00-.291-.21.94.94 0 00-.231-.048l-.09.996c.02.002.01.003-.016-.006a.38.38 0 01-.172-.132l.8-.6zm-.31-.189a1.046 1.046 0 01-.227-.187l-.733.68c.133.144.281.266.445.365l.515-.858zm-.226-.186a1.544 1.544 0 01-.182-.235l-.851.524c.083.136.183.265.298.39l.735-.68zm-.182-.235a1.87 1.87 0 01-.113-.205l-.913.406c.044.1.105.21.175.323l.851-.524zm-.116-.213a3.272 3.272 0 01-.05-.114l-.004-.009.002.005a.296.296 0 01.011.06c.002.013.003.03.003.053h-1c0 .081.02.148.026.167.009.031.02.061.03.086.02.051.045.11.075.174l.907-.422zm-.052.116a.437.437 0 01-.144.228c-.017.013-.02.011.01-.002l-.415-.91c-.06.027-.13.063-.195.112a.597.597 0 00-.227.33l.97.242zm-.047.175c.023-.017.01-.003-.032.01a.41.41 0 01-.328-.045l.515-.858a.591.591 0 00-.485-.051.906.906 0 00-.259.136l.588.808zm-.326-.017a.38.38 0 01-.093-.065c-.013-.013-.018-.02-.015-.017a1.022 1.022 0 01.047.088l.905-.426a1.604 1.604 0 00-.133-.236.725.725 0 00-.264-.238l-.447.894zm-.044.039c.174.308.456.514.783.64l.36-.932c-.168-.066-.239-.14-.272-.2l-.87.492zm.788.642c.324.122.673.173 1.04.164l-.025-1a1.746 1.746 0 01-.664-.1l-.351.936zm1.052.163c.38-.019.745-.105 1.09-.258l-.406-.914c-.23.103-.474.16-.734.174l.05.998zm1.075-.252c.168-.068.322-.144.452-.231.126-.086.26-.201.348-.359l-.871-.49c.016-.03.021-.02-.036.02-.054.036-.14.082-.268.134l.375.926zm.795-.582c.225-.382.078-.776-.096-1.043l-.837.548a.516.516 0 01.041.073l.007.018c0-.005-.003-.02.001-.041a.185.185 0 01.022-.061l.862.506zm-.046-.945a1.066 1.066 0 00-.162-.292l-.781.624c-.005-.006-.007-.01-.005-.006a.233.233 0 01.011.026l.937-.352zm-.162-.292a1.87 1.87 0 00-.214-.218l-.665.748a1.649 1.649 0 01.091.087l.007.007.78-.624zm-.193-.198c-.07-.069-.182-.177-.334-.321l-.688.726c.152.144.256.244.315.303l.707-.708zm-.466-.411l-.338-.157-.42.908.335.155.423-.906zm-.324-.15l-.312-.156-.447.894.312.156.447-.894zm-.312-.156a4.445 4.445 0 01-.418-.248l-.547.838c.193.125.366.229.518.304l.447-.894zm-.398-.233a4.494 4.494 0 01-.453-.378l-.689.725c.176.166.36.32.554.461l.588-.808zm-.453-.378a1.407 1.407 0 01-.257-.303l-.871.49c.105.188.26.367.439.538l.689-.726zm-.35-.423a.609.609 0 01-.153-.274l-.956.294a1.6 1.6 0 00.424.71l.684-.73zm-.151-.269a1.436 1.436 0 01-.053-.509l-.997-.066c-.02.295.009.582.091.859l.959-.284zm-.053-.509c.012-.175.055-.32.121-.443l-.88-.476a2.06 2.06 0 00-.239.853l.998.066zm.141-.484c.029-.067.087-.172.19-.318l-.82-.574a2.872 2.872 0 00-.29.498l.92.394zm.187-.314c.111-.156.234-.312.369-.47l-.76-.65a7.78 7.78 0 00-.422.538l.813.582zm.369-.47a7.61 7.61 0 01.394-.427l-.707-.708a8.635 8.635 0 00-.446.485l.759.65zm.394-.427c.128-.128.21-.194.25-.22l-.536-.844a2.634 2.634 0 00-.421.356l.707.708zm.336-.288c.057-.057.117-.114.183-.172l-.665-.748c-.079.07-.154.141-.225.212l.707.708zm.204-.192v-.001h.001v-.001h.001v-.001h.001v-.001h.001v-.001h.001v-.001h.001v-.001h.001v-.001h.001v-.001h.001v-.001h.001v-.001h.001v-.001h.001v-.001h.001v-.001h.001v-.001h.001v-.001h.001v-.001h.001v-.001h.001v-.001h.001v-.001h.001v-.001h.001v-.001h.001v-.001h.001v-.001h.001v-.001h.001v-.001h.001v-.001h.001v-.001h.001v-.001h.001v-.001h.001v-.001h.001v-.001h.001v-.001h.001v-.001h.001v-.001h.001v-.001h.001v-.001h.001v-.001h.001v-.001h.001v-.001h.001v-.001h.001v-.001h.001v-.001h.001v-.001h.001v-.001h.001v-.001h.001v-.001h.001v-.001h.001v-.001h.001v-.001h.001v-.001h.001v-.001h.001v-.001h.001v-.001h.001v-.001h.001v-.001h.001v-.001h.001v-.001h.001v-.001h.001v-.001h.001v-.001h.001v-.001h.001v-.001h.001v-.001h.001v-.001h.001v-.001h.001v-.001h.001v-.001h.001V15.3h.001V15.3h.001v-.001h.001v-.001h.001v-.001h.001v-.001h.001v-.001h.001v-.001h.001v-.001h.001v-.001h.001v-.001h.001v-.001h.001v-.001h.001v-.001h.001v-.001h.001v-.001h.001v-.001h.001v-.001h.001v-.001h.001v-.001h.001v-.001h.001v-.001h.001v-.001h.001v-.001h.001v-.001h.001v-.001h.001v-.001h.001v-.001h.001v-.001h.001v-.001h.001v-.001h.001v-.001h.001v-.001h.001v-.001h.001v-.001h.001v-.001h.001v-.001h.001v-.001h.001v-.001h.001v-.001l-.353-.354-.353-.354v.001h-.001v.001h-.001v.001h-.001v.001h-.001v.001h-.001v.001h-.001v.001h-.001v.001h-.001v.001h-.001v.001h-.001v.001h-.001v.001h-.001v.001h-.001v.001H19.1v.001H19.1v.001h-.001v.001h-.001v.001h-.001v.001h-.001v.001h-.001v.001h-.001v.001h-.001v.001h-.001v.001h-.001v.001h-.001v.001h-.001v.001h-.001v.001h-.001v.001h-.001v.001h-.001v.001h-.001v.001h-.001v.001h-.001v.001h-.001v.001h-.001v.001h-.001v.001h-.001v.001h-.001v.001h-.001v.001h-.001v.001h-.001v.001h-.001v.001h-.001v.001h-.001v.001h-.001v.001h-.001v.001h-.001v.001h-.001v.001h-.001v.001h-.001v.001h-.001v.001h-.001v.001h-.001v.001h-.001v.001h-.001l-.001.001v.001h-.001v.001h-.001v.001h-.001l-.001.001v.001h-.001v.001h-.001v.001h-.001v.001h-.001v.001h-.001v.001h-.001v.001h-.001v.001h-.001v.001h-.001v.001h-.001v.001h-.001v.001h-.001v.001h-.001v.001h-.001v.001h-.001l-.001.001v.001h-.001v.001h-.001v.001h-.001v.001h-.001l-.001.001v.001h-.001v.001h-.001l-.001.001v.001h-.001v.001h-.001l-.001.001v.001h-.001v.001h-.001l-.001.001v.001h-.001v.001h-.001v.001h-.001v.001h-.001v.001h-.001v.001h-.001v.001h-.001v.001h-.001v.001h-.001v.001h-.001v.001h-.001v.001h-.001v.001h-.001l-.001.001v.001h-.001l-.001.001v.001h-.001v.001h-.001l.707.708zm.245-.364s-.01.051-.047.114a.475.475 0 01-.408.228v-1a.524.524 0 00-.45.258.64.64 0 00-.076.204l.98.196zm-.455.342H19.54v-.5-.5h-.001-.001-.001-.002-.002-.001-.001-.001-.001-.001-.003-.001-.001-.002-.002-.003-.001-.005-.002-.003v1zm.294-.071l.045-.022.152-.065-.381-.924a2.789 2.789 0 00-.33.153l.514.858zm.197-.087a2 2 0 00.598-.412l-.689-.725a1.043 1.043 0 01-.29.213l.38.924zm.469-.323c.53-.253.948-.432 1.26-.544l-.336-.942c-.359.128-.812.325-1.355.584l.43.902zm1.26-.544c.313-.112.527-.151.66-.151v-1c-.298 0-.636.08-.996.21l.337.94zm.64-.151c.13.005.234.035.32.082l.481-.876a1.704 1.704 0 00-.76-.206l-.04 1zm.345.095a.599.599 0 01.226.177l.795-.608a1.596 1.596 0 00-.59-.471l-.43.902zm.237.19a.44.44 0 01.094.237l.992-.124a1.439 1.439 0 00-.314-.748l-.772.636zm.11.315c.019.063.026.177-.04.37l.945.325c.11-.32.149-.654.055-.975l-.96.28zm-.039.365a1.992 1.992 0 01-.318.566l.786.618c.207-.263.367-.547.475-.85l-.943-.334zm-.32.568c-.134.173-.27.289-.4.363l.488.872c.268-.15.5-.362.702-.621l-.79-.614zm-.354.34c-.102.043-.175.07-.224.084l-.038.01c-.004 0 .017-.004.053 0l-.1.995a.98.98 0 00.363-.045 3.03 3.03 0 00.34-.125l-.394-.92zm-.15.103a.403.403 0 01.28.235c.02.053.012.075.015.027l-.999-.052a.937.937 0 00.05.381c.061.16.2.332.437.385l.217-.976zm.295.236c0 .02-.003.028-.001.022a.294.294 0 01.017-.043l-.91-.414a1.06 1.06 0 00-.106.435h1zm0 .011a1.832 1.832 0 01.081-.111c.054-.068.128-.155.224-.263l-.746-.666c-.193.217-.357.415-.438.562l.878.478zm.346-.426c.263-.386.461-.747.54-1.06l-.97-.242c-.034.135-.148.374-.397.74l.827.562zm.54-1.06c.037-.149.067-.365-.021-.575a.686.686 0 00-.546-.412l-.149.989a.273.273 0 01-.112-.048.333.333 0 01-.116-.143.228.228 0 01-.02-.087c0-.006 0 .004-.007.034l.97.242zm-.483-.967a.825.825 0 00-.26-.038c-.073 0-.149.006-.225.016l.124.992a1.377 1.377 0 01.1-.008c.008 0 .007 0 0 0a.273.273 0 01-.056-.014l.316-.948zm-.489-.022a6.06 6.06 0 00-.445.079l.206.978c.143-.03.267-.051.372-.065l-.133-.992zm-.424.075c-.159.026-.306.059-.437.1l.294.955c.077-.024.179-.047.308-.069l-.165-.986zm-.402.09c-.058.013-.125.03-.184.053a.64.64 0 00-.134.07c-.02.014-.226.15-.226.424h1a.49.49 0 01-.205.398c-.042.03-.076.041-.076.042l.05-.013-.225-.974zm-.044.547h-.5V14.669h1v-.001-.001-.001-.001-.001-.001-.001-.001-.001-.001-.001-.001-.001-.001-.001-.001-.001-.001-.001-.001-.001-.001-.001-.001-.001-.001-.001-.001-.001-.001-.001-.001-.001-.001-.001-.001h-.5zm-.5.036a.48.48 0 01.264-.423c.159-.08.296-.041.31-.038l-.243.97a.551.551 0 00.381-.038.524.524 0 00.288-.471h-1zm.452-.476c-.07 0-.125.015-.141.02a.642.642 0 00-.134.052c-.046.02-.101.05-.164.083l.47.882a4.456 4.456 0 01.12-.06l.01-.005-.004.001a.322.322 0 01-.073.02.5.5 0 01-.084.007v-1zm-.439.155c-.133.07-.286.16-.46.268l.527.85c.162-.1.296-.179.404-.236l-.47-.882zm-.46.268l-.002.001-.002.001-.002.001v.001h-.002v.001l-.002.001-.002.001-.002.001v.001h-.002v.001h-.002v.001l-.002.001-.001.001h-.001l-.001.002h-.001-.001l-.001.001h-.001l-.001.002h-.001-.001l-.001.001-.001.001h-.001l-.001.001h-.001l-.001.001-.001.001h-.001l-.001.001h-.001l-.001.002h-.001-.001l-.001.001h-.001l-.001.002h-.001-.001l-.001.001h-.001l-.001.002h-.001l-.002.001v.001h-.002v.001h-.002v.001l-.002.001-.002.001-.002.002h-.002v.001h-.002v.002h-.002l-.002.001v.001h-.002v.001h-.002v.001l-.002.001-.002.001-.002.001v.001H20.5v.001H20.5l-.001.002h-.001-.001l-.001.001h-.001l-.001.002h-.001-.001l-.001.001-.001.001h-.001l-.001.001h-.001l-.001.001-.001.001h-.001l-.001.001h-.001l-.001.002h-.001-.001l-.001.001h-.001l-.001.002h-.001-.001l-.001.001h-.001l-.001.002h-.001l-.002.001v.001h-.002v.001h-.002v.001l-.002.001-.002.001-.002.002h-.002v.001h-.002v.002h-.002l-.002.001v.001h-.002v.001h-.002v.001l-.002.001-.002.001-.002.001v.001h-.002v.001h-.001l-.001.002h-.001-.001l-.001.001h-.001l-.001.002h-.001-.001l-.001.001-.001.001h-.001l-.001.001h-.001l-.001.001-.001.001h-.001l-.001.001h-.001l-.001.002h-.001-.001l-.001.001h-.001l-.001.002h-.001-.001l-.001.001h-.001l-.001.002h-.001l-.002.001v.001h-.002v.001H20.4v.001l-.002.001-.002.001-.002.002h-.002v.001h-.002v.002h-.002l-.002.001v.001h-.002v.001h-.002v.001l-.002.001-.002.001-.002.001v.001h-.002v.001h-.001l-.001.002h-.001-.001l-.001.001h-.001l-.001.002h-.001-.001l-.001.001-.001.001h-.001l-.001.001h-.001l-.001.001-.001.001h-.001l-.001.001h-.001l-.001.002h-.001-.001l-.001.001h-.001l-.001.002h-.001-.001l-.001.001h-.001l-.001.002h-.001l-.002.001v.001h-.002v.001h-.002v.001l-.002.001-.002.001-.002.002h-.002v.001h-.002v.002h-.002l-.002.001v.001h-.002v.001h-.002v.001l-.002.001-.002.001-.002.001v.001h-.002v.001h-.001l-.001.002h-.001-.001l-.001.001h-.001l-.001.002h-.001-.001l-.001.001-.001.001H20.3l-.001.001h-.001l-.001.001-.001.001h-.001l-.001.001h-.001l-.001.002h-.001-.001l-.001.001h-.001l-.001.002h-.001-.001l-.001.001h-.001l-.001.002h-.001l-.002.001v.001h-.002v.001h-.002v.001l-.002.001-.002.001-.002.002h-.002v.001h-.002v.002h-.002l-.002.001v.001h-.002v.001h-.002v.001l-.002.001-.002.001-.002.001v.001h-.002v.001h-.001l-.001.002h-.001-.001l-.001.001h-.001l-.001.002h-.001-.001l-.001.001-.001.001h-.001l-.001.001h-.001l-.001.001-.001.001h-.001l-.001.001h-.001l-.001.002h-.001-.001l-.001.001h-.001l-.001.002h-.001-.001l-.001.001h-.001l-.001.002h-.001l-.002.001v.001h-.002v.001h-.002v.001l-.002.001-.002.001-.002.002h-.002v.001h-.002v.001l-.002.001-.002.001v.001h-.002v.001h-.002v.001l-.002.001-.002.001-.002.001v.001h-.002v.001h-.001l-.001.002h-.001-.001l-.001.001h-.001l-.001.002h-.001-.001l-.001.001-.001.001h-.001l-.001.001h-.001l-.001.001-.001.001h-.001l-.001.001h-.001l-.001.002h-.001-.001l-.001.001h-.001l-.001.002h-.001-.001l-.001.001h-.001l-.001.002h-.001l-.002.001v.001h-.002v.001h-.002v.001l-.002.001-.002.001-.002.002h-.002v.001h-.002v.002h-.002l-.002.001v.001h-.002v.001h-.002v.001l-.002.001-.002.001-.002.001v.001h-.002v.001h-.001l-.001.002h-.001-.001l-.001.001h-.001l-.001.002h-.001-.001l-.001.001-.001.001h-.001l-.001.001h-.001l-.001.001-.001.001h-.001l-.001.001h-.001l-.001.002h-.001-.001l-.001.001h-.001l-.001.002h-.001-.001l-.001.001h-.001l-.001.002h-.001l-.002.001v.001h-.002v.001h-.002v.001l-.002.001-.002.001.526.851.002-.001.002-.001.002-.002h.001l.001-.001.001-.001h.001l.001-.001h.001l.001-.001.001-.001h.001l.001-.001h.001l.001-.001.001-.001h.001l.001-.001h.001l.001-.002h.002l.001-.001h.001l.001-.002h.002l.001-.001.001-.001h.001l.001-.001h.001l.001-.001.001-.001h.001v-.001h.002v-.002h.002l.002-.001.002-.002h.002v-.001h.002v-.002h.002l.002-.001v-.001h.002v-.001h.002v-.001l.002-.001.002-.001.002-.002h.002v-.001h.002v-.002h.002l.001-.001.001-.001h.001l.001-.001h.001l.001-.001.001-.001h.001l.001-.001h.001l.001-.001.001-.001h.001l.001-.001h.001l.001-.002h.002l.001-.001h.001l.001-.002h.002l.001-.001.001-.001h.001l.001-.001h.001l.001-.001.001-.001h.001v-.001h.002v-.002h.002l.002-.001.002-.002h.002v-.001h.002v-.002h.002l.002-.001v-.001h.002v-.001h.002v-.001l.002-.001.002-.001.002-.002h.002v-.001h.002v-.002h.002l.001-.001.001-.001h.001l.001-.001h.001l.001-.001.001-.001h.001l.001-.001h.001l.001-.001.001-.001h.001l.001-.001h.001l.001-.002h.002l.001-.001h.001l.001-.002h.002l.001-.001.001-.001h.001l.001-.001h.001l.001-.001.001-.001h.001v-.001h.002v-.002h.002l.002-.001.002-.002h.002v-.001h.002v-.002h.002l.002-.001v-.001h.002v-.001h.002v-.001l.002-.001.002-.001.002-.002h.002v-.001h.002v-.002h.002l.001-.001.001-.001h.001l.001-.001h.001l.001-.001.001-.001h.001l.001-.001h.001l.001-.001.001-.001h.001l.001-.001h.001l.001-.002h.002l.001-.001h.001l.001-.002h.002l.001-.001.001-.001h.001l.001-.001h.001l.001-.001.001-.001h.001v-.001h.002v-.002h.002l.002-.001.002-.001v-.001h.002v-.001h.002v-.002h.002l.002-.001v-.001h.002v-.001h.002v-.001l.002-.001.002-.001.002-.002h.002v-.001h.002v-.002h.002l.001-.001.001-.001h.001l.001-.001h.001l.001-.001.001-.001h.001l.001-.001h.001l.001-.001.001-.001h.001l.001-.001h.001l.001-.002h.002l.001-.001h.001l.001-.002h.002l.001-.001.001-.001h.001l.001-.001h.001l.001-.001.001-.001h.001v-.001h.002v-.002h.002l.002-.001.002-.002h.002v-.001h.002v-.002h.002l.002-.001v-.001h.002v-.001h.002v-.001l.002-.001.002-.001.002-.002h.002v-.001h.002v-.002h.002l.001-.001.001-.001h.001l.001-.001h.001l.001-.001.001-.001h.001l.001-.001h.001l.001-.001.001-.001h.001l.001-.001h.001l.001-.002h.002l.001-.001h.001l.001-.002h.002l.001-.001.001-.001h.001l.001-.001h.001l.001-.001.001-.001h.001v-.001h.002v-.002h.002l.002-.001.002-.002h.002v-.001h.002v-.002h.002l.002-.001v-.001h.002v-.001h.002v-.001l.002-.001.002-.001.002-.002h.002v-.001h.002v-.002h.002l.001-.001.001-.001h.001l.001-.001h.001l.001-.001.001-.001h.001l.001-.001h.001l.001-.001.001-.001h.001l.001-.001h.001l.001-.002h.002l.001-.001h.001l.001-.002h.002l.001-.001.001-.001h.001l.001-.001h.001l.001-.001.001-.001h.001v-.001h.002v-.002h.002l.002-.001.002-.002h.002v-.001h.002v-.002h.002l.002-.001v-.001h.002v-.001h.002v-.001l.002-.001.002-.001.002-.002h.002v-.001h.002V15.5h.002l.001-.001.001-.001h.001l.001-.001h.001l.001-.001.001-.001h.001l.001-.001h.001l.001-.001.001-.001h.001l.001-.001h.001l.001-.002h.002l.001-.001h.001l.001-.002h.002l.001-.001.001-.001h.001l.001-.001h.001l.001-.001.001-.001h.001v-.001h.002v-.002h.002l.002-.001.002-.002h.002v-.001h.002v-.002h.002l.002-.001v-.001h.002v-.001h.002v-.001l.002-.001.002-.001-.526-.851zm-.504.312c-.171.106-.32.201-.446.285l.555.832c.114-.076.253-.165.418-.267l-.527-.85zm-.439.28a3.233 3.233 0 00-.154.105 1 1 0 00-.07.056c-.005.004-.082.067-.133.168l.895.448a.468.468 0 01-.101.134l-.006.005.006-.005c.018-.013.05-.035.104-.07l-.541-.84zm-.401.464a.286.286 0 01.082-.162c.005-.005.004-.003-.007.004a.52.52 0 01-.057.027l.394.92c.11-.048.227-.11.327-.197.1-.087.21-.223.244-.414l-.983-.178zm-.042-.1a2.056 2.056 0 00-.589.552l.805.594c.105-.142.206-.233.299-.288l-.515-.858zm-.597.563c-.138.198-.288.438-.453.716l.862.508c.156-.266.293-.482.412-.652l-.821-.572zm-.424.673a2.233 2.233 0 00-.37.771l.968.252c.04-.153.108-.295.207-.429l-.805-.594zm-.368.767c-.07.261-.096.56.024.834l.916-.4c.005.01 0 .007 0-.022 0-.03.006-.08.025-.152l-.965-.26zm.005.783c.08.259.289.498.503.703l.693-.72a1.923 1.923 0 01-.197-.215c-.044-.058-.048-.078-.044-.066l-.955.298zm.503.703c.242.233.535.448.872.647l.508-.862a3.708 3.708 0 01-.687-.505l-.693.72zm.883.652c.259.146.488.288.688.429l.575-.818a8.858 8.858 0 00-.776-.483l-.487.872zm.698.436c.197.132.346.251.452.358l.707-.708a3.966 3.966 0 00-.604-.482l-.555.832zm.462.367c.127.12.169.188.177.206l.908-.419a1.754 1.754 0 00-.398-.514l-.687.727zm.223.285a.861.861 0 01.13.266l.964-.268a1.86 1.86 0 00-.277-.574l-.817.576zm.14.298a.69.69 0 01.044.23h1c0-.191-.036-.38-.1-.562l-.943.332zm.045.261a.477.477 0 01-.014.17l.955.294a1.47 1.47 0 00.057-.526l-.998.062zm.005.117a.785.785 0 01-.185.233l.687.727c.174-.165.323-.35.415-.56l-.917-.4zm-.195.242a.652.652 0 01-.072.063l-.005.003.007-.003a.279.279 0 01.117-.015l-.083.996c.336.028.595-.189.743-.336l-.707-.708zm-.126.064a1.2 1.2 0 00-.35.15l.555.832c-.01.006-.012.006 0 .001a.51.51 0 01.058-.019l-.263-.964zm-.385.176c.001-.001-.006.005-.029.014l.394.92c.09-.039.179-.089.26-.154l-.625-.78zm-.08.04l.024-.012a2.261 2.261 0 01-.22.05l.17.985c.1-.018.192-.037.271-.058.071-.019.166-.048.252-.097l-.497-.868zm-.201.038a3.68 3.68 0 01-.517.052l.037 1c.235-.009.455-.031.659-.068l-.18-.984zm-.535.053c-.2.015-.38.019-.542.012l-.043.998c.206.01.426.005.658-.012l-.073-.998zm2.94-9.105s.01-.007.029-.014a.23.23 0 01.08-.014v1a.818.818 0 00.491-.172l-.6-.8zm.17-.024a.259.259 0 01.097.032.204.204 0 01.053.043l-.76.65a.76.76 0 00.486.267l.124-.992zm.108.031c-.098-.09-.223-.203-.376-.34l-.667.746c.151.135.274.245.367.332l.676-.738zm-.356-.32l-.396-.397-.707.708.396.396.707-.708zm-.396-.397a7.048 7.048 0 01-.16-.164c-.002-.003-.002-.003 0 0 .001 0 .009.01.018.025l-.832.554c.037.054.09.11.116.138l.15.155.708-.708zm-.079-.006c.003.01.003.016.003.018l.003-.017-.97-.242a.991.991 0 00.006.529l.958-.288zm-.004.038a.255.255 0 01-.163.144l-.263-.964a.755.755 0 00-.523.504l.949.316zm-.163.144a.32.32 0 01-.24-.022c-.009-.005-.008-.006.003.003.01.01.026.026.047.051l.765-.644a1.229 1.229 0 00-.305-.27.686.686 0 00-.533-.082l.263.964zm-.217-.003c.09.128.217.255.356.377l.659-.752a1.315 1.315 0 01-.196-.199l-.82.574zm.382.398c.127.098.25.199.37.303l.659-.752a8.259 8.259 0 00-.422-.345l-.607.794zm.951.359c.104-.06.214-.128.33-.203l-.54-.842a8.035 8.035 0 01-.294.181l.504.864zm.33-.203c.122-.078.236-.157.342-.237l-.6-.8a4.74 4.74 0 01-.282.195l.54.842zm.327-.226a3.53 3.53 0 00.28-.211l-.65-.76c-.037.032-.1.08-.2.149l.57.822zm.255-.191a1.261 1.261 0 01.146-.093c.009-.004 0 .001-.023.005a.324.324 0 01-.134-.01l.263-.964a.76.76 0 00-.5.05c-.12.051-.24.128-.352.212l.6.8zm.03-.088a.31.31 0 01-.158-.087.31.31 0 01-.087-.16l.983-.178a.692.692 0 00-.19-.37.692.692 0 00-.368-.189l-.18.984zm-.245-.247v-.013a.13.13 0 01.01-.04l.914.407a.901.901 0 00.06-.532l-.984.178zm-.018.03a.442.442 0 01.063-.138c0-.002 0 0-.002.002a1.905 1.905 0 01-.083.082l.678.734a2.16 2.16 0 00.158-.158.92.92 0 00.072-.094.6.6 0 00.085-.186l-.97-.242zm-.02-.056a3.544 3.544 0 01-.315.252l.585.81c.155-.111.29-.22.405-.324l-.675-.738zm-.326.26c-.131.1-.262.196-.393.288l.577.817c.141-.1.282-.203.423-.31l-.607-.795zm-.388.285c-.12.083-.213.14-.28.177l.479.878c.109-.06.232-.138.368-.231l-.567-.824z" fill="#fff"/></g><defs><clipPath id="clip0_1_2"><path fill="#fff" d="M0 0h30v45H0z"/></clipPath></defs></svg>