<svg width="24" height="24" viewBox="0 0 24 24" xmlns="http://www.w3.org/2000/svg"><g fill="#FFF" fill-rule="evenodd"><path d="M12 0C5.373 0 0 5.373 0 12s5.373 12 12 12 12-5.373 12-12S18.627 0 12 0zm5 7.875c.552.15.985.596 1.133 1.162.267 1.024.267 3.163.267 3.163s0 2.138-.267 3.163A1.625 1.625 0 0117 16.525C16.003 16.8 12 16.8 12 16.8s-4.003 0-5-.275a1.625 1.625 0 01-1.133-1.162C5.6 14.338 5.6 12.2 5.6 12.2s0-2.138.267-3.163C6.015 8.47 6.448 8.026 7 7.875 7.997 7.6 12 7.6 12 7.6s4.003 0 5 .275z"/><path fill-rule="nonzero" d="M10.8 14.4v-4l3.2 2z"/></g></svg>